<mxfile host="app.diagrams.net" modified="2021-12-02T22:41:35.391Z" agent="5.0 (Macintosh; Intel Mac OS X 10_15_7) AppleWebKit/537.36 (KHTML, like Gecko) Chrome/95.0.4638.69 Safari/537.36" etag="YeSqXQvzk539WJ6ykvTA" version="15.7.3" type="github">
  <diagram id="eAD9Q5Ygp0S6Npa7zl2q" name="Page-1">
    <mxGraphModel dx="870" dy="510" grid="1" gridSize="10" guides="1" tooltips="1" connect="1" arrows="1" fold="1" page="1" pageScale="1" pageWidth="850" pageHeight="1100" math="0" shadow="0">
      <root>
        <mxCell id="0" />
        <mxCell id="1" parent="0" />
        <mxCell id="bJyrGBfYhx52CG3j51wn-2" value="GCP" style="shape=image;verticalLabelPosition=bottom;labelBackgroundColor=#ffffff;verticalAlign=top;aspect=fixed;imageAspect=0;image=data:image/png,iVBORw0KGgoAAAANSUhEUgAAAeAAAAD7CAYAAACyskd5AAAAAXNSR0IArs4c6QAAAKxlWElmTU0AKgAAAAgABgEOAAIAAAASAAAAVgESAAMAAAABAAEAAAEaAAUAAAABAAAAaAEbAAUAAAABAAAAcAE7AAIAAAAJAAAAeIdpAAQAAAABAAAAggAAAABHb29nbGUgQ2xvdWQgTG9nbwAAAABgAAAAAQAAAGAAAAABSGFuZC1vdXQAAAADoAEAAwAAAAEAAQAAoAIABAAAAAEAAAHgoAMABAAAAAEAAAD7AAAAAPDQQA0AAAAJcEhZcwAADsQAAA7EAZUrDhsAAAhdaVRYdFhNTDpjb20uYWRvYmUueG1wAAAAAAA8eDp4bXBtZXRhIHhtbG5zOng9ImFkb2JlOm5zOm1ldGEvIiB4OnhtcHRrPSJYTVAgQ29yZSA2LjAuMCI+CiAgIDxyZGY6UkRGIHhtbG5zOnJkZj0iaHR0cDovL3d3dy53My5vcmcvMTk5OS8wMi8yMi1yZGYtc3ludGF4LW5zIyI+CiAgICAgIDxyZGY6RGVzY3JpcHRpb24gcmRmOmFib3V0PSIiCiAgICAgICAgICAgIHhtbG5zOmRjPSJodHRwOi8vcHVybC5vcmcvZGMvZWxlbWVudHMvMS4xLyIKICAgICAgICAgICAgeG1sbnM6cGhvdG9zaG9wPSJodHRwOi8vbnMuYWRvYmUuY29tL3Bob3Rvc2hvcC8xLjAvIgogICAgICAgICAgICB4bWxuczp0aWZmPSJodHRwOi8vbnMuYWRvYmUuY29tL3RpZmYvMS4wLyIKICAgICAgICAgICAgeG1sbnM6SXB0YzR4bXBFeHQ9Imh0dHA6Ly9pcHRjLm9yZy9zdGQvSXB0YzR4bXBFeHQvMjAwOC0wMi0yOS8iPgogICAgICAgICA8ZGM6Y3JlYXRvcj4KICAgICAgICAgICAgPHJkZjpTZXE+CiAgICAgICAgICAgICAgIDxyZGY6bGk+SGFuZC1vdXQ8L3JkZjpsaT4KICAgICAgICAgICAgPC9yZGY6U2VxPgogICAgICAgICA8L2RjOmNyZWF0b3I+CiAgICAgICAgIDxkYzpkZXNjcmlwdGlvbj4KICAgICAgICAgICAgPHJkZjpBbHQ+CiAgICAgICAgICAgICAgIDxyZGY6bGkgeG1sOmxhbmc9IngtZGVmYXVsdCI+R29vZ2xlIENsb3VkIExvZ288L3JkZjpsaT4KICAgICAgICAgICAgPC9yZGY6QWx0PgogICAgICAgICA8L2RjOmRlc2NyaXB0aW9uPgogICAgICAgICA8ZGM6cmlnaHRzPgogICAgICAgICAgICA8cmRmOkFsdD4KICAgICAgICAgICAgICAgPHJkZjpsaSB4bWw6bGFuZz0ieC1kZWZhdWx0Ii8+CiAgICAgICAgICAgIDwvcmRmOkFsdD4KICAgICAgICAgPC9kYzpyaWdodHM+CiAgICAgICAgIDxkYzp0aXRsZT4KICAgICAgICAgICAgPHJkZjpBbHQ+CiAgICAgICAgICAgICAgIDxyZGY6bGkgeG1sOmxhbmc9IngtZGVmYXVsdCI+R29vZ2xlIENsb3VkIExvZ288L3JkZjpsaT4KICAgICAgICAgICAgPC9yZGY6QWx0PgogICAgICAgICA8L2RjOnRpdGxlPgogICAgICAgICA8ZGM6c3ViamVjdD4KICAgICAgICAgICAgPHJkZjpCYWc+CiAgICAgICAgICAgICAgIDxyZGY6bGkvPgogICAgICAgICAgICA8L3JkZjpCYWc+CiAgICAgICAgIDwvZGM6c3ViamVjdD4KICAgICAgICAgPHBob3Rvc2hvcDpDYXB0aW9uV3JpdGVyPkNOPC9waG90b3Nob3A6Q2FwdGlvbldyaXRlcj4KICAgICAgICAgPHBob3Rvc2hvcDpTb3VyY2U+R29vZ2xlIENsb3VkPC9waG90b3Nob3A6U291cmNlPgogICAgICAgICA8cGhvdG9zaG9wOkNvdW50cnkvPgogICAgICAgICA8cGhvdG9zaG9wOkNhdGVnb3J5PkNQUixNTE08L3Bob3Rvc2hvcDpDYXRlZ29yeT4KICAgICAgICAgPHBob3Rvc2hvcDpEYXRlQ3JlYXRlZD4yMDE5OjExOjE5PC9waG90b3Nob3A6RGF0ZUNyZWF0ZWQ+CiAgICAgICAgIDxwaG90b3Nob3A6VHJhbnNtaXNzaW9uUmVmZXJlbmNlLz4KICAgICAgICAgPHBob3Rvc2hvcDpTdXBwbGVtZW50YWxDYXRlZ29yaWVzPgogICAgICAgICAgICA8cmRmOkJhZz4KICAgICAgICAgICAgICAgPHJkZjpsaT5XZWJzaXRlRGlzdHJpYnV0aW9ufFBSTkFyY2hpdmVfMVllYXI8L3JkZjpsaT4KICAgICAgICAgICAgPC9yZGY6QmFnPgogICAgICAgICA8L3Bob3Rvc2hvcDpTdXBwbGVtZW50YWxDYXRlZ29yaWVzPgogICAgICAgICA8cGhvdG9zaG9wOkNpdHk+U1VOTllWQUxFPC9waG90b3Nob3A6Q2l0eT4KICAgICAgICAgPHBob3Rvc2hvcDpJbnN0cnVjdGlvbnM+U2VlIFJlbGVhc2UgPC9waG90b3Nob3A6SW5zdHJ1Y3Rpb25zPgogICAgICAgICA8cGhvdG9zaG9wOkNyZWRpdD5Hb29nbGUgQ2xvdWQ8L3Bob3Rvc2hvcDpDcmVkaXQ+CiAgICAgICAgIDxwaG90b3Nob3A6SGVhZGxpbmU+R29vZ2xlIENsb3VkIExvZ288L3Bob3Rvc2hvcDpIZWFkbGluZT4KICAgICAgICAgPHBob3Rvc2hvcDpTdGF0ZT5DQTwvcGhvdG9zaG9wOlN0YXRlPgogICAgICAgICA8dGlmZjpPcmllbnRhdGlvbj4xPC90aWZmOk9yaWVudGF0aW9uPgogICAgICAgICA8SXB0YzR4bXBFeHQ6SGVhZGxpbmU+R29vZ2xlIENsb3VkIExvZ288L0lwdGM0eG1wRXh0OkhlYWRsaW5lPgogICAgICA8L3JkZjpEZXNjcmlwdGlvbj4KICAgPC9yZGY6UkRGPgo8L3g6eG1wbWV0YT4KoPfiKAAAQABJREFUeAHsnQeAFdX1/8/M6297haVX6VUUKSrYu8ZeYvKLifpLTGL0n/hLjMYekxh7I3aNNZaIXVGRoqBSBQSk78KywPby+pv5f8+d93aXdUHY97afC6/Nm7nlM/vmO+fcc+8lkiQEhIAQEAJCQAgIASEgBISAEBACQkAICAEhIASEgBAQAkJACAgBISAEhIAQEAJCQAgIASEgBISAEBACQkAICAEhIASEgBAQAkJACAgBISAEhIAQEAJCQAgIASEgBISAEBACQkAICAEhIASEgBAQAkJACAgBISAEhIAQEAJCQAgIASEgBISAEBACQkAICAEhIASEgBAQAkJACAgBISAEhIAQEAJCQAgIASEgBISAEBACQkAICAEhIASEgBAQAkJACAgBISAEhIAQEAJCQAgIASEgBISAEBACQkAICAEhIASEgBAQAkJACAgBISAEhIAQEAJCQAgIASEgBISAEBACQkAICAEhIASEgBAQAkJACAgBISAEhIAQEAJCQAgIASEgBISAEBACQkAICAEhIASEgBAQAkJACAgBISAEhIAQEAJCQAgIASEgBISAEBACQkAICAEhIASEgBAQAkJACAgBISAEhIAQEAJCQAgIASEgBISAEBACQkAICAEhIASEgBAQAkJACAgBISAEhIAQEAJCQAgIASEgBISAEBACQkAICAEhIASEgBAQAkJACAgBISAEhIAQEAJCQAgIASEgBISAEBACQkAICAEhIASEgBAQAkJACAgBISAEhIAQEAJCQAgIASEgBISAEBACQkAICAEhIASEgBAQAkJACAgBISAEhIAQEAJCQAgIASEgBISAEBACQkAICAEhIASEgBAQAkJACOxFQNvrk3wQAkKg3QmYpqltJXINwAOVcePhbPSw4z0/bBQO8+9XI4fDxCs/DDwisUcYr8HYI4DXgKZp/FmSEBACHYSACHAHORFSDSHABCC+djJDr5MvcEakupZCFbspWlFOZnk53peTXusno85Hht9P0bClpzanizSXh2wpXqI0vGZlkZ6VQ86sbNKz88mRlkqU4l5FmnMCRDgqpIWAEOgYBESAO8Z5kFp0UwIQXAeanh0p2z3G2L7lIt/m7ZeF1q8nc90qCm9cSbR6Ldmq2MyFOLMdnEmke/BwO8iwQ1hh+OrhWmh2hAwf9tsDMxi2sFJZ7Esjh5N9yFjSho0h+/BhNSmDe9/vLhjwAeX32oBvKyDIbClLEgJCoB0IiAC3A3QpsvsR8JvmAEc0eq1ms1XqRDkUCQ02i7YfVbtuvce/5CsyFs6lyEfzlG9ZHwwhzR9GWkoGkcNJmoYjOMUczSZ7mvHeVBtYnPEz1vCMhxn7RasX0yAzHCazrorMPevI2Gj5p+3HTydt2kzyHjqZUkYPq9P79J1DdtcylFCCx8vIp4aLkyQEhEDrEhABbl2+krsQqCcAa/dMY/eON+tWrqC6zz6h4PtPkr68mtxDobO9xlLUmwEBhdgasF+jETINFlpW3b1Tw4+Wv+NPLMXW1vh39UexMOvIU0e3sc2G/A2yQZCjJd9QYB02jU4jx6k/I/eMY8k7YRLZevTqjwx34ZGFR52IMShIEgKtRCD+e22l7CVbIdB9CUBwD0HrOQBK921ce2xgzpz7fW+8mqJ/vJCcI7PI3msUmbBwI2YImhsmPcoxVJak8mtcXvl9S1M8j/irEmsIsmZzkK47KRqNkrlrLUVWwnd99BRyn3c+uY8/nryDRiDUS2dX9ll2TZvd0vLlOCEgBPZNQAR432zkGyHQYgIQ316wYncE135DlW/Ppuijt6qYZOeYQ0l3pVLYiKDvNkA6KyPBQsUru48bhLLFRe/zQCvv2DMsYWU3mzYycBPghHVsBOsotGYp+pYRfn35DZR61lnkHjkWQuzoAUt49z4zli+EgBBoEQER4BZhk4OEwPcJQHR5yBC7bu3h7759v/I/L40K3H07uXJsZBs6GQILZQuGIHwYKcS/PCiu6r9VWbEw7u1Kbg0xtkrgwtFfXP/MW3kLKy/6nGH3GpuWkX+Ln1x/up5yLry43D5i1MnYpQwPDtwqx6skISAEEiQgApwgQDlcCDCBsGlOg3wtNEtKqeTtlyjy99+S1/CSNvxQRCXD2gyFlORZQtf4Z2eJX9zx3Pib1iXLNWHJb1yi9YmfNQ7+glUc3fIFRcojZL/xHso952LSe/aYhsOW4GFAiHnMsSQhIARaSKDxr6+FWchhQqB7E4DlO4Ai4S118+ZQ6T1/Js/7K0g/8Uhlz1IouJfEdRZS6kYBT5rTQxGbTubizyg6bixl/el28s44AX3XGHtMlAcRLu0sbZJ6CoGORgCdT5KEgBBoKQGIr8coKVy662+3UcVxp1JKnZ3sJ80kA5NkaKGAEl/L1mxpCe14HBTWCPtID/jIffgMcuouKj/hDNp9261k7NjMFbuwHWsnRQuBTk9ALOBOfwqlAW1NAKLrxewVozCDRtC/eOGbe266ZqB74xKyjZxBRsAP1UKAFQc3aZb0xn9kyqps68omUN5e/cXsbdYQOe32UHT9ZxQsGE05dzxM3ulHvYLY7TWRUOg1l8u1NoHi5FAh0O0IxK8N3a7h0mAh0BICkUjkNGjr2/ZAmKpee5mqLsUY2mMmkM2VZokvRJcDqxrEqyWldJxjrFuIeJusKG3d5cYEHz4KfryU3M89Srnn/5xMF2bmMqLP2HTbL+CWlukuO84plJp0YAIiwB345EjVOhYBWL4FqFGxWVVGe+67jyI3I8L51KPR/RsgF6Zljtgx6xSGFGmx6ag6m8X7Q7RN3FzwLFyOiIPCTpNszhSKvDuXzBuvo55X/wHzeyEA3NQ/xJRcp0CErUHNP5SpfC8EujEB6QPuxidfmn7QBC4xdhVR8f/9mqJP3E6O048h0xcgWyRMQTvkFqYxe50tq/Gg8+7QB6ibCTyxaz2EttqiISwMUUv66SeT48F/0MobbqLiUjjmNe1EwzB+1aEbI5UTAh2EgFjAHeRESDU6JgFYvRrczsfa7fYHaMumEZv+3/9S6oaN5OyHwGd/bXwODVRei02qYQlwV/thKQFGK3VDp7AdfdwGT2vpIJtRTWUZfenRAX+mbwqG0axLc2go+wmIPLCCeRYwSUJACOyDgFjA+wAjm4UAxNcWoeh/IL5zaMO6EVt/dSFl7CgkV58+FApUw9iz3M06XM48oxWLVFyouho9vqFgB3TYHiJ7VEd73XjAFe/KoUeG3UhfFUymYNBDlz+1m9buUMODF4fN8MyuxkHaIwSSSUAEOJk0Ja8uQ4AtXzMafdNOtnPDW7dQ4ZUXU0ol1uHNzaUgApBIx+xWsYUSWHQ5sUh1RcvXuq1QNj7mq+a1EBFmhuG/Zfbe9OyYu2lO1iRKjfoo1WGnqJFCVzxdRetKjHEYkHWBAiNPQkAINEtABLhZLLKx2xMIh8dhJqjTqHg7lfz2cnLC3Wxm52BMbICcUciyoVFETeQcl9+uR8yK5Gb51WNDqmDZ8kIO0SCVOgpo1vi/0Tu5o6l/JESwiymAGb9SEJwVNj30u2fLaVs5XYkbmV/gkd/16EiLhEDiBESAE2coOXRBAmGHQ6OKMtp8y5/ItXUdObJ6kuaH5Uvx8b0QXrierQE6FoCuIMXxNvCrNZyKbXpEPkcxLaXmQfBVNZW7vTRrwh00N3sc9WbxReQZk8AeFMIApEyng8r8Drrh+RLaU0ePY23FXRBhp0VJnoWAEIgTEAGOk5BXIdCIgCMc/jEPNUp5+3ny9B5CkVCdtZgC9oHxC7n5vsu5K7if422Ij2QmHk2ESTgimBfaEa2lcmc2PTjhYfo0YyL1ikQIiyjypNAWOZP7hh0UwBKHeV4nfb3bS3f9t4p8EG8k9WTtKM9CQAgwARFg+TsQAk0IwFobUP7yc9eGb72d7IfOJF+oBhaeDeLSMLSVJSduLTY5PKGPnGdz+Ta3rXFBjY9rbt/G3zc+run7hmPZ/jVUtDMRFpUw/LTHnUGPjf8HzU0fC8s3TH4bVk2C+PLQK5XwxsQcHLoWhuhGaUiGi+5aY6OXP6nir4dYO8mzEBACcQLxG974Z3kVAt2aAMQ3M/jFJ1tKpx2X6T1lBoUxDzL/SFhkojoESS0h2GABJx8Wq5n1s7QmvrAETlmk6H/FEkWkIQjKZKuz3vLk+uE4A6sumVGIJa/1y/twTtgeq3O8rvES+JUTlxbfxp/5vXVsFP3cHnKHa6nMnU4Pj7uPPs0aBfGNUJ0NLmcsHKzqVa/AfDTXBXVELgbE2AvL+d3SWvr4J9kbjh2tj8LQJAwWliQEhAATsH7pwkIIdHMCEF7+LYwxdu74Yvulp6d4eZyrHQIT5SE11s+ksWAxrsaixZ9bkuJ5xF95Fi1VDorUEGlNqAMHPiG8mMjvx3SX5Zj8AwsQ1WIYFIYhs/aZqSg5NQ2Gah7p3mzSPB5MSIUVjGCxmxBLLQJRxi7cQg6s4mS1SL1VT/HyOeCK97IbCKayOckZqaJSFt/xd9PHWROpTzSMgCtOcecZW71qQ8MTNljlITe4sDGai6IRHz3zq6wNA3L0q4PRoM1td7/TcIC8EwLdk0DTn073pCCt7tYEIL65UZPW2KKB/JK/3kL0zD1kHz6ZjCCsX+VitUSxNX4sceHjE8DiaMKy1OxeyBsErmo30dq1FKzANJf90Ik6ZjrZex9C9pwcRDph7ukUCC3+6ZiNiyprKVJWRkbxBoqsmk+2rUSuDOQ5ajhpGT2svCN1uKFgcYyJPMpsaBPnxN20Vp8v5tHAeF9YvsjkwYn307z0MdTbCFAAPNi6/qHEe1jR02Fy4WaguEajU4aG6KYfZ2Kd5MjNmsNxyw/lId8Lga5O4Id/SV2dgLRPCIAARPh/aj596+nyY8+k9NOOpBAinu2Y9cmyGi2haiyWiUCzbNAm4geR0rH2rlYXosjqRRTiET+nnUv2I6ZR6shDyNG3P9my8klLRX+sHQHFOlvGsZ+vcj9HsUBCiIzaOopU7Kbo9kKqW7uBQl9+QcaHr5ATc1U7xh4Ba9lFBi+TCDc1p8Z1YZc3T7LBAVcwtanSmQnL906alzkJAVdB8mEGLCwEDDc8xPoArxwau6m1ILkcNvp4t5/+c4GHzpzkfQk3NhcnwlCOFQJdgcAB/oy6QlOlDUJg3wSiJUVXF1167n0ZIbheHTzDFRQLYsNLCsZnuWrJj6WxaFtiF7cfLSuU+3J1t5uoppaC85dR9OTJlHbGj8l7xJHkGtSfKD1zr0qzbFp5Ih8rQ6XknCvXjx/W97HDaqoosKWQ/IsXUN3bL5L2zufknj6BzIw0MjGmWVOBZQi3UpnhSM1FznAdAq4y6alx99I7OSOobziKgCvu84VbnvOvLzhWxj5euIVqf3Lgnx+DlFwYphSgF69KM/pm2ZwQYVk1aR/sZHP3INCSa0r3ICOt7BYEMF3i8ZixqffuWfc+bf7xWrJPPRqu5zoluvHhNfEfyV7CdhB04sfFrUYbVDQMEbM5XXAJE4XmfE7Gj6ZSyk9+R5lTpxDl94Jw4SaAy2BrEw/odCzF+l7xmfPlZO1nvVcuZLxlo1hJMgdsqX3wvGcnVS1aRLXPP0D6q/PJcdwU1c9thvyqR9fU3LCAuc83A5Ns/JPewTjfQeEIxvmqeGjFhEuNtyNe4v5fuXTUGRVy2TRaU23SNYfX0TVn5h0JAV64/2PlWyHQtQnU/6y7djOldUKgeQIQtyuD61fNKp02llyHHwX3LIsvXM/YPRk/jng+SobwxP2shh4hu8dFkc2rKeT2U9p1T1LKSSeQPSNflWvEhzuhAhj81HzFD3CrcjSziOOfznNX4zijag/VfPwxVdx9FaWUYY9DxpIdc4xoxh7aBfF9ePyjND8DQ41grQZwAFvpbPQenPBaFWzMkOviwQ3Bysogzf6VZ8ukvq4hEGFVxQNsjuwmBLoUgcR+3V0KhTSmWxKIhkdXvvIi2XJTEH6EVX6gMnHRTISHJXmWu5nz48RuXtNuwPJ1kA+u4OA5l1HvV1dTxgU/VuJLGDvL+7Lo2lAPG24EEk3sPuc28cAglTmimCkjjzLOuYj6v7SUIhddRYF3FpBNK6MSzzB6dPwD9HkGAq7Q51sLt7OyXvHcEvHlunMO8Qff2PBQqRynjV7/rG4gZs26iPeRJAS6K4HGN6jdlYG0u5sSgPWrhVcsLS+eMSkzdRpcz7ExvywY/MPgV8v0U2+wjWW14Sdj7aP24h2spDay89faj8fCspiyC9ZwIngqjGE8y5ZQ6hPPUcYZ56Gb2U1GBNYpBzihp9TKk7tG2eqEYFnZxDJvwQuqZ8aMTM6PZ/HSzDBGNdnIbkP+GKZU++6btO62e+mlmQ/SgvwxlIMgLe7z1TF7JPcRt1R8m6st8/Og3IVlfvr4ci8dPsQ5Hlbwyub2lW1CoKsTSPwWu6sTkvZ1ZQL5pbPfyvT0gmEG69MKtmqwWln7eFyuerXkGONroWg8WocfWJhes8O2tMO1a8d+CEzWIC78CtXFOF4Dfbc6go/wnQviW+WjEKKU8+Z8CQv0Uugtgq8MlMvHQnwbEv8skyC+nKES8Ib81A8e6/gq8TWx2CLGGaeeeS55X55NC7P7k9OH2qJdusHRzg01SvSdqgZXBjcDEYh6f5eD3v6iGgs40IqgGbkk0fzleCHQGQmo32NnrLjUWQi0lEC5aWKELIKf1q2+Ovz4reToP5VsQUyrqMMFXB/ha6kPrDNeeRBiC/sXb3geJ7MOlnA5+ol3Ikp6p2E9SqIULTEpUgKB2Y1Iah67i7Gv9jporMtO4ZIi8mU7qMcLL5Fz0uGYzALTWUCINJ7ZKtaQhldL9GObE37hfON5c2YN77GqE/cPw+AeOSSXnr8ihwrSKml70KX6atEa8EhyXTApRwQ3Hb1S3PT0tzZaWxgmJ9nWJdxIyUAIdEICfK8uSQh0KwJZEZqMKRtnlD90/5/4B+DHuFe3FoK1y2IIQWLrFcID05WiMNGiPigw3La2ND9puehPzcISBJlhjMmFSLthwSK6l3fHTmzQYngPrGAfRLdWp3AVFq4vrKTQ6COo/9/vJurVT81q5dQdyp2tKcFvkMQ2PREoliOgNMzpbEZsNDQnSvf9Tw/63dPVtAFtKLA5KIgZsdgFzTVM3CBm7wL7A9itHUB/uIc+XeajCf0zBiH7pW3adilMCHQAAu30y+8ALZcqdFsC6PvtY+zcVbTr4uPJoadAXVgQYO3ZYBFiSiwDlqtRCyXNhVgMDJG7H1a77RUgW2aEbKkhTJiB7bYQLGLMDc0qrX5FljyxxCjFwgQUPHzIjKRStKKUonmXkHvkeZieqjdmsRoI9zRms0JSR2E/JcToo42LnXVy+NtW/olyEXhwdzPPdglvOm3dE6X/fbySfIaXPPYo1vfFRuWKx47cPKtyB/XMrQAN9cxzSHMkOAeblUfr6I1f5c7pn6OfcFAZys5CoAsQaOVfdxcgJE3ocgQgjKOq3n9vde0pp5IHCy4QJp6IIDrJKIdEuCPkHBUg16gacvQOkyMDY2QdWIoQVmLEhL3MM0hBMFmxVFATi0rsV6ReYurErmw4ryGscDPbvOyPxsIOQImu3mjadNKzzyRnDlzfmSOgepmwCbE3xF91vLJVDGvcypczbJufKZdkog5s0S8tNOjixyqpf5oHTUZfMbnhrg5Ch9lHkFh9rPmuTYg70XvlIXrzTBedOcWTAq8DL7gsSQh0GwKJ/ZK6DSZpaFchAPEdRKHQpuIbryHbZ68TZQ0l2oWO2jwI7xE+Sh2GccD5PjLcPrJFEDUMnzKLI4stS09LtIcXRYC/GmKcDYzs1y4krI+A1ZWwOW0G6QWXkavn0aS5+ynM6E1GMTwkytWi8lp+rpQEq3sMHRFYby2J0pmv+uikXA8FMSyJBzOxJcxWeqKJs4DOU1nQRtN6+ekfP828xOPSXkw0XzleCHQmAkn4KXWm5kpduzsBdj8Htm0s2nP6SZTiyaMwLFzvkRXkGl1DtuwaCAzkNgKRgcoYsbmWrR9J4paocsEiMx3LF2kaVi9imTUKSUc8VggB0VrfB8jTF55Y9zAsdI95mXlpQRVS3VZnzeDbA3XjwUHY6Aame16uomdX6zQwzYFpJFF5tuhRN6aRaOIlFB3of1+NxSQ+ucJTN6y3KwNWMFdBkhDoFgTwE5MkBLoVAS3wzRIyVm0i/UQ/5f7vDko9spS0rGrMggVpQTBSFEOHMEy2XmwsOonfq3I8MXuXDa0G9u0OPErQF5xJpmcgOUxMA7nht+RbPJzCmx8nR3i3El/l7a4XvGTI3v7ONa/BhMUY0O+LnnA4nYkuOSmN+rpDFICLXkO/bbIT933vCNjom61hdMbTNWbYPAk3SXJdSjZoya9DEpA/9A55WqRSrUEgaprXkREuDGz8ggr+hVioY0rJyK7AXBSIgIa7GbrLRqmy8NT4X+6H5Q1Jsffi4olCoC86+pN1tnBNLBFobEcxKMc9AOvvZlNkwxVU9/XZZOz5BJuxKATEjwVR9b3Gs2kNQLHWciy4htWZuLu7f6ZOvznBS/MqfYgU58UYuA888cIVVTxhDhKa6NZp0UZ2vNNdgPJ+BOtBQYinQ4izEi9JchACHZcA/w4kCYEuTwAXc8yE4S8Nb52dFl13Ebk82RSOYEV7qIl1F9pYVZQ8NGKSrJ9J4zI4+3i+vJ3fQ4QwPMlm9sENwSbyY7Oj3x3kHPYLCGK+ilKGLtYfxTm0amLzGy7navTT/u7xUlpb6aZUuIz5VqBpS1paDzX5CfL0B4N03RkmnTo+Q01JguHW/HohXNKvtDRvOU4IdHQC1rWno9dS6icEEiAA8UV3Y9kLvjW3KfF1OjIpgshnJ4w5a9kFzpwFMP5o7jNvSzTF84+/xmWMP3PC9JA8DMosxNss8joGYkzQn6lmyaVk1K0injnSUr74ceqgVnviiOcorPV0xIJdMC2TFmOtYifuALj0eI0TKZzd8ZxTFGONEYBFv37eSbPerqUa9Ik74KDH5GS4aZIkBLouARHgrntupWVxAr7v/uL/+uJz7dvuJLdjECw4H1y7BoV4XcCkSEm8oIN9bSxjlqhyhLGKQzJrIUHbSPcMotSKjyiweCxFy+YoTzUHiFmJj7GOO9iSD2R/LoX7reEopsOG2+mCfKJqrA3MjuhEhyJx+ZxHFLOP8VhqPWKnMT2xVOEXBt3wDGbjqsKYbARI836ShEBXJSAC3FXPrLRLETArv7m87usTbnZAxGzuwYgu3qLkg2XLGo/aUUCx0LGwIcoYfc9sfXI/MUW3keHoCYvQTcGlJ1B0x6tKhDlaW62s0Io3EFwbDgQ3DZ2yPUSnTXDTitoI1vXlWnJPMd/AQEZbeg+AA63hXcgJ5QSx9vBJmJ/ko+0u+uUTe2jjLvNKeC/Or62t7dFRzpLUQwgkk4AIcDJpSl4dioBZufSCmuVjH/MEthE5+8GO2wTRsOZe5rAm69GRqsz2Jgsxp5i4Ec+ohWhpzU1OW18KrTyfwoUvsZkcG4/bUvWzSvnBZ2Qf5Y5npMOHuSnHgbmuMZOVHQs5qOmzuL7xKv9gZs3vwC2w5uB2UAD9zQNTdCr2p9MvntpN64vplZSUlJKAGbq6+aNlqxDovAREgDvvuZOa74dApHLZuXXLD30ZI2go6iyAnu1AcFPjLkVWjQSVYz/lJ/5VvG487pZFuAavVeRy96bguoshwrMhWgiHakX9jdfAeo1S/zyiU/qZtCcI+5fLRo2S5UWwyoBlDbEPGCHKc2DmsUgGXf4MLOESzOBJtvtgDeNEShICXYeACHDXOZfSkhgB07f+wuDK6a+6EUqrOXrBhYpxvrAolaWFd+w27RzJqjHfKPC0lib6rqNUTV5bHwqv/RFpuz6CIQxLONYcdhknN4EV/vNFwsDAaBcmij5ikJ1WBLAQBS/DmMTyuOZxESbMABbB+KQ0B9ZjCqfR/3t+N22v5FpEpU84uSdYcmtnAiLA7XwCpPjkEeBo52io9CrfN795yenHdJL2vlCOYiUgHGHMbl3rIm89J6/k1sqpcT1VjyzuHQKwOmvJ7swm3+qTscbwklibeO6s1kmqFrGqDO+DuaE5aAqqz7cE9fFgSSpa9SdjMizLEsZMoW6DNtS66M5Xyqk2aHseq1j9DedZxgcnibdk074ERIDbl7+UniQCuChDYYMPhNbf/ZCj/CMynYOxslERckcgk0qN+1djmzrFS4MI8zsWvaheiduJdEzaQVS7+k8QxGp844AoYo9WUuG4tZuXp9NhXiyzGMUoXVVY8grknLgJXJZ6QI1rEQA22OukRwod9PiH1S5I//9hNwyMkiQEOj8BEeDOfw67fQsgvhwlW2IU/ffX0e13YmrHIWQzNmGYEQ+YaRCwzguKpYnbAfGFdcjNtUW2Ugj3Fp7h1+ErhCgjZiuCJRVbt7kmZaUaNCLDpJoICozNlZ1srkqIY5m6zBDVYNWK0zIcdO0Ckz5Y6edvbOGweWyyy5X8hEBbExABbmviUl5rEDgyWvdtru+7i8htz8PkTTsgUk6yqwmdubjkWWmtUfn95Wn161ria62QhPaZ5VSDX65n/EKy5RyPZQyhv/hs52FLrdRU7mvmlGK3U58MjaqNIKzx1r18cIAXBj2hlDAF0Cc8M9dON70ZpG2l5na73fz9/rjJd0KgMxBo3V9QZyAgdewCBPwXBb67i1xqZIwdAhyxhsiqPt+49dj5mqksQSV8iA5WUcf5pBu7KWyGyTPhU9JzpqnhwGRzKJetamFrGvzo93XgipGbYaeKMMLCUFaLxwAfwOlQQ5PQbh4XHUVBTpRXFXbSsx9ibWVSizZwx74kIdBpCYgAd9pTJxVnAnA/O82d886mXc9Ahwbj8y7lhrUmiWA1ak1FOpBz0FKT1HKeq7mS4VrWzVwI0S7CqCqyH7oASyfOJBNzNaoFJFQrWQ0PpD4t3yfeEi8WT+DVkZIdgNVczbgv2BojTJi7W6ehmRrdtFyjhWuxSAXRIc0dI9uEQGchIALcWc6U1LN5ApGSqf6tf8HsTNwHWoZ92ChKptUbl52mxVvO4aZbv/+ZVXFfeXx/b2vfhvobEF/NzMcc0XusxRkO/ZTs2dOxDdt5Rfs2TVZ5TkfEsrz5YyMTuDVq05gcC7ERMmhyJtG/P0LfcIDEDd2m518KSzYBEeBkE5X82owArF8tsvODB7TKr7FQwUC4Z6tjrthkSgHnxWJr/VPvWQjgGra+QVyy5sDDqV6tG4A4AhwTm7BCHd1IrOJ77P3Ke3GuVs4aHK0svppZRrUwhd0T5yvLl1cpYNO3sTjtnU8rfYoVaMO6wC5VR2tgF/fVKkuda4736pHkKjARZo+FIynbpdPTxQZ9tjpwGf4GvEkuSrITAm1GQAS4zVBLQUknECjpHyx8dIwdE1yZVI5HMrsEG+RNiajqi7VkQDNTITgFmASjtxoOhKWW0O9chxsAjkJOgzb2xne91Hs8KanS0Y9p40ipfcqmJb48BzQn1eercZ8v3M5YN9gz8TOy5xwJyxPRx4ju5gFJPDlHm6Z43VCF3VglyYE2uWGFu/DQOBKMQ7G5z1a1GO/Vq9WeROvJZ0Pli5uYYNRO09Ps9OoCP1UG6PxE85bjhUB7EYgPkmyv8qVcIdBiApGyZQ/qNV+R7hyImZp2YmpiXPRxpbYEoMXZxg5k4bAsWA3RxWy8aloKnjIgglthhFay3Kg+WKxTD1Hsif5nzNkc2YPlBPcoLcLEUdDKvhTRQ8ipDALMWe9bkPgbFnNTC0Pge+C91efrmDSP9Kyj0OeLDFjsOJt2SdwAHXNSO+gQe5iqQgFaUGdSqummUSk2ykI/QASLREQM9E1zAJzBXgG21pNXWba0MU0Hpbmc9O+dYfrpdzUPwAp+DlHaim7ySpKchEDrE0jiT6P1KyslCIE4AdP09Q1+/ctCe8WzEKV8CFyVEi5eXSfxK75lb7FNyoFGNgiJZstGENB2iCCy9x5GWt6PsGTvRLKlwBK2ZUCXeG6IEG4Eqsn0VZBZuYoi5e+QUfk+hkNhmgwHhFjDhBmYxcqyXK0yrPbE37Nrm2eZQp9vZDfVYtUhD9zOevaRKrKb9LiF304/W64mHjWRKNUiGizi12lHZZjWbg/TZ+uD9NxWjSY5Uyg31U5Bw486W/VkhvyOD08kqdzUDQpmx0YI9k6/RicNDNAdP80c6dK0tYnkLccKgfYgYP1C2qNkKVMItJAA9/2aVcsWBRcfOtnm6APLcw+sUw5W4j/n+KW+JX/aLLlxC5PlAsFGWhYE0UXBCFYESJtB7oG/UcN/yIl182KzbMV0qd4hzJ9V6WYVRSu+pVDR86SXPEKYPhlWOlzTZjH2sGaS4sAi66aBj4Ftp+UptzNPN+GeOA8BV2z5wqKE5RvLtdEr3rZxwuzMqCc7zixrOF58Nebd/nazQa98XkpPrXfQYZkpMNbDFGYRVq5rJmuR4eeWJ5wfWNmclwM3JN/UBunjq9JeGtnLfnHL85QjhUD7EBAXdPtwl1JbSIDFF4f+Jbz7q8nsdOTlBdkp2SC+nLGSP35zUCkuDyyIUT2M1ZPgBkYfLAwt8gx+imwDT4M5nKdkBIaYEgEuSWMR5ZJU1dQbJeQmZcB6nUKe7AkUKThHrWJkD2Buakc/0qKwpuG7Nk0ew8vjllnYLPENIW/PpLmwsCG+Bj6oPl/Ot/2TEl9UyWox3nDLASMdV5Ijhuk0bkg+zVweoFverSW37qFU9M9H0DXO3d/sxldJwYq9P+gXZAJBZwnmccjFERstW++/CH8XP4MbWo1NOugs5QAh0E4E2jiKo51aKcV2GQJbMQ9wlKpuNks/JB0XfcwWjEsxX9H5Eb/Ct6S5LClWPgb6bDXKhzt5FwVQhmcCoo+H/AxuZogvxIatLzUJBVt2yrrjnxErjPVZQ4QyzxylQ3HgVMbtgYvs+ceQZ/ICimadTdFwIUWwUISGCTV4lierzxfii35lFl8e56tnzVCWLxfEtepQSTUT9UIbVZNRRw4ei8I/77JF6YxJbnr+Si/leAJU5ccEGrDeuZ2GhmUV+ZgEG8NnmfMI4VxM9NpoEcYEV4RCMiY4Qa5yeNsTEAFue+ZSYgIEBkCAzZpC0mvexNCjntDc2ka5JXpph2XFUbyY9MKBPtgAvMTeiV9h6M+R7IzGVR+WNivOAUoISzUPFrJFIVA8btc1FNNHPkZG9qWkB7fBHd0H8syuc+7zrYSlHSJnbJwvcUQ1a3qj1nXkt1xPGyx6bjG0lkb0dNP9P0ujfqlVtAftt+NuyQYGnBK5TVIZxJ7YOZDj0mhesYN2V+hnNv5O3guBzkBABLgznCWpY2MCLr1iAyJteRMPAeWoqOQlm2GHhNipBp7tlLFfkJZ+GNzAUcyzzNYsL+5wMMk6hjXJ4CmrWDEcOeQZdxtFUmbCwt0OQe8PN3c1Aq5C5JpozXDF43w1LExvif3BlNf++6quANy4hHGCBubY6dZLCsgDyz6CoUPsqk+W/KrzAJe/AzdEq8Mmbd0evTrWPdH+EKQGQuAACYgAHyAo2a3DELAbVd8q69DQg0m0EGGlwholrYBCoRJyDJ6l+m8R74OyYN8p1yn3PB54Ymcr58pWtQ0qbHI+bNk6+pNr1G3K3WyDBR/SAuSB5evADFcNfb780+yEP080kd3uDozBMnDjMryA6Poz0mg5Buw6MHyJvz0YhvujzeOzDYhwb7i41xYHcrGvLFO4P2DyXYcj0Al/4R2OoVSoTQkE7KG6NXA/o1CTY27Um+TUQMuGVbqVtMzTyN0H8zso8VXhPsifZaMlPxd2ysaP44XmYVrDYjOyDid7v3+SP1hGjkkLSctii5gt38T7SJMDo+W5KDc004JLGhJJM8d76MoxNtpeF1YW68F5EfZdDz4jUfSjFzidtKEkQogc59B0SUKg0xCIXxk6TYWlot2cQKBE1wIIUuKrLwSYnbzJSjzRBrSRnAN+Q4Y9C5YrW2vJstdYwnn2KgQrOSC0GIbk6HseOSfPI1vmNGUZs9u5KyUOCtfgdnejtedNd1FhOKL6idkKTkpCAVgdGRHYOn1XZqPKysjgpOQrmQiBNiLQtX7xbQRNimlPApVkC+3AJb0vKoHZIHgsEj4lmkwN00tGthGlHoVJNiapHDmKORl5N9SN5deyqBEsTFpKP3QJozyIlB5zczfs2/nf8Vlhi55vkkb1c9DPBhq0IxhRVnByWgeamKXMaYvQ+jqi6lp9QnLylVyEQNsQEAFuG85SSrIIVGIKSI67wpAWFYDFZlYSkkapFEX3rC0PwbT2TEvXk5Dv97OIuaThiWZp4jG0ljmPDV0sWXYu+r7V8CSio0e46Rtf1Oo+4LYm4dzxDY2O/vkiBH1V+cwhXQyhNKeLExAB7uInuMs1z6xV8c9Wu5IjvvG8WNftmSP4kg5twCc1rWWyCTauM96rYU3JLqNj5KduMHCTwXNps9t5cD8npcP0N8FVfceME0os8bE+esNGtb7IoISyk4OFQBsTEAFuY+BSXIIEjCq1ppCVCwuYZWe1PFc4SFkEzTrLqE4ZyHYpdNHS+URzb3m9usKRLLNwu6t7DpPy0k2akIYlBaOKcBIayBlzGcgP/ee1gcjQJGQqWQiBNiMgAtxmqKWgpBCImFHWXEsYredE81VRu1hzV3NgGUEsJqB+FGz9xoQj0fy77fHx06MsXZ28bgcVpJoUwKpOHBkej5ZOjA+fJNws4cUXDkkQVmIw5eg2JiAC3MbApbjECNTVBHjoJ6xWvrrjkYCbmC0nhD/BiMayecgqgiUF1QQYnC3P04x/yYyCTqzlnfDo2A0Myy1Qkh2e6BR7FEsW4o1y8fMpVDu1sHHIVN0lIX8s+mCYmMBbkhDoRAREgDvRyZKq4gKe5bTmM9wLBl+IE0k4HjqgmVhGUK1hy3nx4giJiEMi9elKx8YZwkrF/wj6almN41sb3iTeZjijeREpSUKg0xAQAe40p0oqygSqynl1XcvuiT/z55YkFgF+mLyakobI5+hm0kK1rBP1upCotLekXl3nGIuemp4Sfep1GDVW6bOR047t6MlXfe+NxbgFDVfdEcobgoUgdD3QgizkECHQbgREgNsNvRTcEgIZHoxpQWLrlN3HiScWCUTS6ilqWDEFS9QChxSz1BLPv7vnoEKkAMFOZXUmbanGxBwQ4GTc2OxlRWMstdfj2tPdaUv7OxeBZFzBOleLpbadm0BanhJgZaWi/5DHgTbYqy1tGs+nhMUCkFWkeoPKJKrjg1KJZEhFS+vV+Y9T54c72JF27ArRN0Edc4DxVt5mbU+IcDwiD4tdpLrN5aogeRICnYSACHAnOVFSzRiBHodEo/ir1TALFk/Gn1iK21CQADNAPE1zpGwhxKGObGwBa9zdnJA8JFa9zn40bpB4Bam4o2LZd1Ea4MT80Iw7jj6BNvKZ4QePBM5BcFd6unNVAtnJoUKgzQmIALc5cikwMQI+w8CiOppRiYs4Ryon408YaoAALM3Wm4yKx0mr2ahEQ1nFSck/sRZ32qNZZGH9oreXisqJZq8N0GCvjcKswElILOJ89iNYb3iIJ0JZXhMnTpIQ6DwEknH16jytlZp2AQIjDd01HbNQYvJftfqcusonoV1wimLGCEwrTKGts5EfAmqVUHB/JVvayRGNJFS0Q2fR0LvL73gWLK6uTnOW1dEKnwOBUtYefNaSkbgTwo9zNihTp6w02/pk5Cl5CIG2IiAC3FakpZxkETDMlImqv1ZT6+wkK1tIgrmbHI4+FN15E0Url6gxwQYWBNYw1pjdnLy0nqR9E6iXVoiukl9Ypmyifrc7QA/PD9OUDDsF1SxYybmdgZbzBFi0OxKlYbk2SnVS4b5rJ98IgY5HQAS4450TqdH+CZjO9FGEyZQwB4cLF3oWxeTYU2qBd81HXlzYQ9/eiPV5i5E1j1sNEcdkWeUok44/SGpCgIcbcbe8qYXJwDAj3WZQLUT4kdl+imo4VzhNmC8jKWeLz7gBj4UdbzYGozSyt4fHAPuaVEk+CoEOTUAEuEOfHqlcUwKaBns0fZQ/wjFSHF1rTTTcdLeD/swWmw2iEaVKCrt6k61mHoVW3AHhLaOw5kQ5YWKLKznycdDV6xwHQAxNPQrPPVz5cN8HYf7+650aemErT0GJmxgstmwNH0tCc3AulMUN70SaFqQhve3P8d9GEnKWLIRAmxEQAW4z1FJQ0gikD9poeEdi/d5CiLA7KdkqYYD5puOCrkV2k83Rl6Klj0CEbyBHuBzWmwO2dsRyraJE6+IfL5qv++31iNehlV/3KW34or7poBK1kQ03RX6sA/zo2z66d3GYDs9AzHrYjqk+OSo6SQlib4Pe1oZ1OiaXqG9P2xNJylmyEQJtRkAEuM1QS0HJIqA781fas88gE8E3mpaatIs6iwO7Nrnj0jSLyOFkEZ5F/mU/I7N2FdadRfg123Dwf1tDW3n8sDUMhj3UlriwGci5tM2Dy9z7wbcGrfAPYmf9s8rj9qoH2soDs6PE0zBjeQV4JgprTfrrS9X090VhGpPtpUAEwpskTwUKqU82jP3d4Q/RtCE65XppZf0X8kYIdBICIsCd5ERJNRsTsH3hyJmJfkXe5mr8RULv2QpWwqlW74HYGsXksvfBsKS3KLR4LBmbHqNotASmF/o3ISg8DIr7PHW4WzV0bpqqkxNyyOrMEdSt/uAbgR96QDZRn5Y/Gucfz4cD06K4TcEDrnkYtng4qAoa/N6yWrr8QT+99J1GhyIyORTGTYo6T0yWbxWSkzgnO87BpmiYpg5LewHuZ1mIITloJZc2JBD7abRhiVKUEEiQgM/09XUHa7b6vj5Gd/rXIFo5DTnyNMB8WU7sT9rKoeFZh2UX1grIodVBYKrpqcBJlNH3Cjqi/2jql9qbUpwuzKHFgVrJKF1l02me2AKuCyIKGWN8l28K0JvL/PRCsUYz052E+Taw7i9zwV5J7prlM8wPaDss3wA9eWX2hKxUbQU2SRICnYpAYlerTtVUqWxXIgCLLie84b5SY+M1ZHP3Vdaqch1DhC1LtiWt5WPZ0WoJB3/iSFuXEaIKew+6r2IM3epP5YHCKCqdzkkbTsMzhlJ+ajY5dCxpiP1tsDb5R8USzilZP7D4rYXKXZmUUB/0f9urZ6pXJXR7lRavRaI1iLfEag83jJeCDGOmsLLKCK0vNWjuHriCEWA1xeukTMSrBTFVmQHr2FpnmSE0ySOWVUte4q3y2Ex6D8L//Ila+JKZXg8sYACRJAQ6FwEszClJCHQ+Arjglpm+FX+sK6S/2bAKnTVrFdtkiSSsi4QrPI/71WD5RhH97DLDVGPLgvj2pVsDGXS0A/3DjpGQF4PWBHfS68XfoQMUI2CsTuHkKW6zzWAh4wdPBVYDE/AQsm07glyhFCwuxG7hmNgqwYuLXvy12QwPeCPnwrlbtj5uNFCPXLuDeqAqoz0ajeW1LIDfDxnkmxgVMQ7/fLL6fi3hjT2jnWEjSodjZcqpY7JuE/E94NMoO3YwArFfbAerlVRHCBwAAbaCQ9/eXKptu4U0V19o004cxVLBoQ1xyTiAjNQubPnCdjZtcCmHKIgZHpwQlGp7Jt1VcQjdEehBR2HQaR36ejmeiDVORxCQHQ+2uNvsh8QFo46EoTdapAd5d9yA11wIHdb6w/Zk9rM2JcdEGycmxvNqcFc3fxdn0HS/xsck9t4qwY2bjcVVTrp1Si39+vSswRDgzYnlK0cLgfYhIBZw+3CXUpNDoNze7/xS/85bch06FlCIYKgQPJE8Z5UlB41lYX8FxsSXZUQPYvyqHeJro0q7lx6oGKDEd4bmplojYA07hgXGOUcRAMWPNktKfFEalwnB1YwI6VBAfijjt94Kbz0J3F9bW7tU1Xw8seD3cdTQKUdw3z9t21+d5Dsh0JEJSBR0Rz47Urf9EoDlY1Lq8NmOPv8k01dOhj0fti+P1eXEz3GbTG1o5on3gZsU+7GksnCHCQFEELJqeyos31F0s7+fsnxrNYgv/llK10xWsqlVCfCZ5NskD0KuF1RF6OrpNhqU53hL3M+til0yb2UCIsCtDFiyb20C+irHwPPI9PaEK7YQEspWEfppeXxQfbIkuf4j3ljyHO/zZZdulEK6gzwG+nwRYHU3LN87/fkQXzv52e3M4qsejXOR961NQAWdqbOF0DicUx8m3piaG6Ezjsjgoj9o7fIlfyHQmgREgFuTruTd6gQw69L9mrPfKPuwRykS4lCsXPTPckCSHSLMgbFNLWFLjNnixbxXiFp2qD7fKJ7dCOypsaHPt2o43RboS0ejg6YO413ZvctC8H0Zb/XmdfsC2CvB7HnUsd1hp8+qAnTDiRnhvDT6SSQSWd3tAQmATk1ABLhTnz6pPBPAhFg97QUnkdnnegyB2USaHdYwRNhkEf4eorgz03I7E1zLQUzfxH2+1bYMurtyIN3u70Hc5+vjrtZ4v+v38pENrU2A0VtnSyMPAuC+rQjS3ycTHT7azoFX/3Y4HAtauw6SvxBoTQIiwK1JV/JuEwIwVD+LkvtnnmG/pIhnGEUi23HlzmrGYcxy3NDny3Zt1HSpPt8q9Pn+o2Ik3RLgPl+iWkQZq4grFd3UJs2QQpoQ4PHG/M+BiPTqQJgmZxl02UkZ13g1rajJrvJRCHRKAiLAnfK0SaUbE4A1ZGBawmfI1ec87+jnCXNCQHwdcB3zNJXWnzhLL7szDQxQ5XG+3OfLqxw5YSlX27x0b/lg+qs/l46y2THUiL9neeajJLUbAdz8qCk/cR7Kgn668YJ0yk2hZ9utPlKwEEgyARHgJAOV7NqPAPoEd5lZk7BQ0mzyR4rJYeZiQgh2Q1s9uBiwA93lqSMxyQbeu80Q1SHg6p+Vo+jWYB/0+WrkQ58vuz1Vx2/7NaXbl8zuZz4RDpuDPimroocuTKExfW33Ymtlt4cjALoMARHgLnMqpSHcJ4h4Zrve++SJjmFPV4YCW2AA9wIYXsUIMoyrugbXMvf5OiDM1TaIb9UA9Pn2ohm6HeKL3ZT6Csu2IsC44494mXHx9WDRiw9Ka+jNszI3HTc6JRuejmvxELdEHJS8dnoC6O2SJAS6DoHYBXo5ZskqCBm++eF1Vx3mdA9AX28ZXM81mF7SYbmd9Sz0+Q6jvwbY7WyjWvLhe7is1eVdrvFt9Rdhufkb7ACNJxPBRzdukt7bU0UvnOZZdOZU1wycV0z1JUkIdC0CIsBd63xKa2IEcMEOQISn+nTn4uDayw+1u3phBiU3op33ULkzg2btGUh/DedYfb7sdoYwW2IgJnBb/RHFB3Zxd4CmRdSSjjZMM6ljicn3yqrppTM9X144Pe0onEsEuksSAl2PgAhw1zun0qIYAb5wQ4SPjOoZu0Jrz0/zwD9d7RxM9+/uTbeFM+lILCbgxzSOmM65UZ+vWL9t9Qek+uQREOfg2csQDGfDQhc80ca6mmr64AJP8YkTvUeL+LbV2ZBy2oNAg++nPUqXMoVAKxPABdxv63feaZ5D51GxM4/uKK6mWVEeauSiWtbauMEbf23l+kj2FgGFG/yjehQPg9y2FNpZhYlUNB+9e2UaQXyPw7nDWDBJQqDrEhAB7rrnVlrWQGAR5R5Z55q0jIzc39OewFIMVTIoFaYvRgKrft/6pfwajpF3SSbA4VM6hhax+Co/AzZ48cAcV/RuaS2dNLyOnvtlLh0+wPkSdsE6j5KEQNcmIALctc+vtA4EYEmF8ZyX4+3z3B3H/Zb+e8TdtBuL1y7wF5PX5sJQFzsCsFgIIAtiCbfa3wyvDYxptaG+UXLg5seFKOe1dUQlYR/99xw73XJxj7v6ZlIGztfFePA8opKEQJcmIJebLn16pXFNCaBPuB+2PbWlbsexLyx7iW7c+Bq5nF6a7MqnqIGVgM1gLBir6ZEd4HN8BI5aDxirM0UKKGX7TaSr9YBxj8ETjHCK72d96jDPfLFBwDludBy0pzZCG8LV9McJHvrxjPRV/fLpRIguL+gsSQh0GwIiwN3mVEtDGxNgIYaJde+qnavOfv6bt+june/wCGKa4uoN6wxCjLV2EcGFQ3gSDyspt2njTNr8fcxCbyTAqRBgDQJMbOS3gwDvzYRJfZ8XVhDEdJJYUAHmb3FdmL6NhuiaQ+x00ZFemjDYcSduG26A+DZevqrNyUqBQqA9CMSvLe1RtpQpBNqdAIQ4O0SRq1aVrLv17XUf02NFH9DOSAUNdudSL3sKpkK0UQiiEjF4cQeWG16hoUFmvtd33OrWJ+rQSIBTdkCAMZxKCTDBvERd2zJZ7ecyYw+4mfEfSwdq6mGiz7ciaNAKX5QGusJ0wUgHnTLJTeMG2smlaw9CeH/blvWVsoRARyIgAtyRzobUpd0IQFwdGGx67NbqrY98vXXFwPcLF9K/y5cgTNeHlXjSaJgjjVLRX8yCzArMYsx6HK1f8jBWdWyzwoz4M4tSoj+xeB7xV86XR9CGSY/mk3c7W8CZ2GQZkLxX4/RDpSeyP7eTJ6ZiwbVajXrBrQCtpdJQlDYEIpTvitJxfU06YaSdjhiaRv176MUg+BYZxmrS9dchwCWN6yvvhUB3IvBDv8/uxELaKgRYWPk3Magu6r95e8XOH6/Z9Q0tK1lPSyrX04f+QqJwOb6G2HFnJuYpzqRURPK29XB6VBETQ9kivSir8O+kh7MxzWY8Zomrz4+4tPL7RFJj4Y/naeUXNUyIrUbV8A6U4j1zyXVHaUqakw4tIBozSCsd3sfxdL9c5wepbvoWO5RCcGVSjUROhxzbpQgk+uvsUjCkMUKgMQGIcSo+nxeh6P1Voaq00toy2l2DR3UZ7awrhWu1mipClRQI+bEbfkrq19TaXZkcaMVzdmH2rmgGOct+itc0tS05Fjey2m9qaJ/Laad0zG6S5Y1SbmbUyM9yvleQ7notJ932ZU4abYPYMhhJQkAI7IOACPA+wMhmIRAnACFm1RuGBwsy+6D5M14jtgDeI7wots1ui2IblBgDm+AhRlgXBt7wW+yv2Q21n2a3qc+EzwbmfrJhgUSDV4vgPNiUVjFL/IpeZ97uwKJ8/B3eYwUJvEJ+8cpzZ+p23cB0Xpi/AtvVA3Yoymz4jO1cV4yzUq/8nh9NEy+SzJapeiCPAPJAmDX58FqD7dVwt1diewVGD7GxWwrP8y7Mn1EaclIZoFRjnyAEl81gSUJACAgBISAEhIAQEAJCQAgIASEgBISAEBACQkAICAEhIASEgBAQAkJACAgBISAEhIAQEAJCQAgIASEgBISAEBACQkAICAEhIASEgBAQAkJACAgBISAEhIAQEAJCQAgIASEgBISAEBACQkAICAEhIASEgBAQAkJACAgBISAEhIAQEAJCQAgIASEgBISAEBACQkAICAEhIASEgBAQAkJACAgBISAEhIAQEAJCQAgIASEgBISAEBACQkAICAEhIASEgBAQAkJACAgBISAEhIAQEAJCQAgIASEgBISAEBACQkAICAEhIASEgBAQAkJACAgBISAEhIAQEAJCQAgIASEgBISAEBACQkAICAEhIASEgBAQAkJACAgBISAEhIAQEAJCQAgIASEgBISAEBACQkAICAEhIASEgBAQAkJACAgBISAEhIAQEAJCQAgIASEgBISAEBACQkAICAEhIASEgBAQAkJACAgBISAEhIAQEAJCQAgIASEgBISAEBACQkAICAEhIASEgBAQAkJACAgBISAEhIAQEAJCQAgIASEgBISAEBACQkAICAEhIASEgBAQAkJACAgBISAEhIAQEAJCQAgIASEgBDoHAa1zVFNq2dUImKbJf3v8MDVNM7ta+6Q9QkAICIEfIiAC/EOE5PukENhjmmm7168/rGjbjgt37951gs/v7w8RJrfbQbm5uesHDBjwRtKT9dkAACkVSURBVO9+/V7MSk39FoJsJKXQTpZJOBzGbYn1kwSbDeGg/cjUVG1XJ2uGVFcICIEDJCACfICgZLeWEaitre352bwF93z8ydyL1q3bSOFolDxuNzkcdoLQUjQSoUAgQKZh0uDBA+i4Y48qP/bYY0/MzMxc0rISO+9Rb775prnoy6/J6/FSekY6XXnllQ963c7fdt4WSc2FgBDYHwH7/r6U74RASwmwi3nZslW/+v11f3rou42bqVevAhowuD9FwxGqq/NRMBgi9jt7U7yUm5dDLqeLYBXTo48/mz37nQ+/XvzVkjsnH3bon7uTe7qiooo+X7SUeuTnUe9ePUDHnN5S/okeh/OnB4PBwTt37Tq1rLT0pDqf71AjGrU7HZ5V2dmZn+bm9ngrNzdjFc5PuLmycHx6TW3dEr7DD4WCk3Jycqqb26+zbAuZ5oSQP3iXEYms1HX6R2pqqngmOsvJ68D1FAHuwCens1aNL97vvf/+i3f986EL+vbtTcOHDaOqqipav34D9S7oSUOHDKKcnGxlAVdVVdLWrYX47jvKxbZDhgyBRRyk3/z2D3/6wx9+vRoMXuysHA623na7gyBulJaWBi+Bh3RNG3iweSS6P9847YLo/vfNt5/9fNGi7K1bt5Mf5yMKzwUniM+RTof9yLy8nJsOnTjeWL9hw404Z/dAiAONyy4qLjrntlv+NjQcDtGpp5xyDr57uvH3ne59NPrwE088MeWbld8ci7/Ty8EpE23ull0lne7cdeAKiwB34JPTGavGF/A3Z7/z4l33PHjB6FHDYMTptGXzNho58hC68vLLaMTwYeVwr77jdDgKcfVywQU9taa2dtqWzVvo/Q8+pIVffE35ebk0ZHA/GjZkiKczMmhpnU3TUEIHS5MMvDfJzGxpXi05Ducu7bO5ny144qlnxlXW+ig1NY1C8FiYhoG+ehfEV6dwJEghdBtUVdfSx5/O19986/07fnLJhTf7fOGjvV7Honi5RkSbUlpaQT50LwTDwSnY3qkFGGI72ufz0e49FeRwutKqq6v53JTH2yuvQqAlBESAW0JNjtkngYVffHHd3fc+DPEdSVEjQkVF2+inl15EZ51xxl+8XvdDuJBVND0YF35b9sQJw8eNHXPTp/Pmn/f008/STX+5Yc7wQ4Z26ot203Z25M84B/nPPffvrf96+kXPyGFDqNYXpIz0FDrt5GNxMzQYfdIZZLPZyO8PUEnJLvr6qyX01ZJl1Lt3b/r3C684CrcVflFZWXkh+u5fUe3UtEOcTjdF8EHTbUM6ctsPpG4aaWk23UZOl4vYU4G/41wcJwJ8IPBkn30SEAHeJxr54mAJFBUVDb32D3/829ChgwgXdCos2k7X/PqK8pNPPnksLlg79pUfvmP/5ho8zsdxzimHH5YON2wZtnM3cTdK7RMTCeYpzz73/MZnnnvVM2bkcCou3kk//clFdOzMGasyMzOuxgnggLi62Ilw0tgxA4+dOfPGlSuXX/T4E89Seko6xHg5XVhV8TLymovzthtnrmeEYMXDesafQs+ucBJNjJozVHu4TWZ2V2iTtKF9CYgAty//LlM6LkjaY08+/a4PFlJOTj4VFhbRJReeSxDfcfsT36YAsG8I20qbbu8en9v+foPP2/x5C99+8qnn00aNHkFlpWV068030Phxo38E5rObuQnivt61eFyMY68v6N3nrUcefnTMz3/+szkD+g24BtvZ6EUyM6xX9ZzV6H2ne8uMoojSb5Iat6/JV/JRCBwYARHgA+Mke/0AgcLCnRM//mju0J49elJtbQ0N7N+Xzj7rrHtxAd/+A4d2i69xEbehoU48+DfHD44eDoBPTLDwqZnEF/9mRLCZPVu2qaysbNITTz07c/iwoVRUWEi3WOI7BmVyANx+E/bZivqN+9Mf/5CHqOBSfG4UlKSlxA/Gdnf8fSd9dTWtN9qd3nSbfBYCB0tABPhgicn+zRLYsGH9HeUV1ZTXI09FNf/k4gsRzZtyb7M7J3EjCxTGGg/fsWPHuTt3lhxfU+sbYHfYirOzc97t06vvW7175/NQmUbCsO/CkdeATVu2Xb5z584fVVVWDuI9szLTN6Kfc3aPHj0e93g8W/d9tPUN1wfvsgsLC4cXFm6fjujvYx12x4yVK1c7hiDCOyXFTQjgIUy6oaLAKyoq6+DmnYg6fvdDefP3nD+CgSZu2bLlt4hW/lFdnT/F6035BHWchUlN3hs4cOBe0cg/lOeCRYteKMN587hDdP75Z9OhEyecibr8oPjG88W+bBrujn+Ov2KIN99sqIQx3o74+6avaI9eV1c3Bm25qKq6+ihEnhlozxcFBT1eS09PX4r8rfDrJgfiuDHhcPTPhhH5s9vt3tTk670+Yt908B7icDg2IL+avb6MfcA+LoxHP3/HjpJza2qq0zRN35KZmb22V6+8KuzyM3zP7K2527AB1a6/wWguP9kmBA6EgAjwgVCSffZLABcm5yOzHj8xJc0LYYlQVlY6jRw1go8p3u+BCX6JcgfOW7Dww7dmvzN0zbrv0N8IE9Opcz9d31AoOjk7K+vWo4+aVlNUVHJ83749v9xXcchHX7VqzT9vue2v13y1bCUFMezG5cREIVCDYCgyKsXjHjX5sInXr1mz9p6RI4f/ARfx7wk68mCR+f22rYU3vvb66575ny+iOn+Q3E7oEK7bYUQO8/CrX/7qSlq5ciW98sp/yOP10pTJk1N+eeUvlIVlafe+aklUWWlmLVz4xdxX3/jvuG/Xb+ToJvLYnYicDh8fMY3jRw0fZny++OsLpk6e9HpMGPedGb7BjUDuHXfeNZTPF8bq0rHHzFyJzW/v96AD/7JedBuLcePDEbQ1+I3/vvnJ3Hnz+xeX7CY/xoaToTH7afm5WX+YesQRdTt27Tqhd48eXzQ+jt9/+PEnt86ZM/csDNU6G+y9aG+zngR853ziyWdKN2za7EhNS/HjM8R1b1HHtgGfzV+w+u2330vZtK0QLOCc0Ggm7mxo5CFD6KyzTodLfhzZEYTGfcCcTN1MVW/kSQgkQEAEOAF4cmg9gR4cuOP1esjn89OA/v0xnjW7pOmFrn7v2Bu+OMIFOtjhcQw0w2Zf7N+TdOLo0hyIVgYugjaN9Bp0v32nk/k+ArM+xz6qMw7WyskPPTLrvRdffoMGDxpAg/oPgOu7DtG7NWSz26mgIB1Ru3b64MM5aZ98+unipUuXPzNx4vj/xfHBxvVAHfT/zn7r5XsfeOi8gh4F1A9RvX5MCFJTU4PiCZOEpMM6dNLyb9bQR5/Ou/a6a3/XG8dcjHyaivCEr75e+tfb7vibipLt1asXi7eydjkQKS89lyoxFvr22/9GeRhmlZmVjbHR1bCk+KbBuVedGtcP77kaJuqT//rrz2/91+PPeIYgyG3IwIEYClSDNteSx+WlzOwsKq2o0K+99rpXr//j/3sSdbyimTrulXVFRc2EzZu3Qsd1WL7jqUevXr+K891rx5Z90Pd32LZtO46/8S+3fLRx0xbKys4mvy8AbrjpcSLSOhhE2+rojbfeSXnvg48+/2bVmqfGjB75S9SN4wNUqq6qGvf10hXksNscq1evHoqN3C/9vQTLdxQ8Go4V36wG9xwP/t44IGxHfEf8HQ2e9dgTG1944VUahJnYEDeGPzodM7U5qAZDrRZ+tYI+/GwB3XrD/xE8FRTimwTcUUD4O7tbPY5AXtuRgAhwO8LvKkVDsApYCBy4gPIMVxm4UDlczvqLXHPtxDH97rjj71u2Fm7X4ULEuFelq2pXpTh4xxYo660RNSFS9utvvumGKyAsT2A6y1/MmvX4Y2+88TZNGD8aIleDoK9COvywidQXfc8soCtWrqLt27dTv759UKcg/eH/bvifB+67+xIc/ydk/Swu5qV4r731zvv33/mP+86bOH6Mst43bdlC48aMpOnTJrOfkdbCsl6zdj317dNbCcWNt/39ApvDvhvHXs1ihcSuyI3frF7T87rr/0KDBg4gTFRB27YV0cAB/ejwY45WwvLdhg307bfrCK5sqqisJDeGs8DNqdzQOL5eWPC+IVlIdJRhf/k/r62Z9eRznokTx1JdTS0VwVKbPn0KDUAZGEdN8xcuxmudEtI7/3HPz3EDFMFxLFoNYBtyVu/Ky3dP42FFmk2nQYMGccf0iia7tMrHXeXlY6+/7vqP/IGQYpqVmUmXXnKxaouma4SuBJrz8Se0/rsN6MZIx7m78bIH7rvrArTnUlTobbQpYrM7MrIwXafdjqFBHs84bG9WgDF2eTxucAhh9bhB9BKUtTf2VX+blaaZ9fwz/17z8qv/xTj1YVRZUUnnnX06jR49Wu0LC50Wf72EPvzoU3r22RfQHZGhJpDhcdqx894qfCTT7kNABLj7nOtWaylmSUrhiSNwYeQLE1sHbLbxhW6fyaY5r4arT/f5fcrGq3ftxY5gEY7whBRRg2yw0HbvqaU6X91jGRkZs+bPn6+//MrrNH78OCotL8UMWln0x+uupWGHHKIuyJwFW5cffPgBPf/Sa7CGe2Jqx1700MOPOv7+t9v+mZ6e9h52Kd2wYcOvH3jwX7+eMG6Mmn3LFwzQjdf/niZNmgSr0oq78cON/OWXX9Ijsx6jVIjBhHGj6d77H/7N0MGDv0MeD+GRV1lV3fPBhx+lPhBpdlMWFxfT5T//Kea1Ppb7wbELoq1wE7B48WJ66JEnCeUrdznWgcI3Sh/34T5VRnbaunXrbn3siWdzx40dpWYUc7kcdMftf6ExY8ZgcgzOg+jcs8+mfz//Iqay/IpGjRxBj/7r8StHDB/xEb56Q+3QzBOmBB2sbnzAGYLNexxU/3EzWTa7CX8THICmEt57H3r4ka/KynETgjmvx6NNV1zxC2IxjadhQ4fQlCMm08uvvEJvzv4QE7Pk02OPP5Fy6603vuF1e9ja3Yg/NOgg/83hz8cwx2Pby/HjG7/iHmsc/03yTF5qCFE02oO/xzZt6dJlc5954UXXCLiZeZKNm276M40cMazx4XTYpAk0dsRwuvfBR8kJTwhPRsJnDMdLH/BepORDSwjs103UkgzlmO5HwOVy1aGfFPM8R5UAQigpEon0xEWq/sLblIpBxpiy8nLaABdo0fYdasxwYRG/7qSiHTto07atEFwf+gOdyqXMblKeAAFuXf2N/76NhRsG4qJZS15M9vDH665TosPWEF9s+ZGBC/oF559P//PjC2EJ76A0fF6/YRMt+vIrrsp21O/M9z6Y80Aq+q1NWKKlZWX0p2t/R0dOm6bEN56Px+OiGTOOomuvuZp2l+whe6weH338yYPY50fIq+yLRV/Sxk3bKBNWVlHhdvr5//yEfnTWGUp84/mwxTvj6KPpN7/6BRXv3El2WMkx8eX6cER0o6Qu8crViY2rP5k7/9dsCRqRqOpLvu6639O4cWNxo9NwiAOiXNCb3d5B8uBcsFdg7mefvY7y99lXCc+Cg3MALtRnn6eqoZAkvEPw2N8/nPOZKyMrC96AXPrV/16hxLdeIOGuN4wozruDfnzxxTR96iRM6BKmlau/pRUrVnENYsN/zBDf5aHLmBMLcLMJDoCxiiYLNfbATWJObMfhOP/j+vXqTTuLd9HvfnOVEl8uWwk1bijjN4VH4/xfevF5tGt3Kf4GLZsF+XSrWdqahSsbEyYgFnDCCCUD9JftxJKCtHFjIaVnpkHwitF/VkOu3Jw80ClpjhC6UK+98MLznzjjzFMn63CBxpPGViEufg6Hk1bjovvZ/IWUls79uTa4bd2EGZeUW3j4sENow4aN9HuIZt/eBcrC4ZmK2ArnxBdPtlZOOvkkuGcXUQUsYvQB0tdLltCJxx97H9zAly1ZupzycnNoZ0kJnXbKyTQB/aDcX8tmVTwfFlBOkycfRscdN4MWILiKp8r8eslSCPw5b2Skp7/KFnJPLKCAKF64L0fQCSeeoI5h65K9AZw4H85zGgR+yvzPcTOwEW2qb/feFjAO4frzDUV1TU2vFSu+UfNkcz/7RReczVN0xvIn2rJlq7Ks53z8KW5YAtgvF+747eBfBzd4IbvjWbBq1QFNnpwuZxHXSwdbX52aZ4PNfn+T3ZL2EWXZ3nnnvV8z3z179uBG5VLcpKTyzVq9sHFhTIwFmc/5mWecoc5fJv4Gli9fQVOPONzJ++Cs1EczI98xvK25hLxGNd6O86tMfUTNn7JmzTp1rqfg3I4fPx7Mo6o/XPlvcBCfOuvvSKOjZxxNb777gaorB+ih82CfNzaNy5P3QmB/BESA90dHvjtQArt4iM1HHy2whiHhwg9LB+v85pyHDB5sLhNYzTzU5Qj+DhdQViK+7vIr/00ehccH5XBTVqO/MwVzEmdnZaqo4eLiHRBJ9AtDoFJTU2gE+u44KVcs5xBLylWIfTiS9bDDDqWX4LLumZ+rhkjBHXwZ9/ft2lVKQ4YMoGr0oSJASx3JchsXTd7AoskXZl2z0ST0MaPPmPLz82krLHS+yYBInLcZIpiS6qUduPE44/RTEbTlqr+Yq0zr87FE9dBDJ6BvcSmlo/6x9L2hNtxGHTcU1bhx2A2x6gVLrQ4BbmPGjIUVHKUluJFYgBsLXr6QTVgVAFfnh7teo1NPPhF92FO2wUtwIvrXVX9nvKDGrwhqW8799jqEnqeXRDoED46Ebq3k2FZUpAKcuJ980KCBqhwW2qaJzx+ngl49Vb960Q54RoqwMAT691UyTUSwWW9xknrhbwinau/+bt4GP3V+bC/rxTAy+Q1uAMazh4WzYFc+c8OfC/4IG/0R4TurHgYi+7Np9MiRtGjx15SGcw3k9SeP85MkBFpCQAS4JdTkmL0I4MIXWrd+wwd2u34S99li+A/NmfMJRG3CXbgIzsL3TVysex3OIqc6O7EVazNEztds2vPBQJi+/OprZaFykNGI4RM44vX/YejM3U64J9lqysT8xJhfuiEzvpo2vn7G3mMpPLhmQ8qVzX3DPMyIV1xSCw3gEsxRzrwCEafGh6sNaqO1NT09td5S42Azf8BPKeEUREzjJiElBcNXInzToQ6ztKBphawcub81Go0oCytWxt4WcGwjW2DsUuahXdze3hAjrK1ML7z8Ci1FkFlWZjZhfUCqA59BPfvTxReezzcScwt69rgGWXzTVJBi2da/5OfnLuXVl1jQ16xZg+Ugfbfjy9Prd0jsDZ/TmIlfP+zHxYFiuLdQAU0pnn17cVF3VToW7YD4ZdLWwh0qUho3XspURxaVDSeLOauymt7I6OoblZP1BJlWAoxI61S+iePvWVz3m6C2HIfAK3jx3w0HiuGuRwR4v9DkywMhEPuBHMiuso8Q2DeBQQP7Xz91yqFUVlFO2RChuYjKhYXGLs0b931Uc99E7tNxLf0OEbDL4XpNg+ixJTx2zGie7OE+XJg3wLCBZWKHMHGQVtNrbqM8Y1ffIIKrNFhZBo7jvleO+lUP9P3q2GaEDQjcPu4RkAdinVWm3McdxUWbrSS2jJTlBqGwY7gT14k7ZcMQepVg1GvKsG9Un9jbCJbo43KtICy1MX4DsvfOKNaGdqI09hIgEtxF8+G+3rK5kFIRwGSizlMnHUq3I3jotltu/PzUU07M61XQ8xgwWvlD4ssFodtgM7gi2C2CSO8NWBJy42koh4OckpEaA43fYDiZGYurCrBDV8MPJSbPzFVgnxU1voePAd0qZtIoKdd0o8/8Vm3DYTgXfHMFr0KsDxnnFG55Pp4DtGJVtTR/rywQUaD24o1R3KgoT4sqtmGmr70OkA9C4CAIiAAfBCzZdd8E0A+84swzT19bWrYHYmFQH/TLPvTQI/TtunU34kJ51L6P3Psbm83lr6yswrCPf0MgstWkCPl52TRuwlgew2tgDO0SXmWJ+0d37d4DN7K6HiuBwhV27xSzojZu3AR3bxqGIwXUYvc8HIWHpaQhAIv7aTmCuwiuUU6Nh0OpDcjTspMIVliRinLm8jMRyZyGPL0QQu4T5oks2KW8cdNmdRjr674Su6zdCJRqVNb37yJQd/4+BXmmZ6QqlztzzcSkGb0K8ujC839Ed991B/3ud79hTwPXYxqE5K9gvbfLdV+VwHbwDB915PRXy8rKERCVRy/Bsq7z+xcij0Zuhf1ksJ+vUPXGQ6vi45zt2RhypKEdZWUVahwzZ9FESFWu8W0+uJy5j577yzMy1FCiMnUMmdUs5Oyq5/5iJMuFoY6uf0pj8eYxxiz8Mb1WFjBm2Sqx4W/IgRuynZb73dLj+kPjbzgewKa8EBzdzl0a1nnbd3Bb/Eh5FQI/REAE+IcIyfcHRAAXQ3P06FGnX/aTS2gDBM+FflAvxOP22++k5StXzcMF9RQ89iNL6kLcD5Gmfe++537ahohoHk/Mawmfe84ZVJCf/wFXpE+/vht5PCZbrBmwjj/88GOK4srK/aV8IeYLN7sW2WXLF2gexztvwSLKg9uX+315iA4imW/Jyc56a+jggVSL4CNMe0jvvPehEgS+UPOxnA8/2FXMVugeiNT7730E8ctXLudhw4dyZPU7bpfzl2MwlKYceXOQ19y5CwiDm2Gx6cqyjOfDebLVXIKbhk/nzqMc3FyEG6zu75mCvC/88RgelEWHYJgMR5aroCy4m6+++rcQ4HOpf7++IGIJEOdvszkur6qt3bVh80ZeleiAXKQIGrtx5tHT4U4P0MbNW+iF51/Kjxi0BMcfUJAR9tPQH53xwgsv9Md7DLSNJ025ivkTTgPGmllp8OBBakgWi9jyFSvURj5fTVNMVGnd2nUqqI9ZDR06+EucUyXsGGeugrBC4TDVogsAiWE0Tf345mL9dxshnClKrHESVBR1j4KCzTn4m0hLTacvF3+p+tf5b6hpXdjq5bR9RzGtxGQsHHeg9tHogPg0rZB8FgKNCYgAN6Yh7xMigIvjpvPPP/fD4445irYgEIuDpxxOL91ww60Yo/rSu8XFJe/hIn0IHg48eBYLfrjxGIo5k++ZO/ezbf/3xz+rC2aPHvkYT7uLJh8+iU45+SSeAUtF3/QuKCicMWO6slryEXk8d95C+s9/XlMuzbh7k8WLh4uwVfvwI48qa5f77YJY43ba1Kn/Ql43wwq+7JiZR1MhD1GCNVyMyR+efPIpwrzE6ljsowScZ9OqrKmixx57nHjsqjfFS0UIBDtm5gwervQL7Ddr+vTpt/H8zmxR6dh/1r/+BaHdtVc+XB8W+6eeelpFK3O+ccsa0PdWIHaX4laFrTf0PR4/E8NgeKpGRC1DlA167733YdVZwUhcT24358+zkD3z9HP0i59fdcF773+4E1z33ckaO9MIhvvuJ5de+kaE++4h9u+8/xE9+uisUZU1NTzZyPF4NHuNwHYnHqcsWPj59n/c9VDl08+8uvWZ556rw7Z+VtZmVaM/porYe/9o3ADxmF/ul3/lP28gcn6jqjuOg7DhBgpt5vfcHsxaRc+/8BKhT1uN08WYXJ5ERaX8vLwa7htPgyAuX76ct/3S+mav51/O/XQuWAWVBc33f8CqOnxzsrK+nXLE4ej39qsbpo8+mqMO5L8dFtj4g296Iuh6eP2119WQuHjuMOKbs7jjX8urEDggAhKEdUCYZKcDJeByuu7/7a+vOpH7OD/5dD6ijAdR3769CDM50dvvvn8S5lReP3jwYGLrgy92FRC3oqLttAxDTDahb7N/n16Uh2jl7bCABw4YQNdccxXcq55XG5X/1VkYmjL3s/nsLsXkF73ohRdfoW1bt9Lxxx1L+RBuDrhai9mrXn31dcKsWQgKy6a1366nn1x6MWHVn/hF3Jxx9JHoU11Am7dso149e2K4y5eYhWknnX766dSvXz/V98f5vjn7LQh1MfXEhB7bdxbTjCOn0tSpU1Elv+pjHDNqxD0XX3jejS+99gaNGDoUkdZFdNNfbqPzzjmbBqP9PDXmdrRx9uy3aSNe/397ZwJU1XXG8eOKbAIBJ7iywyNErbUaTBQbEytG3KFoTBpxqa3GhDSajogb05oYVDBRq9EolQb31ho6gkoririhDoqiCJhGEVlUkLWIvP6/Q6G0iiVWR4P/O4M8L/eee87vvjnfOd9qA8cn2d1qO3DtwLRVsfYjRITWpdcuACBg98Nh6O1XfV6OTj17TmEBggQj+xG7ek35DRuK2N+OUIkqxB9fUV/H/kVrH3r06KHGTZlluSr8RiAai6pt9/7/on3IO+P4RfPm5syeE2pnDw9vCbVKT79gGuA/Zi9SQFaAYSS0BgfRguxqO8B7ePi59AsT4+L34h0n6p14cTE81ovLJY3kGFwTCf/j6xBlcFGHUP13KFqxXQe7LuMC/a8uW75a7+wXfxKu3kMMbg9kn5JwqLojC/Hha7HoKSmtxMLnhho53Dffw8Mjse7vjl2dS60gfK2tbdSe+AS05THZeNeYByPvHn1NjXojYf+BSTFbd+gkI9Ww8+qwL6Ox1ksO9aeHDhmsYhFaJBqQqE3RetEzBCFkpsjMVncU4tlbtuyAFuUYFg3WepGgHfVbUADXMeLvhydAAfzw7HjnfQhAFVptaW5e9qsPgs0dIMS+/H0MJkArLdBkV3HsxCm1D5N2NXYvcohwksQRIpA9kclKPIrTEJ/pO/jHatq0qeJRXQh15M26R0FgnIHAGDJ/bkj8RyGh8GC1VQ4O3VTq2fMq4UASvJGlIMQdTJRG2KE7KTPsNFFEQQ31fU0FBo6Vajh1u7FbuHb++++/GxYaulDl5OTh+s4qr/Cm+s3Hn6JPtZtHyYTVCRO0lFlE2kzl0LWjenfG9BpTk7bL0Set+0SbRbfLykZeu5775wNQd3u6ucDTukqFR6xUJiYI84FqU1I+doIXcxvYMiVtp6W5Rb1zD9rRAlgWJJLlqg3iTGXnhXa17RQFHb6aMf0XYQsWhjnJQkDG+3fs3EMXLcZ4TfWOUbxz7bFT7NS5i7qQkaWCp/irYb6+DnXcHvQbz6kC0wkRy5bEf7p0qVZHl2PcyyJWQ61uberq4jwHKTTnyE5bBK3EGaO4AbQB5nhvduK8paZMelv9NDBA1PvaKI82M5ACcmCNUTsuZcrzcU7GmYNCGb+EHfx3u3fHIf+yg1oQtlh5Q9Ph6uqid/OyIEtKPqos0L74AxjcXSRV5QDcX68psLe3LRvm56vWR8Wo7ghFi0SmKiRZCXF3dwuRFJ+ys46FyaDni15Y0HXQCxMzfM/AWAtgtCWpSDd/NCt4PNKUYgHgpTZFb9OhXRImZo73U1hYqI4j3vtiRrZOT2pjY6WyMG5JbYnlUZNU/A/izr+RgCy3eZDAIyeAyU1Ul3Zp6el/2LVr9+DDh49poSgJ7UXgiopRDkknKA5MUlhAYjw9UZd29KiRN30GvPwhHLukIHydwNTX1/2D9q1g24ta+8X6UadT07TDlkyaYnsVeSY24kLY/5CwUE14MxB25NGSf3kl2ptZ14b8RjsohVfwp41R0S579yXC7myhnX1EGMohtkikmsTCoET5Ib72Z7Bx29k+J6FV96g8S0oqBm7euvmvW7b9saX0xQbhWLLrErWqeBqfv3BJTZ44Hv83IpwoSUvdAa/0uxP83gy9k16zZr1xYXik8nRGcQnHzuqzzyJOmJua9ZV+oJ/++QWF2zdGbdI7PhEG7aHKbdVCONaqb6WfN4tL1JsBI5BFahzslZbD0c9Yuf9/HWhfBMqaG0VFb8V+HauFVzlUt8jBrRmIjRmaYcQMo1ABFjUYhHZM6v3Dnmrs2DFXenb3mouU1ilwPM7CM6sQBx40JvCdDfnwig8L+TBoclBQVMM+oAjC4K3bd8ZFx2xtKYK2CrbWCjjJCRQJPTLHLvQWhP0bQ15Xk6ZM8rW1sopveD/6G1RSVr5hxYpVmoejYxdtx5XFTSUWPxIi5gU7/cL581Ri4kE16efz1Qg/b7Vh3Up8V2zr5z15/8nJR88sj1gFbQkSwKAYhCwCpXqVvCex/zt0s4cZJUQlJCSoqVPmqoDAQWrt6pVYWFrXt9Owb/xMAk0lwC9QU0nxuocigAmuFSbvecjYtODc+XQdXpSXl69Kykr1BCdepWJ7dHJyREJ8wzrkc16B4u7pmMTrdzsPejCEtkNKyqmlJ06e9L9yBRm4MHkiXlgLZAPy+np794lydnTehTby0A8LCPX9/90e+tgCu+ZeaefPRx4/ljIgO/sydl5F2hArhQJEjd63T58vvbw8d2MXmIf776J/EDb3HmjLDOrvOYeTj4RKMYGiotu6P/bYRXu/1Df19ddejdm2fceS6BiUI4QH9aCB/S/OmD7NIC2dPJlqvJqbA6Hduga73nP9Bw0c3Q52dfkbchV3xq48AU5BHmfT0tTR4yegsr+sioukapMRqtj2Wt3d7yXv5d27e63BLbfxU4h+1noRSSNNONB/WQx45eTm+p87d346xmKde+263rVL6JAsnuxgv3WFAxsSWMS7vGCYaYLczHiO7G7rD9hv2ycfTUmBXbfGw825j8Fg0E5T9RfgA55leulS1qzkI0fCMjKz9EJHtCTtkR3LEbt85IO+iIxnvverw3zHeGcI9ARxImwPHUrC7veYKigsQLpOo44b7tWrp/IZ6JPfwfa5pJRTp4qu5Vy3bmti4ubTv5877P+mdf1FH0TfHH0tN88/8eBBhbKUOt+2LMA62Nmh2EdP9Up/7+swYyQfTzlVdD0337qdaVs3pCx1R5rS+nYajoufSaCpBCiAm0qK1/1fBDDRiYFP1H/PY5dih51lS0y2lZgM8+EIVIjzxZgUmyR079cRtG9RWlr5o+rqyh+gnVJM2slQFWbgc10M6v1uu+cc2rGEUO9RUVHlie6Uo38n0T8RMN9VkLXGON0g9NFOi1YoIiEC+xv8mKBwQ8UBZLESVfnYEX6xE995a/g9HWnkBPonAlIcgKyrqqrMIZhb4Vw1Ml7dwpjz8ayG4T+NtNK002hX5gczjKMb3lf36mojhE7b1uCRioXIQTzrRtNaevBVeE5rjMW1vLzqhZqaKhskNcnFM8RFOhfP+A/B3rClf/XPAuc6/+PuXdfK0tIu+E61wDv7Bvcfwr3aRNDwnsY+oy3h2gWVs1zhiCelMduhnW/Rzt++SzuNtc/zJEACJEACj4kAJnC7jMzs8Pj4fXswib/Y2GMgzD6ZMfMDY9DU6cbBQ0ca4+L2/raxa3meBEigeROoNcQ17zFydCTwWAlkZ3/r8/GS8ETEO6t0OOys/TzCFwJ5AnZOMQ0fjHMT9+5L+PUlVE5ygZ1XKis5ODgeaXgNP5MACTw7BGo9TZ6d8XKkJPDICbQ1a9se9kHEE7dX3n16q6XLIxEmdegreFAvhNCVOGdTqDXD9u9P2PjFuo2qW9cuOsZVas0aDG6HH3mH2CAJkMD3ggBtwN+L18ROPs0EIGBbnD59Zmtw8OwAD0933dUrV6/qrFtS8UeyKWVmZaoM1CPu2rWbzq6VlZ2l1qxasdTTYJj9NI+NfSMBEnh8BCiAHx9btvwMEYAQbpWUdGTXosVL/KR2rVRFQqgNsl+VS/wrYlrNENLTRuevrkSIzLy5cz5Hbdtg/O2hHc+eIbwcKgk0SwIUwM3ytXJQT4IAhHDLC5mZwTu271x2IuW0Tg0p9XaliIKkerRG3G4/794lY0aN+omTk9PRJ9FHPpMESODpIUAB/PS8C/akmRAoMBZYllwuH5qfnx9QUlrSB6X0blrZWMd1sn9+Z8eOHU9z19tMXjSHQQIkQAIkQAIkQAIkQAIkQAIkQAIkQAIkQAIkQAIkQAIkQAIkQAIkQAIkQAIkQAIkQAIkQAIkQAIkQAIkQAIkQAIkQAIkQAIkQAIkQAIkQAIkQAIkQAIkQAIkQAIkQAIkQAIkQAIkQAIkQAIkQAIkQAIkQAIkQAIkQAIkQAIkQAIkQAIkQAIkQAIkQAIkQAIkQAIkQAIkQAIkQAIkQAIkQAIkQAIkQAIkQAIkQAIkQAIkQAIkQAIkQAIkQAIkQAIkQAIkQAIkQAIkQAIkQAIkQAIkQAIkQAIkQAIkQAIkQAIkQAIkQAIkQAIkQAIkQAIkQAIkQAIkQAIkQAIkQAIkQAIk8KQJ/BMHbzAJJa9lXgAAAABJRU5ErkJggg==;" parent="1" vertex="1">
          <mxGeometry x="150" y="80" width="160" height="83.67" as="geometry" />
        </mxCell>
        <mxCell id="bJyrGBfYhx52CG3j51wn-3" value="TAPv1" style="shape=image;verticalLabelPosition=bottom;labelBackgroundColor=#ffffff;verticalAlign=top;aspect=fixed;imageAspect=0;image=data:image/png,iVBORw0KGgoAAAANSUhEUgAAAJYAAACWCAYAAAA8AXHiAAAD8GlDQ1BJQ0MgUHJvZmlsZQAAOI2NVd1v21QUP4lvXKQWP6Cxjg4Vi69VU1u5GxqtxgZJk6XpQhq5zdgqpMl1bhpT1za2021Vn/YCbwz4A4CyBx6QeEIaDMT2su0BtElTQRXVJKQ9dNpAaJP2gqpwrq9Tu13GuJGvfznndz7v0TVAx1ea45hJGWDe8l01n5GPn5iWO1YhCc9BJ/RAp6Z7TrpcLgIuxoVH1sNfIcHeNwfa6/9zdVappwMknkJsVz19HvFpgJSpO64PIN5G+fAp30Hc8TziHS4miFhheJbjLMMzHB8POFPqKGKWi6TXtSriJcT9MzH5bAzzHIK1I08t6hq6zHpRdu2aYdJYuk9Q/881bzZa8Xrx6fLmJo/iu4/VXnfH1BB/rmu5ScQvI77m+BkmfxXxvcZcJY14L0DymZp7pML5yTcW61PvIN6JuGr4halQvmjNlCa4bXJ5zj6qhpxrujeKPYMXEd+q00KR5yNAlWZzrF+Ie+uNsdC/MO4tTOZafhbroyXuR3Df08bLiHsQf+ja6gTPWVimZl7l/oUrjl8OcxDWLbNU5D6JRL2gxkDu16fGuC054OMhclsyXTOOFEL+kmMGs4i5kfNuQ62EnBuam8tzP+Q+tSqhz9SuqpZlvR1EfBiOJTSgYMMM7jpYsAEyqJCHDL4dcFFTAwNMlFDUUpQYiadhDmXteeWAw3HEmA2s15k1RmnP4RHuhBybdBOF7MfnICmSQ2SYjIBM3iRvkcMki9IRcnDTthyLz2Ld2fTzPjTQK+Mdg8y5nkZfFO+se9LQr3/09xZr+5GcaSufeAfAww60mAPx+q8u/bAr8rFCLrx7s+vqEkw8qb+p26n11Aruq6m1iJH6PbWGv1VIY25mkNE8PkaQhxfLIF7DZXx80HD/A3l2jLclYs061xNpWCfoB6WHJTjbH0mV35Q/lRXlC+W8cndbl9t2SfhU+Fb4UfhO+F74GWThknBZ+Em4InwjXIyd1ePnY/Psg3pb1TJNu15TMKWMtFt6ScpKL0ivSMXIn9QtDUlj0h7U7N48t3i8eC0GnMC91dX2sTivgloDTgUVeEGHLTizbf5Da9JLhkhh29QOs1luMcScmBXTIIt7xRFxSBxnuJWfuAd1I7jntkyd/pgKaIwVr3MgmDo2q8x6IdB5QH162mcX7ajtnHGN2bov71OU1+U0fqqoXLD0wX5ZM005UHmySz3qLtDqILDvIL+iH6jB9y2x83ok898GOPQX3lk3Itl0A+BrD6D7tUjWh3fis58BXDigN9yF8M5PJH4B8Gr79/F/XRm8m241mw/wvur4BGDj42bzn+Vmc+NL9L8GcMn8F1kAcXgSteGGAAAAomVYSWZNTQAqAAAACAAGARIAAwAAAAEAAQAAARoABQAAAAEAAABWARsABQAAAAEAAABeASgAAwAAAAEAAgAAATEAAgAAAB4AAABmh2kABAAAAAEAAACEAAAAAAAAAEgAAAABAAAASAAAAAFBZG9iZSBQaG90b3Nob3AgQ1MyIE1hY2ludG9zaAAAAqACAAQAAAABAAAAlqADAAQAAAABAAAAlgAAAAAxGVfDAAAACXBIWXMAAAsTAAALEwEAmpwYAAACuWlUWHRYTUw6Y29tLmFkb2JlLnhtcAAAAAAAPHg6eG1wbWV0YSB4bWxuczp4PSJhZG9iZTpuczptZXRhLyIgeDp4bXB0az0iWE1QIENvcmUgNi4wLjAiPgogICA8cmRmOlJERiB4bWxuczpyZGY9Imh0dHA6Ly93d3cudzMub3JnLzE5OTkvMDIvMjItcmRmLXN5bnRheC1ucyMiPgogICAgICA8cmRmOkRlc2NyaXB0aW9uIHJkZjphYm91dD0iIgogICAgICAgICAgICB4bWxuczp4bXA9Imh0dHA6Ly9ucy5hZG9iZS5jb20veGFwLzEuMC8iCiAgICAgICAgICAgIHhtbG5zOmV4aWY9Imh0dHA6Ly9ucy5hZG9iZS5jb20vZXhpZi8xLjAvIgogICAgICAgICAgICB4bWxuczp0aWZmPSJodHRwOi8vbnMuYWRvYmUuY29tL3RpZmYvMS4wLyI+CiAgICAgICAgIDx4bXA6Q3JlYXRvclRvb2w+QWRvYmUgUGhvdG9zaG9wIENTMiBNYWNpbnRvc2g8L3htcDpDcmVhdG9yVG9vbD4KICAgICAgICAgPGV4aWY6UGl4ZWxZRGltZW5zaW9uPjYwMDwvZXhpZjpQaXhlbFlEaW1lbnNpb24+CiAgICAgICAgIDxleGlmOlBpeGVsWERpbWVuc2lvbj42MDA8L2V4aWY6UGl4ZWxYRGltZW5zaW9uPgogICAgICAgICA8dGlmZjpPcmllbnRhdGlvbj4xPC90aWZmOk9yaWVudGF0aW9uPgogICAgICAgICA8dGlmZjpSZXNvbHV0aW9uVW5pdD4yPC90aWZmOlJlc29sdXRpb25Vbml0PgogICAgICA8L3JkZjpEZXNjcmlwdGlvbj4KICAgPC9yZGY6UkRGPgo8L3g6eG1wbWV0YT4KTO8D3gAAQABJREFUeAHtfQmcVcWVd93tbb1vNDQgbkQFVBQBQYRud03QzM/AlzFqdMZoxomZMfkySSaLz2S+LE7GbKMTTTJmNMsMJE4STYwLdiMibgSj4IJEZV96f91vvdv3/9d9t/sB3dDLfU1jLOj37ru37jmnTp06derUqSpFvMtTXAh1iWhUWcxG0eIoQjgDFfm+xusiJa27Y9GIXdq5Y9+kSMYuqdA1UWI5mqupmqK5imsrrmI7dk44TkZX3B5HZBUt2lZSP6F7a08i+1LdjN57199rDgTfBR0teTpWg474IHQM9O7ReA98ftclZYVYptaJVmUgQbqrcVnppK1bT6jNKqcIJ3OKaSgnh3utyWHLnWKbTpWmq4ZqOdGQLYQCadDwLQQuFI9VuJI/haaKHO7nFMdSDCXjWI6lhbTWtCr2KCXh7a7tvpnVI691xZTNmenH//nqR36W4Kt+IkQImtYq6txlYiUFXoL2nx/t3+8WweoTpibRYhVWygOnXDxpanfHWVo6c47iOPNCtnuKaouJJchlQLeQATbqNCvr1ZXqDCqNlTygZjug/iFuikp1qAKSJr95DYHEZ04XIhVSRFbXWm1NecMOKS9my6LPmGVVz79/w++3IltfahZCbxTLgPfdIWRHtWC5Io7upUUtFKYbb7zR+NCqN+fpPYmLI+nMeYbjzi4xlZJIzhUmZCWHqkTtuZAr6iT85y8oDAXJ9fQSJGpQvvAB3pCJ13jR5W/+4bfLPxuQpLbDXUW4GgRO0XBl4C8XVUWPoeZMTd2YLTFWWeVVj26cOeuZT638dloCxUezaISQNYKo+CDC7eccv9/kzVGXyPhW0eIul8IhxIoVK7TqL921ONSWWG7kzIujtjiuLOUKC7JDTZQXIln3qGiWWdpcXsE9FuQFo48X/M2E/N7FIJ/+U5+Rbl7E+Fs+wwWEjMJH6XU9xI4eBgk6/lKlmkgaYqcZjjyWrq5a+cb5H3jyk9//ZJbo8I60y9Bw2CH7qPho3CefH+OeUHBV2iSF2unhWe8/BQb3R0KW++GKrHlCrNcSKZTEhnHtCHR8eAcFVFm346WAlA4QIwUNV/jpKmFoNQpapswQiaixLReN/NKprr7/vA0P/8mn29NiLTbf9e+N5+9xw/DBmDSQQD154uLLjUTv34WTmUuqIUlZ10Y3J2xXqNAIjgqBkoohX4mDgT7i9z362F0Kx1JVR3dcxRCOFkWn2VGmiVRFuMUsL7/7/E2rfoUmIrvFe8Qc40ax3hrvAjauBYut1NdQ8Xg8dOEDzR8V3d3/UNlrzQxlTJGkmSR0E32MBktH9bshX2LGdeHyRHrqh6Z/nnoF6lbYtuY6ekQYiojqoqPC2OJWVn2vY/HiHy+9N06lLJobwZuW/QcqfrnHw/e45L0rlsHe9UZH8eZmfdG1/3xTLJn6zISMNc1MWSID+xhKid2J3lcheW56FeX9GJeFG6TWSStVEr89TSavZNcXEq4eCofF3prQLqey+s4ty6+66/r49RmCGq8CNq54H4e0LMFfk6C9LcSa45ZcE0p2xWt6rONz6RwMcdUE5zVIFO2md1XyhKm/SP5vfruq4oQdDDaFaxhRQ3RWRHbkKqu+eu7rT9zLN5rRwFZjBBkfR6PIcVM/L8J2OEusl17rVdMvWhztaPtWTTIz18xYtJ9MGE8ajCd0d+OG5H4pKOIVS8sOn8VGa4IB6dq6sA0tGhVtZaGXsxPqP3P+xkceY5ZCHvL3kUxHvJboi1op4gpdBw/NWVpbsWfvnRVdqWsiSVPAsWO5isI+L6+h2H7/cpJfWo5E/G4So132/w58b7YBH69bFhLdlWUrWo+ZdusVa/97F95B9jhyHVkf2BEVrBfnQEutz2upExZeV9rW8+2abquyR1gONBMcTipsLc+opXkLbkqpOqJEj7Fcs8QHl9e7w9lLCJgoA586qiPJVE3Vp5vebLmHJBbydoxJlugOpnkMqACz4JMSWhM00oMLr5kw8a3XflTTnVyaS2M8JBQTrRPDof3HeAMzeAyIHccoPJ6AU6owNccxYrC/9lbHHu885tjrl65bubNZThOJI+L78hzBY8g8TBBrkGaXQtV8QuMHJ2364+baPamlmbRrmVBKECcpVCSpUOoLr8eQ3HGLym9oCpuigy5R6G5P2jZrd/ZeWPv66288fdLi5eQx+OaS52NdkDGtLzr3bsob6Ksnzf9ufaL3kznYUraC0Z4Lr+ABWmqsmXE04qPNRe2u4s9RMMJxXbZPQy+FcV8R+sHinS/+Hcs11ob9mAmWX7AVcy+bOHXrnl/X7svM7xUW1LTKqbQx15xHoxANTDOrcH+zgV56OIydUqHq+yZG17eeMOXyK9b+dpdfBwPDCfbumAiWX6DV0xYvjHR3PlTRla2GTyoHJY6gEs8kHxNCguXduIbGrhIDnlxUOKGu6nCip3bCBy7YvGqNi9kM5YDQomIUpKj1icIRPl0Fdstxi64pbeu6P9Tjd32YFqOHypvWK0bZ3oMJDriqaobgmXDKDdFeV31905/X/AT1QpsLM2FQdUVKReuC4nmJkUI1+ax/nrit7X69JwdrUkGALwoKTfWeUBWpVvNgKTWI8TBgwdt2whITt7bft3ryvC+wTpglXsQKAI7gEwnGHyVHPHvsou/U7E38QzKdRvSBHBDCe+6pMnrRaXi+l4rPATiaYXc5blk0rLVOKPn+gq3PfpJY4wV1FSQVgQtWIaFPV8z60cSk8re9VhYedEYg0FBnek+YJBvG+gOtWHdtK6JHjR0l6o+buv90A0mIF0G4AhWsQgKfLj/1JxMT1kfhRTehmQwLllYIvTpN9UCRkjPjMBU2nfFSXtJExwTsH7MC8407ysM/WZx45XqyLx6wcAVWZhAtYeHDXVNx6o8ndVt/0yNcWudweHqJg2IWzv+dv130r8JKPhDZAfQwbhlOWpnyX4emFk0FGWSHjqbDgFXvNXbyTIVlPgCXfD6WHx5+Nm645FE3cEcYOyu0Hy3u3vgxPJME9xVglIR5pR8lELyOVTJC5UTyuuPO/f6EnV2fSOSy0FTqfkJFNEEhHA7JXlX7b3A1jUvrVQoRyMZsG6w/9BI6shiyRXtiwflJTzS8dz3avcbhlYRwJCyE9MhEVDYrDqImJzsxgQ63pQfH+/QyHslPjx+SGrNKDxm7p5R9d+E7z/wj7tMIlob9aOkj9FEn3zeyeurcLza0Zr+aymRMeD4NBgoXtthRIxomAF+g/EKiC5Cx8KBJQYtFCDAiBSBSGeiaXsTkQPe04ec7WIDR4RjatlA03Anpy9mujSB6B6XBP0gJIy4wAjFy6Wy15ohjIo5Sj4Wsx0BfVZWbWCQBnUdVnfY6fhlbhrcQ8cLXx0/KD56s0nBI31tZ+vlFe9d9w/c5jpZKn+cjhuMT0nL8ousxnP1PTFfB7wnnCVZTHUmbikLFwuEbsgEXB8QG2kiL4G4Wi03TitOdDYuXsrp4VrPVF7tC+mu7K/UdN721vnskzFgxc0G12imm1VqZWartzNNy9vyI6c4qtdwoFsBC0Lh2kXH5VGQu/Uij5v1I6PTf8fkD9kCpum5MC6u7j6m6puntNT/169TPO5LvURXOJ6DlfUvOrdjT/pQCXwm4hmEt7UOvE+kvwEjIG8o7nvj048mLk7SVFEcXjl4CvZSGvzkRct62dOMPihZ+ZHu0ZN1Vu1raDsQAOMpK9I91onFIvClchnYgrJ+e2DilLpU5pzSbfb+Wy15QmVEm6TAQUnJhmkKlBgFDT0nxR+ovg/xZ9A/i8zSoBmWdU82yqOiqnrDwgq2r1hXO646EkCExbyDAnDFfLlbaDy1YNnnCG2+8FunIlGEyGc5PtkYasx6zRoxgIKQH3CMGqnN2uF61YI0OtAKwuzHYpxoEqi1qdzu6/mAmFPvpDyZOe3rlppVcsyoT3lJb8vspNGI/BdxEu8gTns8z1C/AgkB6S/v5DuCBjn5Y/3rRNSWnbXzzvGgm+5FwJre0Ou3EctAVIAb+S3SToKWYvBqsHOQc6wuK1A6j7hKV0Y59J02bccVzv93r1/Fg7x7q/ojKQib6TFs38az1lXt6zswomul51CWZh8IZ8DPKA9cZ04RxHMyNYR2oLrpi6huZsHr31kjdzz66c1W7j7QZc2W8PrDi/edBfschLEuk4LaIJgiQD/vHZ1zYcOKOjmtC2dxNNUn7OBMdJOw6TkqgjRxBM0xRzBLYju31kecW7H3pbNJbWNc+/UP5HpFgNUMbkFEtk+ffM3ln940p4eYQvhHi6MpTrUNBHVQeLnF3LYbphlEnbVH1ld5o6OsXtf3xv9kMiYXCxM03oGGlVgoK83DgsIKgHaHN+4VsDrYD+MrDG66u6En906Re52TsAsAVSOgiXQq/rBtZAP/HcBAOMy/xcCyMsUkuJtzQtonl3z9/z/OfbM7X9TDBecQP5yU/5LXl5Av/umHH7p8ne0141VVs6sMG6XVKI5LWIRNB6D67VSC1dYTmitYSfUdXLPSlS1v/+BMfFAVqLDSTj2+o33EwapKYo/mxaXzv8fq5HytJJeMTekRDL0b8aKgM0oOAsbPPz4/JqvfLzreCT56ACTtSqmn7JtVeueTNpx7063w42IalYLjwgTHqv2r8yJTIvt0/SvfmKOOQJioCD1SxhYpshqVJLWXSjrKjmthVE/36zxc3negLld/dcbEr6CluTQyH2/m8cchJXqgUn9YL977ww580njB9e134m1YE+3JBa4Gj9AUisJ26hCX3ilKsAvlwwTPFwnYFoX2d9/1u7jIYO+tBR3xYsjIsOQBiGpjO2snznqjd2XN+SoHadl30QmOTWHBY1zbicNUSOPR3lTvPdlZW3XD5trWbSMFoRzJjU4oBsSigXfc12K+PX3BqbVvih5MSYn43FyrBfkTrxVZd9F167tYBoYzypi9YeRWBhqsY+yaVPrJo9wuXwQGOwdrQnadDFizftfDk+5bcPHVH612pFLYpA+KxVQiKSVvKigjRWRb+UlPrn/6FvCRtc46C/QwOV++oWGU9BKxvfWXdGV+s6kl/FbsLwu+mmnA4o/jFDYykcHlCQXvLMaMxw9g1pfbGxs2rf+jLwOHKwedDUm+yC0Ss+u/RBUbbu76VxjJ3Cw7msRMqWVTMbSlGolTf+05dzWIKFSuCQ2JWBHL4DW4o5R6XeVgGloVlYtnOb93wL3uqKxclSkK7y+WaADr0vekmv7D+d1AFIqcJk+4i2M5aOpUTkbbubz917tWTSNtQu8QhCVZLvn8t3frn79S2Z6NYkGzC8ZIPgQmqSIPCQTk5YaoZuyu1tS8dN+2UD25fu4ath0ygL23QN4/SBywTy8YyXrbr2bXbTp5xyr6K8Go2LNy2YG2BJ9QoxU3wyasu3Eg1HZkSdeuW7xCbLwuHw3xY2uSmE3QtnHrppdVtySsxYsEkq2dXsfDFTJQoWBR2CWfh6/T7F3dtXHTzK7/rpC2V7y7YuN6tSWovlnX5+pXd53S/3Liz2vjPGEbgKhb0apgdwrRZvtsKlgWs1766habkopfKzvTytbMuvagJskCZOBzGvvcHycjnsvLWTpy7sWZP10z09ZzQ51xXkRPn1GwnEgppeyrL7mjc9+xniXA03uAiE1w08IVlXlVz1r809GS+YOawn66iy+0t81UUOH6O9SliiPywYdZqiQmlr8zbt/60oSA6pMaCZEoBWjOz6ea67uTMDHd7GUuh0sPajrrSL1OoIN0Md0Zozruv6ztcRbHMLDtHZue3v/jFPdWxz+k63MGcP4ZUFartwuvDwT3ccwoHPZMwfbQ0zJGqnsyp62ac93G+dzitNajGAoFy2uahG++J1f323i0le3om2dhOB3EnRZ/TQvdnRUK6DqH60vk7n6WRTgFnRF2QfCN/jqrEOmkBL5rYHU2c89nJbZlvJC3LdhV6I1TZMdLoHrRSR1haMl1B3RuOrSYmlu965fKl02/CBnCkZ7A6GVRj3YthL+mIPfmzW+o6s5Ms7KkA42rQ/COkue81T2IkS0zESek7Kkv+7T2h6mOPvGAlNsGX1Mxplj3rv7mjKvL1EkXTdJdeejgHYNNLDu7/2qh/SZgIRzPRY9Ukcg0z1j51C4HSNTIY8AHp8CVxxc3x0mN+9estZXuT9YhhchS7eIKVJ1CO/nbUh37WtPelq0EHBXnEEQeDFfpov8/6QRmoLZxVNbPvm9JhXcetL6CtOGosWqLW0qG1ehrK927/4NITl98d7/Vl5UCkA2qgFjlZKsTU1U9/rKbHrM8JRC5AqKhmg079EBWrBMPp3VX6OgoV8dyOPzCvP0vQyI9SeOQJecN0fvtL17dVqGswcYwJCRnjVTSG0QzC9JJZ25GrnwjZIH5fVnhdmAYSLEVuKIu9P92O7lvMFHxy2GvCewlFCjxhBozTNJgbay3X2necPu1youBIKE4383tpQA6QN+QRH74zdeoVbaXa3hBD9vPTLsUJ46DTFI6tTE6oXZ2faIw3+5sPHyQYBwkWJkUlsc2f+OaHKrsyxzEQDescZb6D3mapRph8NQSr08X5R4oZQ1BeXeWyq1oeaqNj8C9x9DdcVpJH5NVH4NvrqCpdZkVkDcnd6liJPo+HC/dQ+WFrqwixtmB3H3/byq9/iHl970HhewcJFsJMpJYwEp03a+ksDEKkwjcCuvZhIuTUKsO6i+6Kkq9d8ee1zWRU3vkZEKZAwJBcn+RAAAYFhLwizz6w/fk1naXheDk2kkQsEaM6JMFBChdh6nBuOPDHK5jWCyW65BZJjS2ezBSWaT9m+Y64x8+68ozqNzf/UetO45QZOuGCI4+Q+pEqNkJftD1V2oYlnZvOzBPGx8EhLCzt4a/7DntCAyMNHDjs1x3jJuljXLzix8WPgxO85PQaCHNXV8x8rqHbmZdAg0W9yVEbCQ4i+XVHpgCh61SElN4Zx525ZN1vN/iy4+PZb7jIo9j4INS266MV3ZboQSABXg9wpOFFFMGkQu1wz1pHTaIL7Kmf8DHRuUlGevoHBvgEjsU3HY8UEuIeuAuO5zV73Pel5QW/ZT/yGFt1qMUV+2UO9oeLeHv0fivtzpryG2K57pdDaVvndC4MespbINgoHFK4JDjFquy2jeTu1mtxe4MvOz4iKUj8gbySgvh18cgljzy0uXxvz9SsgqlmTET6mYP6prcFImYi8tPYVV/yncV7X7z1SHSBFAR2/WCC1ErLZi4L3bD7zbOwbGuxZtvzDNOqx9FzmM1wuQSRfiILNZUOu0oWIY6pXFjZglU/W5PR0AvbQpOev2nXQ/LUCPBSxWhJHetG4vNwVc3Mrx/T7nwuLeRavAAVQ4EEYJMRw4XrYULpjtdv/uR0HmjgyxBz9QvWMuwNunKl/eTsi98/4a1dD5uJLKIGcK5oYaYCuCO59GDxU8eKB0vtLQ/ve+Gc06Z/EodEFhI1EtjDeafw5Au+1xKbPdewrWs0x1oadsWx5RbXSnMqw1vl7POA+ra/lXEOzUtpXPRqYifWJ/0WjfG+xtSmF/gE72Gr8WXYanxspqF8Ht65YEF0/is9b1bggE+eBoveAWSzFMElTznYdqgsou2a1vCBCzc++jtO8/jHsPTxqWXlSilkoX0dH4oleHYoZYqvB5c8WHL2yY5i7JIojd1OoWJLw7NgSz4A2WQ8tZSCiia+p2JY5aSfsroqnXu+PmvfUma6x2qW42AjEyuBc5OSmHzNIJoDQxgngz/sO+/0Yjjv/Tk283Tjz7JtuzznTq5LK39XlXaef85435MtsRmXAodDoSJO4h6ApEBvsUyMhvjUunXpVFT7cgjyhH/Qxp4HMkgGe0aN5oaxkV64o02ODkVLS195ZGFZaEnU0htjpz29bnNZZ24y1JWDv8DmBVkoL3JbOGHYVl3lxpvnXHzbKWLlcsZTkY4gy91XQP+i0LhcVTl3cUkm+U3sV3k253HRZWDpGFzAsLXwjTJ7FSGZ4wPAdyGB/jO/6eE3/IcoGCbtEDeFaQpV7A27TyUN/XOX9ryyjmCGG95bgHpEl0+XnPxKXdKdlYRfE/oX678DTlh+EIIS764O7XrsnAXT4w/d2zd/KHFxoSVRnvDO1oWllgKhwmYFdIsiFTKTv0eXCA2jAd0QyfKSOyhUbGG8OTq4h36bGkN2R/G4urr8tP+o70mtrsjYZyddy0qh/cDIZVlJhxQqQvMFh9d+4j3/r/8eRUuWi6tKqJnUbvAPR93ZkzLu4smp3DNPxU7/HvMzZpy0+O8W69vHkYzGvuHSq4XYLRaQtAfJaBchphjd2RWmaFj4520LWB5flqTw+Ba91tF1SaxHLj3qwz8QgwlgJAmwnAiY316ibX3o1PkPEAbP3hsJrKG+w26WRvT99QsnPHvH/6yfmjA/btk5m8epQEGhkhXusBJYyleghvkKDV2m5diKA+G65fnIyc//rGJRFWnJN6bAcB4ICDiofcXFn7j8F91RZXMURi16C2rUwBNW2bpRyEysp/sSAvdlSQoWRkaSkFAmfR52CaXzxveLBEIIpZSVh4LZBqJrszHjnu8/8v1ssW0rf5T0+4pZJ5zc1vlSTUrMhk2UsxDLDYnCf5rnfW1o1GUlJP75Rj2gQ4O5agILeqsyytwTe9s3/D562hSuxiFto0Y4OABpa4l43EmGwz8Io6hw8Ni0boNKhMQ6hbZWsoAucpkmwvZlSY0jnh0Z3F8tev/xhuWcSrMdv6XAMWNQCcKKQZNrtMWcdHvdBKmtHhbrpUAHhaMQDrUCvdKPlc+eXp3KvVBui0lJTKCidCHMppMVAbLZw0xGk+H8IwN9JuJ+iJvQVdjutNqc+cKqyjOmkTa/y0LWwJPfEyC05metETfBE8M4ICONQSbszoQpHhyNkcrN+tUZl00DfDeOoqtLcAo8EdXu7Tm7IufSqQaVJY35wPCzMAg0trEgApZ7+OErX35kRzM0RlwqMTwMOLHCqBV+VX3alPJU9plq063i0nUcOw4tIRuOxCjpChj3QBVHvYh2ZaD7NSHgE8sTPc88UTKrnt1isYSLFUzY1/75mX3ZkPEb8h4GPIz4YBLLmW9EuFSsClMJV7R3zSX0JfDh+Y1KGOn0Qh2HJGFuMBjMBVC8wjhKNqSJbEnJT71HjQU5gruMo7V4NtVFJQ291pNVllubxPG+pqIyrITaWDIkOIyHh9SPk8IFx7ATaoiZ5up4w5wYaSXNh4cy/ByN2K+Cb+VKwj/Pcl01anf4UA79BrtX8lXH2sewmZUGPN9Q/T7RzplzTag0YA4MeV6iyTU4RBWtM+zuXn/K8auI2MfL6yDTbXlgJ/Rs/58JOXd6Bptc4JahYW8Jz93hCVeQOIcCq4CpFK7chJx60nmJzIN8FzRLARgKnOHlkZugiKdPmtnSGRHbw0LjQCVQG57aGAnnRCFYy7Ln8Afq1pH21YPnX1sTMu33YSTDRNEOLJGhEFeMBjFDGA6v+sxjDySb5SgleGZS9ZNxT5We/vH6tPp+GOpYre3C1cKYajoFyIQi1eEQOebR4IR6MYhoSImLH6887R9Bs+y2hghiyNl8uPGWn2TskP5EWPIgOMEiR6mH8CnPVNZTuZNXNC4rZR1IIXJ2bz8xZDqVyIDpMGzKOmTSD58RSGQysQ1aTgs97P1q9L4C/IyjcF4XuHBCJGPdkZRbaXCA5tlUbKakxacnQNTDAuXjBz1GCi7osqT5lfvrT5tQzC6RBHIXQwsuUh//sIg+ROY8PISuwlPqiHp1y7bjmV0KVn06c1KUEX3UaEhBISccaCsXYf56KiQyu2pLpQd6dT7mi7iCSjQYCWtKMhGvttwyCBSMdYZTeymoMuXBjfoL9MDV75q1oPWYhCXXTN6WL8OogRcA8Hm9tSK2LhESmNaUoTQ+WwpyjvzS461ilUKGqu3cdELyNFYm+z6du35BpILE6EEU2GVPFRlN2Xjtpie24Z4Sp7wFmABPZYt/pPLsY8vSzg1pNBH4bdgtBtZIAiS3DxR4oacxpVSWdW78XcnMiUoRDHnwBtNVQrl6S8sOy1BeDaEu8DtQ/rNABIid94SSzpzC31KwLF1M9yoBKANPCpqIKuyQeJ6gW/Khz0Gi8bVVabbnphobp2DIRQXBdulB0lsAi6sfzCpHK620xQ28Xwyt5fM8GzFeZF2g+otR0YiwgqfMCB3PckjBCnVnGjyHYfDOBhqrJoYIjqrLUBIiDTKxNVJbfe/ES8ORnPjrlHR9yo3wx7W28nmAPgKrjB04RMT1cTn4aOEUl9e7+JkC+tZ040UO14Ltl3zisGwWl2rKOo531GWIw4rZSo3nagjeiQXFq2XglmwN668SIcN4+R1c8ibQT9+9a0nMcach/ohtRDaY4HAED4lM8HoJ6bm24ZU/fnF510XEhHixQOn3ed4ZDb+WRNgiBKvP9gyqZCiL9KwbrlsH1aWoVz3+ZpmZtSfSH8HWHxSiPBwXHFKyqtuTqa5+h/eWeRvM5h+P/qslH04dduzLIvLwkuKo+dFTuj8EMprClTd2sNLUho1i/RVz+WXidRDpVbFSNubUxKq3c6pIYWwo3UzyZhAIAIOyw91iRM5tuK+qqULtqYmFMEeJCVnfKx2cbAESGEZlr+y89qQKuSV2cNA9jviOVi1rnWt6ZQgaRUCsHxgMuyUQjPk2RUSy9kLmYtc+cO6R3b3Nk2HxhlHdgcCgVqzhJKdgEQWXyHTCw5BJD0/BMRdaIlWB5a2RfMsJDpOHCBPPirA0ZZ9A2DMD3fL4A8GDgsgAxd9g3g0ApxdrAj0QYgcAUtACuGQLwzf3uF9Uz5rKrPEAu3PgkRPD0lGKDXw8ZzH6QyIKKLEuKEMw4Eut1tY6NWRbdYjzxlG6WJbqVVRAqCQYEI+za4S7j7+W4V+QCUuwJG+qHPfEkFDKuKQI8AvqK0hsxYNFvqMbcWDrRiemrBOIaQZi5YPEeFueL72WnZQbiOQ7YeAOMtlR+HmiWadWRax2xMDcJGok8JAKUsw59UgstI3XLcKLq+d1EIlLtghHt60GnMAFKfMcvEHAHksYLAQqmHNPAgOQOuL2A+aCoqMlL1ixytJt7DawDDlQmfLK4K2UKEcojRqFBU8U7Os9TEHi8ywIx3LksighGoPi035wsoZ7Aia5Jf1BUr8fkqL/4AyFPJnsuGKiwqqVDtY2h4XeZFew2BDsL0ox06LqGo7uk+0+WASEBrDSQLSyOGquCKkxDxNrtUs8eyFQe7QIFA8OkrxiGVgW5mrkR6CpUUJDXWCOxWuErPagq55Gr4ZN81Q3ZMipj0DLUAiMmPKxFYW3g7huyQPhwSdMaITBO+I80EX/JO1Eolg0dYuXTJ5QA/DFRILNBRH9xbPXZJGKUxjZk8swr+DhN/og0dQ9qz1Yu8EHPxbfqAJZ11DtRawNaER5UqyHrBjCReKhRxQVoynZf3il8VRkUIwE4QCLWKh8oGpjUIAPgIMYPgbzMRW1UjwURfuUIw80DXk4Z0uR0ChGBM3QX9FNuzo4llFQCRGT0abKA49xXbRE0GpY40AEo8Jgkw9Pt7W3LVSLV7BgcYwVNFSIFKyQo20tDs48t8KK4Vd4cCLlUSxd7KiEbM4yVWx4lkOfmC9LkPLbzx7FwFHMMrX03wzgyp8DS0fVHTzzBPOSR6WNJRsftG0G6iobcqTPj7vWBMCig0BgdW6FB5hDheCSTyx21hbcmkDtzOawptJzC/jiFRQ6wqNqzKazUwiz0evaeRlI8ufAWg33rbSCbRbynn2/kIEgKSIQ0sk/8ImuBjWjOD1vacZbRAlXMs3GwFJjnve57uQ0XlJD8jN/OxA8KIdiQl57FcdSTcfI2ogpZWv3h6FBYCHJ4I3soODWn8hf8JQHmuJ55i/v3LQNe9y/DXuRrCqKozdQwguAeY0PeyDgHuZUt1zb+/I+lIGa12NhQd5RXkp4EUMp44VX29788Cjhytfz9KpZLLi21fI2NXzi5D3Y5ymHB3LGOwgk/TCwiRIqO2K7tbzHvQv6nwVz1YwYJkLKGtozXLCBFGhLJ8BiJVJLpygatJysz+r6s8TVEnAwZF5QnVsuvTRs5NwpXDTD3U+IK0jpZeeKcVoyXFHarnbZWqdruxkNRQwykWoWCBuhYiLMnvJfJ59fQ/i8x++gU9owHkFIiKwmwg6SYUHT6sMjjWwF7C2yoN1VjD/4z4L8vj3P88Z9TjV8fhNovAddDywL9Z9rK+Zbne1ZtV3TU6qmdbHlIAVWH3lA6F4lzMpoT0LO2vu7kQTFOD9sprOm5oluTbShgWC/BE6PBFiYoIg9AE6+8SF0W9F6DHvvlqmxZmbxy3RA9hH/9Ce0w13p4zA8j6H6YVd7FT5ioAe8iLLIVRpKSNt1a+eGbvVT61amsXRjOyeL+TCo6pBiCuSAapebmqhNZWaQlqAnV0kzu8Plbz3RbYa1X5VIf6+KXYMp2qTCp4TYx1fKU2jhiFyRM4xf/u0ba3tYFpYpSEp9npenkzNKsKGjxaOA8xiC4g7AIURKiIxit8NClA0bfiYDMTowgGRtBIXKq1J6l2C8Yxtn9awgmVUICy1c2lXtsdDd3dg0FBs86lZf6Jc39inMP36uGZHhGp3wLLWXlt5NuvyyBEtjiwSnWs5ZrIu8QAeLQvYSWJQc098mYMoT5qfc1xiQx34rKLHyiJeMw0oUR2Cz2PnEVQzGgWanGbJ7xb4/vpwJ6z8vxzgE5eHIt0hMZElGn0A3zw4S6Ujo/g/uee7VvLaSjWT00PshNOYHTW7WnIs1AXhQjIEzezzUt+luJmYpWKmw8VoOYyuqMgpEkAnwVOz0IiI5+7QVx87F2jnhxPN4g8SzOj8abC+v+nyH4WZ5igptrSBxBAGLBHl/ciGvsS/kZHeXVX6JsFcXYSFvHLwGz91fzFo8NWxaM4KOsvXLAxxKFp24FYrIRTNSsDrDzmu98oRlGCgBJnZCqFxOVVilpiitSSlyN5IlRVjxCwY63Mxs6a6ntyXDxqfLsPsjenbEPaDI4yaRFmpxuZeEVYaIJTOifX45aCbt8XzjCJJcn9fVHb0Ly3MqQtDRPwXEFOooD5TUVlpSd9x9qt6vsbaW1rxlqepuShWyBqKKiZLSnB9twlx0RDSXfT9uFS1xMzPgVJt6X7lrb0j/bQX2kYdwYYLaM+WLhnjIgDn5C+NZ0bHHvWvsjKlPLE5s+jZpJu1DBjOsjC0yN8KFL9UhUqxc1k0wqU+0sJsQrWlnx+snRd4mbHkc7Gdefixpa+qr+ShMykOACeCg9eWmEaZ58a0LlkW5CoV3A0TSB+r2/NWjNaG/7lDFFhxUTqc2pxKPaPKZipBwqwwOq3Zd3f1KTSV8xsVL5HETeosbly7FjLB5Ie0rNDHZSwWBlTxludBc5EGJuVjktXhLS4aLZlQ/btzWnOe4VMsz4YNASxiEBxWI8BzsU2WX5cSUS9/ehrIyBbso04MpRBzoaATHd61PdYUiFyRU0YXte2hv9WkEr535bxT7mxyg5pYVYEXgZ+vR7FxnWeyim7c93UlakSOQXkIi2u/D4/GHN+xurEqLBixq4Y5+gQkWUXljbm6jAAtdM17kPcpUH5J0LLQOZ3lAEILb84AdEP95SBQ3jKqNZHPXEHnQCysI00/UiLRZzs9swHEk+uKUqqQw3WOgG+oTLi+vxxb/vaC/fS1FuNAVZhg+xJQmrERJ6eKLO1/cSBqDXkNYWAafx0Yy+5GwjLLloRBBJk9xQLyUXJjTao6ckiIG1R+J9JaXrE9qKpYGyX0PAiaAusvVUnDNQbAu/8VJFzZAbRVti0QWjDYLK25J8pVXrFh4bq9utUUFNpiHzcU1SSygzxbmL1YCLvQ9bi6mKEZKF525stDc8xLrnyNtxbOrqEm8bnDFsY0T9YxzeS+madGMAt16nFggL9y0WOvR1PTu2vIN5CNlSo2zp4KAXfnamt1YWPoSJ3LxuxiqGWvnFLMi48QmdHVdSwImiTn0cBQt+cJ1du+GV7dUh2e1G8r6ciUUggZF+Rwb9BQNNwFj/Gdhuw9RqqqhTs15YVtlycxzul56qdhCRdz+YfHVvT0fqcuIUigs2Jme/4qNKohEONhGBttUKcIsCW+8+uWWHbgnt6mSvVRLfvhvxoxmTkajJRcloh9IeVSNKE1nblq2LB7izsagrai1S+GiHXPVvo17F5ibzmoNKd9hrD+Meh4Bwg4CERckYX8yyLTBbDHJUPkcH2yG+U8vPxsm2hCMdJzTrPOM9j2GcccC6415V7at301aiqmpJDFALnmLkzii2ezHbQ6MwXuvTAeWNP/GML8IixzDmZjeNlUxYzVBQJakspCC5UdimhXVj6W8hVTyoRxDHMBwvjzSBIHlXpVWVco+9vpnH7macMDoomot4qAdw5EKr8/OvnLr7lJlUZehvFiGkyli8j7OJwFdEBJoMnaQBwsa3/WZ6Yug902w8gqN0cFo13YIEx51HY7atZ0Rbd452Vfkjn2koZg2FWlk8nn6yN2/vaom6Z6YhuaEuMu69mn3co7804eDrl7JlMEzV1b6GKG1LvN2E5LPwTAZWHbLpbeEr3qmeXN5t3kM3APQLSq8tmTn6JNfKUDFjW7V9jLxxqLEq6dwwhLQSUcwiA5BKhAobFF+5a4umXmVYTqfKbfE7BKIBUJqqcIwclJwsixbIz/7BzgE7ROLB3iD+TjYduHT0FTuXMi9rhCp8Kyph+44N73xf713GuEibJEnjh2CvMAfPROb8UpVypmFXZqJO/AGjI4Vq7cdJVET27vjvHNOXL7y7l7yGLj6pFhGCPAYEjMSfox2Fhym4KrXdoOocSCTlQKVANeDsBp6xUlPNMz7GLkJmyNQj/9gNcQCe9prGbsFZUly088X5l47ozOqX7g3pD2Q0tQ9OqYZMdeoY5m4DmNfgwsG845SuuQ3nGJgnKLAbaChO9UrkS+kYNSjip27w9aPWiPG4rPNzQsoVMABPyHOgYTGJO7B6Aryvn9Oz2N1Z15Xk3VnYToNuEl6cIkF4R+6QTsKeU2XhB6nUDVzvW2+nKxvmXg4JM/x+8PM8y+Zsm3fI3ZPlt1DwKMI1AqwQWKdsKupiTJlz6NzZkyPt6zsk/Q8OWPyhS5DbyzQJHfVNZaelO6cqzrugpBlzolgIzeopWMwTo7AEoMw0qBQLNVyc4arbO8NO++4ivaC5oSffq428sKndqxLk3AwfT/NOCaFyeNlxcqeZ/WTm8tT5jE4CRZtGao0wCTrUOJz7XBpSOuYVnXJ4k1rHvVliKgKBMtTYb+/5Xvhiv/+yZuVrT1TTaGhO+xfwxMgbURtQjMY2yZGvtW054+fGYuR0mD0kyHc7MzvIgvz/bR6fnmsSotkOxPw1CBKrqIkl+2yMss713cX5uM1BZX2qjzC7sCHY/Db5+Gq6jO+Oq0j90Uc6MnBEVwswSVqqrxg4QgboXWUqH9ckHxtDhsThdrH1CdYvEHGkLktx55z57R3Om/tVCwTe4bAsRhc8gkDRHbRihnVxa5jak6/4o01LxceVhkcxqFDInMY4crAuEa5peVKGll9zDoQEh5AIBsVChN3KjxU3gPfDfq3z7sHJ519yjHtvZtCuRxGI579ul8ljwJxQd1RuNgNavti6t+em9r4n77s+OD3w7kC+5Eu57nQ85fNqXx984tady+sPs7jegNp/6Xgvr0heVu5/vw5iU3zWbF5ggatzOBwDw0SaWLO2/Pft+UFDTfHDY2kD8QwPMZZUzprTX2vtahX2laIr8QzWQBmCihh9GvHFF1Lu+rjZ4hNF3G0e+BCmf2UEYWKBJ733Mr1vZXhpyOwxUAURxQyBc1J2Cx6Gl3ixISYt6rujC8CjztWhvxQeUya+BdHpfHP/z3U98ciH7tA0OWsrjr1sw29DoTKhjNU0Uks/geaKAPc+ErFBSIafkzgnBs8EMl+gsWHLY2N8p5dWXaPW4LuGXv/EZj/ZlDC5cOEr0zvFpZb3Zv+6qMNCxbSeeiPbA4k9r3fB3OAXRB59tDEs+aVpexv9GCUAY8/Rtl0hhycf7R3ABuneyo6XDO9PUJ9nPA4ADoQ7kGC1djiZWr9wk0rOirDW0M8uEtT+va49gXsQEAj/Q21Cq2oOhEcaVfe1bPinjkXVNBrTJthpDD/Ut4jj2gTx2cuK61KJH8ZyfIMLnr9PT0QdF0RLOwiqwyDTCuk/MdCsakDskvPwUEifJBgMdM9c+YYy5cvz7nV1XdHohER4sYhSBy3BpVYaFLDwDf8aSlFMWtT5uSZb+z9NXFwZIXnwfOGwN8FibzxR58Xbd/0vxNT2lScdMr5wEAbZKHE4NpFXRk9COhLhyL/SjbePoBQ8f5BgsWbN673DgDPzTnn3t21kTZoFQM+eG8GkxkCTYhOxz/VVY1ehOJP7LUbmytP+2EeBbvy94TrYH6TJ7Lu1lSc/oP6hLigR5iInlUDdS0QrS8gFDAIFVxEOCU3pP58ce+G1k1iZig+iL7x3yOMvgSqaUQbTT+Jd4na6u+Fo5iwcDgP5tVxoRT3vTSCi36JIRmEytZgW5O7nRuaq8+M47ndAlWLB/1Z8eMvPCnNXvdjP1l9xpfrE9ZNCTlHGay/yucxeynWDCqAqjDUoTid2Uj4R3y+UmzCDNjAaUDBYtY5wtNaiUULvttVHWvFJA+0FnvDYOs4TzSIz/9ThJZyM3Z9InPb6to5n27C9A8ZiXzBIh6YH+P6LnlAXpAnT9Wefuvk7sztSZf7u3pxVugGA6efI0sKCWJerDCmTR3Nvv/sxEtvUvHEB9FWJGJQwQI890XYWpd9P57I1VR/zYhhzh4bifAlPAss+bD8b8/Rb6iWlXPqOrPfaqk969YmL7zlL7pbpFBhtx6VvGipPeNTVd3pO3EMMxq63C6xj32BVQwAUUzzTMeYAIGKrrM9Z6U/Txy+4uH1QGlQwWLms/K21qI//eF7HZXRN3BUhgEHBo3qoiRyh8Y8pBdeY03J2Tmnvit15xPVc27HMxkd8Jc4WmSZUX5MFQl7VfXs+KSu3L/BTOd0G2+TbUVLBI76sGtgtud0jgR3pPN+s0OKwSEFCzDd5kaEfCBKMDex/jNqOTbmw7kcHHRSC3oRmMGVi5QyaJihw0hwwyhKxrLtqZ2ZL7dUzL6XNzkS+kvyc7Gs/ujvKQxqjukwb0tZJjbmg5emyEKFKqCBa3Mxyl5hP7fh9JJvsQ7gNxvUtuJzpiFJBSqcLcZee9y5v5nw9t7LexGvh1rHypdDCq2HYRSfHnSXu5jYESWk7ysVzWtPq7jis2vX9rDV5AtYXCJGQf8oX1VQRun8/Cx8e0u37Pz1pG6lkYY6BKroAxoy1RMOxcamJVqXMBfOF1vWHTgnOFgZD6ex8u/FZeX1Tj/xE211Ma4iQpgSe9/iihYLhiE0u0U96VpmXY/ZdO6GjtcfbpgrPfQk6t3YNbJMLBs96izr0jd2vDYRQtUNPxU4zti1ISkE5BtRIu48ApMh3EmhPkChIl0DRYAMhGRIgqWIuFy+fvFj923P1FT/31K4HxwX7ge5jH0gsMHd42Yl7CAx4jFSmFesTLkNDe3JtatrZn8BT2SICrUXmFFUZgdXosEhsQwsC7s+lu2p6jO+1NCRXFvTq0yCU9LErcD9VIXUUKCYpH8dvQS23jSSwty3RXTfxPuv5s895PXh0rAqA4jlDPq6qXMfr9neewGiEzHWLV5h+wtKzeVJDr5ttAYV+x4oO8rcZ1srS2740LYXNrGgtEfyCzQOV+7x9lwB7bpP+2+OO/e06vbuexsS1vxezKPCfYxRf7Ae9YEYQB7zT5XOAgch5EKFlrzobPHm40PtAn24Q9JYfmYh4vIyNeXY6zqqtF7u6ELDvv95sFeUel/y+Z0XLtp7ogtdY0PCPXvavuTGJ+pmfe3OBQuifsWQCQWv4nLcJvilJK0uab9n6Y2xJyac+c0puzv/VJ/Ize+GN526eqyEinzlKi10t7kK2Dq9qnsnhYpadKhdoM9pv97834f9pm8LbgjzqennXlm7q/uX2WQG7ofgQ5gHI4QOO99baimKpbsOVtroorVE3ZEqNeIX7N3wY/9darDdYr0dZ186jhLoUSdhTaXfEBBBojyK+P+KnnS8ttedhO6HnT9j1RFPxeY0dgkLaKxSGc4ktmwWp57MbhkUyCHocKgYtmAReDNCcZrgqFtdP+e7k/emP9krHJwoJY/b69MwwyFiOHnJZv6RcM/twT4C+4pjniwEX+HemPtqqjR2x8UfX/ozEY/LYTHpFaIR/8Z+pYxfNtAMkpepXPZO3sn78bj+2A9/d3VJd+ZzdSnnJBMDPqwA5I45XJQguwKvnD6UYL/JRybi8JLCLhdrxRgrpc+ZK17dUBjH7ucaync/zKHkzuchk/CipOuZCbPX1u1LL0zABYHlUkU1Lg8k0WOMZ2pimQNWYiH8hqMmnLCSiGlvJUvCP9hZVfPTa157dLf/bnNeyFZjGXi8yJoM8NUlcjFwC9Y25oUJhDxwysWTJra3Xl2SMT+OdX/H27bFU2gpbDRNhmme4I0RJ6/6bUTawPMNLala5TI+LnftmWLLA+wCOTIdCfgRCRYRcehJNfngvL+qmfLGm5tKu816tDZMVBcnHPbwhWNRKGo4DQFzT9yAAxGwYl9MJHMR46F0NPazdWee+mT8oXtTPizklqtp+Lsgbp0/CWg4ScbU+fHyfPFA7cjtm5a+/XaTnstdbaTdy+vSbomJLo9L4ZB9jAWqUOvzmstO3VyNq4S6hPj32eL1W1zYfgpivYbDhMK8IxYsAqHhSaPusckLZ9d2dvxRhT+AtUp1WohkrK59afCQMzhRsXUMMLDiGWfUaKIz7O6yQ6EnFCP8u3dKI89cvaVlx0C0MYab51dz5U4jMrTkM/GaqSX/2Yg64WkbB8Z7y8f4+MVJ5zRUdPcsLM0pl+k5+6KqrDPZQEfHRa3gE0bUXO9XrFVQPhWDf5Nf3FtIc3XsheoibMl9FEJ1Cd9go4Nw+CwdHMggT0YlWITpq8snp86/YsKuxK8tG3M+IAh/cE34WmQQ7EW8TY5AwPFJU9/BFIiDxYEaTovCBhY4pjFhiHTOQNyHoT2PY+9eaA/rr/ZUh9659qTJ7QKx/8MiDcb3z09qqolm0tOqkpkZ2L1wLrYDmRe2nFNLTSVmoN3nMAGGQDzA1dhna3K+Ckg8OoeFbcSZC3FRS3H8RwEvwcZWaWH9qVM0nEVFgXzSrTRiRHhx1IJF5L5wramYfeOEXuuetJ1BRcoomz4DdDREDvddMtBnYqFoQ9Cx/lRqVOgwVw+BtdxsjidW9YTQJyluDxY178xqyl7sMbE3Go1sd61cysyYDmd84azFPCk0TAT7iehKJJcxp8AzOynsKHXY2XMq2nh5OewBbnnNHQy5kSwkCTvOSCHnVEWfJvfpCqQChsUgjzMULOA2MV0DoXL2ZIUya754vd3vhYYFcoDMgZXLJ+jp+jmfm9Bufj1lYSW1gipD4wwMyQAFGMUtalXUuRcZC4HhoYrYbpa1z9bMCVhP5/mH1WkUK/zjRDkTy8VrubO8dw/OTAWNiklGHVCQxl3583Rjd0FFx/bSaewvfeZZuc2v+wpCkj/Kj0DrHOyWk9VPxWb8v8kp+5+xigOtlUFoksmjJLW4r3vtmIRieCl7cmmPQ8A8TxKfe62cn0xeR4+ZB+4awlsK5mHkDGqgTJW4gvnwmwNMdSuMlTyYOclawjl7nngz8D27AuUBCJcMxofzVHTmNyennX/yZuPlphSoKb9SgmFU0FA8xnuF8D89mvvZxDzeL0/g+p8ETc3o4fXT6pkGVJ+4hy0rhYE9YbNlIrxguvjThiA1lU91X5/v3xjNN5jMskjDfXF602d3x9yvlasanX3sHfIdyWgwFPddCokvKBQbT3SIUxZLfnudYf+Twqe8Hn/J06w8GBjN2sRWS0ZaEXC5OPMpVCuwIGKkvqpDldXn46HyDPsZqkHWET6cZ+rnfr62PfW1pIXTgUQIQsfhNSvqvTQWHGCYBNwJ6NLtHCaVQ9hkdjc282qcncUeCqNwgB6O9qIIFpHmhYvDVvvpitNvqu4xf2Ah8sNWNAs6jTbye2kMOMBoXOzAlKvEfvcJYb/cJdzzm8TmtmIKFYsVaFdYyCcIFC12DO8b9UXdf7pnT0PVlamSkAhj0hjjJEwTeDJN3eX/Fb7/3vXwOTAAH2GC6Fa1UEKI53q4S0yaQ6FinRSj+yuk2KvdwjtFuPZbx5PHLJoTS3Q/WtVl1cB3ksMMPrxHZIeXxoQYH9m78NsXLMYtw+1h4RuRH6pAkMBXzhSv38Yij3RSebjsGrO69IVrxRnL6o7Z+eZDE/al59MdQZsLxaXzUIrYmBE0XE6N8/zkn2emS396rgT2VC/G4Y5q3zDX3vJjPCdr6VPz3GxFLs+Y1qPvRGWZnmyYf9fERPJmqxcnvCAyAlZ93+KMMSWqyAweC/CeUMmGCVvdFRWYukoI93Vb6P9njtj4Mvl+4KR4sekqmo01EOGch/IXP5y367m/b22o/XCqKpqKyl0DsVIO+y5RqMioMWlWAxF5lNwjj7y/vDtB+qcUjStq2lT3rl+LD8+kULGnIN/BV2Yfs3RElANKiHAVoTVhHq258SNTQm9t+a+6tt7z0inMrikaZ0g43QbdPaa8GDOmjwQROUEtQL4wipa2AysPU0/YhNgVlVJL2TsRe3r9XIQT41Ff9AmvxzodEcHyC+mHOfP36vc1/n24rftfazrS0aSwoNI1GKAq7E9Gfb+XfA5QsChg4AnDgpwSzPfR9ZkT6k9bReYTF4q3uqmluAQeeY5YyzzidcauERvDStcEtZex9e3vVLYlr9R7MgiCc01XhXDxnKP3kpQSChQ6PxtT+0YJuNap2C/mNPszC6wtLWSRC3tKQdd3pNl1xAXLZ4A/auTv5tMuuyS6Z88d1T3ZU810DtEDqunw/HCeeJtvhCTcnxT2YbxbvqlmCivGKyd7QdfBWj/dwNgu6bpbMOaDG2HzAyw3DfTVYxBuPVQeF9I/1HeKls8VcSw2iKtNXriuWHNy0416V9eXarqtKbl0BjG8cKwqmmbjiBHEU4EO+pXH98T2UJnlC5P/zfe8awZNYPcgRHjyFAjsH7YLLoQfnuls+QrvIw++lmGGY5jBiUMlbIT5QNT4S9yIpKnFU+fx6+6LNL5w/82x9q5PV3dZDblMjgF0lo3zNjCGRCTmuCzCaJkK74uCZVeuwlEevMgC7oN2RLd97S1H+/flYhPCCSl446PbG6iw47pWCgVsxa13Ric88vANRnfnLTVd5nQ1bWGKnmHQKvfJpwI7Ku0wX0PxG0naT1gvY0RkOLwGr7m1HqPjuxURffAM8RLWOnjd3lj7pYh3OGlcCxYLQlXPQx0LFneqLTMvulLr7ro52pNurEo4WJxgwQ7DqV0Is0Ml4DAuCpnn38nDkDw5Eu4Lr6Mu7K7Jci/sJs9834OgIQZBieIptyfHOsmHDaHfPVNs+oMkXr7ViMn7I7c20qdjKN/jXrD8QlDAWgqOhOP9x+ZeNju0r+PaSCr3ofKMOTXcw+VUMlQYYdHsJOVW99Ll40WCskL7Bc6HXaxvTwv1OTClOIHhEBr6nuRiBg2RnAqWqkH72iKnKG/Bg/BLzdF+jNUym0kXyy3kmY5Hh0D5vDxqBMsnGN/c70BDV0A/IVu7uO+6eGTa+rXnae0dy0OZ3IXlpmiI9ThYFWNB0JhFQYi07ClZXo4sZbnlBwEUNUnxgpFNbSo3MpMrhThRnARtiCHaDAp/ilVEDyXF5I30kpMcvIUsy/DG+DLKh8qqseHtUKkZZj76wHigkl8ZfD2OjTUWvbN1Yaij+1KRSTVFTGdWRQ5LhrBhJ5dB0OpFzUXmhAUAAAHGSURBVKG3lAdeyllZGsn4j5GVFIK8lpCqYlCKvJzeYzDR/0m4+M94edn9wTGg4MxDrFmCiNDVmxH2XqzkexkC9T9YiPb8w+Kt1+L5UTChodFwXq+v0XgYjr7Po1qwfHazJsUy7IuwsmBfhPzDFfMuOq6+NTlXZDLnqFnrrLBln6TZoqYEu01w8SjdFZ7nWmo2XMtEAYGWwecBiXeoefoZJ9fwYNcIb2UPIxi5uof/snBV9sodTNx3MLq4XcmIt7vLnE1NPZvbCsG6EKaVooV7jBL9wUgLMx8l1/38OUoIPhyZqJWCo+EOtkv+t/G6SrF96wlVZnaGamdOdnR1hpG0GnTTPRa7BmFNqxpWTDscwYSIxlEAqrqPSbzIVzvXInKjLuxGIrBPdc6x3Yyq6omsZr/jxkLblay9KR3SX+0Qoddfr5765/imldJFQPoBQoO9iOPo3l3CVFg3fTwrvPluuo7DploiN+aACXyILuY35/xNmW12hhQ1Xda9dWdNSdotw/G9aswyIS84i17j3JIQYaxqTWPpYFJ37ST6VCsUyYWnTt7TpSc7M3YsfdP6h/r2hijkYzOC7hrFMsjUkT3XsJCmYl7/f5LHwhHAhLD4AAAAAElFTkSuQmCC;" parent="1" vertex="1">
          <mxGeometry x="470" y="93.66999999999997" width="70" height="70" as="geometry" />
        </mxCell>
        <mxCell id="bJyrGBfYhx52CG3j51wn-10" value="" style="group" parent="1" vertex="1" connectable="0">
          <mxGeometry x="110" y="210" width="90" height="90" as="geometry" />
        </mxCell>
        <mxCell id="bJyrGBfYhx52CG3j51wn-4" value="Google Compute Engine (GCP)&lt;br&gt;&lt;br&gt;GCP VM" style="whiteSpace=wrap;html=1;aspect=fixed;align=left;verticalAlign=top;" parent="bJyrGBfYhx52CG3j51wn-10" vertex="1">
          <mxGeometry width="89.25619834710743" height="89.25619834710743" as="geometry" />
        </mxCell>
        <mxCell id="bJyrGBfYhx52CG3j51wn-7" value="" style="shape=image;verticalLabelPosition=bottom;labelBackgroundColor=#ffffff;verticalAlign=top;aspect=fixed;imageAspect=0;image=data:image/png,iVBORw0KGgoAAAANSUhEUgAAAIcAAABvCAYAAADG8NPlAAAAAXNSR0IArs4c6QAAAIRlWElmTU0AKgAAAAgABQESAAMAAAABAAEAAAEaAAUAAAABAAAASgEbAAUAAAABAAAAUgEoAAMAAAABAAIAAIdpAAQAAAABAAAAWgAAAAAAAABIAAAAAQAAAEgAAAABAAOgAQADAAAAAQABAACgAgAEAAAAAQAAAIegAwAEAAAAAQAAAG8AAAAAMaJFMQAAAAlwSFlzAAALEwAACxMBAJqcGAAAAVlpVFh0WE1MOmNvbS5hZG9iZS54bXAAAAAAADx4OnhtcG1ldGEgeG1sbnM6eD0iYWRvYmU6bnM6bWV0YS8iIHg6eG1wdGs9IlhNUCBDb3JlIDYuMC4wIj4KICAgPHJkZjpSREYgeG1sbnM6cmRmPSJodHRwOi8vd3d3LnczLm9yZy8xOTk5LzAyLzIyLXJkZi1zeW50YXgtbnMjIj4KICAgICAgPHJkZjpEZXNjcmlwdGlvbiByZGY6YWJvdXQ9IiIKICAgICAgICAgICAgeG1sbnM6dGlmZj0iaHR0cDovL25zLmFkb2JlLmNvbS90aWZmLzEuMC8iPgogICAgICAgICA8dGlmZjpPcmllbnRhdGlvbj4xPC90aWZmOk9yaWVudGF0aW9uPgogICAgICA8L3JkZjpEZXNjcmlwdGlvbj4KICAgPC9yZGY6UkRGPgo8L3g6eG1wbWV0YT4KGV7hBwAAIr9JREFUeAHtXQl0HMWZrqruHmlmJB+AsHFgw7GY2E4IINlADGFkySQcCacMIcnbxybheAsJJJwGnofDmJC8TTZkubKb5OVYEgsCvHDEtmSNMWDAVghJzE3CDbZ8SpoZzfRR+/3V07Isa0Zz9IwkmHpvpme66/zrq///66+/qhmrhioFqhSoUqBKgSoFqhSoUqBKgSoFxpACfAzLHpOiJWPUZt7e1sbbqAY9PYoG3X19u9Gisb5exvA40tAg2Zx2yaJMIgKSf3zCbgT5KDZbRplgsYhQbYvEHB5lTrHtJGDFIhEtQhkQaNrbnY8yYD5y4FCcoa1NEEfgsZg1HAiysdHYVq9PcwJsmjTZNKHbezMpJtvMCXLJDPy2uWBpMIl+h8lt3OE9XMpNmiY/3Kuje+ce+bW1aYr7xAA8Vjzwhuc7Hv5/ZMCxHJ3UNgIgNi1oPIRz0SSZnCcYPxzgOQSEn6ZzHqoRgmmggODclTV4QHJDfaRUPW3hmrQdG7e3c87fchz5ihBivcPt9dyse2HfWKwfz1SQu4BiI1vKZkKHCQ+OrkhE7wGLX9TeTh3IiDNsmWrMZ9L6kmS8BbfmTNI1XQMATHS06eAjHYYLdZ4SC/RjaGfiv0cXuiIlE5Q+IDgzCEj4ADAs5TgfooxnhWSPmMJeOaOj+23EV0GiXmyCcxOPCF6bJsw1Q/zBEbqped5nmSa/hi4/K6SJg2rBFQYchw2gExGszDAmFsERR3V6AY1VyZEImMpwBM6EwbgIauBHyGinZQ8ANau5w34zkNQeOmDduiTlP5FBMuHAoVj3EEXww4VNX9YcfilGc+tkXWMJd0QTIvCRUERp4Kv+o77yNSBnqCUKMNB6mR5G+VRYn2W/i6nNLzkP3NWw6qn3qdAN4GiN3d0Wnmdw6mtVypLZhAEHKCpYJCI8JXNzy9Fno/8X1+nakZkOIaKTaKGZCX0qHWiqa1MlIH70sKax7aaVwN//4bpzW8OK7g+oQsRJvDbQ//EcJgQ4hhJ0c8u840Hi26FHHEPKIjiF0jVAZG3cEBocBTMfG5zFmKzrbBtAAqX39n2mxpfx9o3pLgAkMgH0kXENDoxCZVdoxpR05xeO3Stl2f8ZFPzfoBeyuO3QNJXqP35AsSc6iZtYEHkACXES+02HO5dN79jwMEUdCvo9k479nXELDtIteGYGsnnhvDbuyLsnG/peO0wTugTG5fgGxfCepfpamDobBpANYP/fDoNffOjjz/bS7Ip3d5vDE4yH/+MSHKS8NYFgBJCe7W/+bJKmnU9TR0xFiYjGeCBcMXUAsZVOMsXQtR2m9YHNxFf363y2i2w0L7a3w5g7voxo4w4c3kja/sVjDrRM59EphjYbih2JkLFSNIvBwWhpTOIiRPy0Y1+9T+eG2ynB8rbl2qL2RZ4ONVoeZX8+rsDhyeBtUDotJh8Na6I+4Thp6J2BslOi8gUABFJMDdTyHWnnNw2dT3+dqhCNSj0a5XuY/StfvTLN/4tpiAeMLQuP/rom5a8oD4gRIpJeTH7jPw2ZaA0ppGlP5hv1e45Y8/dLD5p7KruEv9V4jzS6L+RjroeMC87hAWPTgnkXTTLEXf2WTZYiYq/jeSZSAv4ADA77Kliiln6GLW960rztX+YbsxL9PbZhzF91Ve1r4wEgY2Es2o2oHjC2tM69mIAB6yJIphSzjwUw2pvWsounH0PAMC0j1GCb1vrmm3sPI87ReMGGMVW+xxQcSvmEDQOGrW/UadqdBAxYLmjaN6b12g29vv7ZnWMQMC6adiw7xUzAR4AbjpU0NSM0mQuxJnJ7//Tue5vMSLRrzMTqmIkVb1ayteXohbpgK7HCSRoQrVV8PIDRCGBMBzBgYU/CgWRIMLVA2LDT8Vf0QH/jyiunx6GkCiiptF5U0bBbrSpVchetL8COsaX1mFlwsvkjCRKglBSNMalP+du9O8e4PzswqCqGk06kjWD4MNuse4huRKPETcnYWtlQ8c6ApUeQOfzDEw8PS+k8jiXvGqyR0JL6x0LHuL/xCXYhOMbJe3KMwZ4HlAJWMpHWg+HWBUv7byOLcCRaefpUHBztG9vUCNDswG8mG9onYfmkKVul5apaQUW5NFX2PjQ7Uh9UUN3DlepmK3GHH4WH4RyDgPE5BYyB3UXJHlkTQMxE3NZrwlcvuCVxRgy2jwhsIHtELOONirIqzyxOMxOsVt4JE7IJjlEpjZwUXep8jhVSrXaIV5eEWKOH5MlD3h80YpRXEKEEz0gfSjtSLaLhERy/8hnFHjAQOb2OPQCOcUGewEAZXnC4Zghpm3BRDB/auZhvraT+UTEk0vpBU3u7uaN17sFAxH/tNGEDrQDHQP/SeoaEzyh8LIROWh1mRfGEw15mUm4Ex34Nt94Tkm93BE9LW5I3YAhQ2Rcq0MGIMxPPPwP3wBnwHTEIKHAToGzoQ6JwhAG2Cxg6gEGipAhgIGsA0TZNiJepdrL/Hvw/e+PskcqjqP6HERrmfyGUI+katC1gc+u8FZM0cWKvZZfb+qk6EO6Cei1c+cCltoItPCqYfFhy65mGVc8rD618Wvv+lxpDgYSYA5CdhM9pWBc5ijgPXAMp+bB2DAfGGgBjfl6iJEddLL02rDsDyXM6rgstJ/FCYiZHfF8eVQQcnqGrp6Xp3Em6fh+IOoygvrRlMBM0ytQFN0LwI91pOS9BMvykJhj4/ZRHn9zuRUIn79qDgpsxfGgDUyyzySmC/yqMsNdl08Km+cLhF+P5V+vhpwGgK3GFIQAGRJZPsETFMXwBBlXDEXqNcKzUW3ub4ZntUU5bJ9BM5bqgqlmOr7KDgzoBhUjZNifQsy38So1gB6YcuH+7ot3vNilvcvh9aDssi9zyrtu3Y/0vvEIIpDH8WQMvrKgrFrxHOa/UBuyQE7T1AR7lg07NW5vnzrEFuxEugWdZaFLKEaTAGjpM4g80rmHf2g8cAwau0ZTPnIXvemgaobBhJfuXdC6uv6kS3KP84Mj4TPa0zr1iiq7/AMvvioC72uzbLwvbBzC+OHQC+b98wLi84amn+ih3AsXQTi21RG9/iucL2tM67xQA6C6074B4/9PWA40x7ZszjuM+AkM1A3o0WIUTNyQ7dMV14Q8YjGOsjMaxsk5lFdeATaNn/vx6sPYraEEN6pTv9gwg3MR2BB3GtGRS2qft2/ncNwkYNDsiqlInEvcqFRReevJQozxJySbgNXQ892jP1JNnJ/qfvn/FMc/o3/zE5/kpVtL2iWMMFiuhnRrBUNhk8jt0s/H9bt9p6RVG17JyDiIcEbGnZe734P30w5xTV6oJfdx5pNuV1J3Du9SL51VeMqteaHqv5bwuHf2L01Y//UaltwF4U3RUie1zW+rcI23rPkdoTDpKY/WzAyXH9irp2DtMLmeuXVzfA4FNu6yGU4mqUnIoG+dAbdVeVQIIfl9M+0lw3Z1QVDpNpukumIrERnf5IeYT7+DzPj4Q8bIXz+Luh37LLbhHz94VzPlA2LV9AEbC/rN+sN1EwPhn9MBacjEEhspCMNRkj6BcGgHrLiySbbmm5nfovROYY6e5UBtZ1JRmj0TF3SBgkO4xJcDEtyiLyI3DaFpcviOmonFYltAFUDSDa9D+knqdt0OkkIlcV9yBwIA/Mo7id+IDISqmw6Nyf4tp00wmpqaZVm8yHrQY1zCxEaS/IkDdlLbOZAqfPt3hvbUitVV/jx+UPm7q5S+/qeLgCyIMiiPTblzDnCimz979SlzbojJAs4kFN/ct4LrRCVGAOYUk+5pfAxEzl1rMXAZeWb04PMvlGuWZuZTNCKbOtVC94fy7Yg0EQw0kSqODN4NONXB0+VSaGYclmXFAP9Om9jERijOuK73E7UdEd4OH4cwN9y9UT5XN3szW1lkdNS9Kbq+UnP+Jc/MFPFJ2ANkFQAIkZGPJZFbWCwFDAeQGvrp5afKreiD0W6yw+lkmAcPGyu1hrbfGT+xgbEXbcibaFynrr5/llEfn8Axem2ANha35ZRjIDTmAAd0juDjAZsa8OKs5bDvTG2CXqsHkBX0uHbATB6ChHYyDYRAdg3fcHy466KmAuNUI4gH8w9XB/ATDtBs74X8lBoz7+Mn9PZRG3oNaXEB7SCojbjxPrlYsnGnB8NVmMu7nLE0ZxayB+O9WX1f3FfL5iEWb1WCgtvoVvCHpV34qH08R3Xzy3O9MkfqPt7/jWOJAS685oReg2MS0SaRIoMMsTCYUGDIgKF6vogwcdDxWQGBnqMU/ZG33sZ1guD83Lf1HoS8k31FlgpPwZper0P/yBWL1FLhsWdq/XgTCTeAgpH+QUC01QDHVoX9Y2zh3ZnYunrS1HIrp0GFaaoUH07c3xNze/kCcZSYlq/3Kdj7poldYaN5rTNTFmTRr8Am48cmHhUBRPDAoH+oI+CW7i3jWALOtPmbBQDpZr2eXB3TrFbMjsFQ+zYIEDBI1Si9xa1Cmb1pmjykgYKXvAogCqiVtyc+MhJKKJcWUuMdeaPbxlFPjvUq1LynT4Yl9BwdEir6ondmPsUtr9OOT/1JzyRssfNyrQoSSUCRrMJxBLw8Qw2vj33/qFJ0mSFYvo5lLUJ8kF9uJwCtWR+B0AgiJly7SR8oYiNU3XiCNjmvDz2OU32XUhgkaPs1eXIxhJedMakI3RGZbm/SDKw1SxFexQiPSY9mpFaGbtUDiajTBwEZAXGg+7segGax7IT+oYEuH7qPETYL9XJtiXsSbsPthA85jwbWQzAqKm7FiRr6f2F9Yzqs4ZSjoTl580fcy4sW+Y/V14W9Tvfw0q/sGDo/IsquhzrJ3/EGfxBbavYqHusAoiKJlikwnOUEvQd10cJSXdE18mTenXvfqXqZSBztswa3xO/Xa0MVWMk7Ko19cS8LuweE5tg55n7riu3ybpwyX2h5fxIpH3MRjwf1Ne+dfIOcXEjsHyxs/wCBKkcxHp6BuaSits+CW8VdzVW3E4yClEjNb+oaNrp6BuffP7JTSPfxk/9xKJNJaTehYayDxt5Zbe2eqbQ3YGJWtPvneLxkcHjBSqwNzAgHreSMoD4EyiCVlpRz6xpnybVCe8QLQDy2crxLUDbtL6SEZEZNn+oKitbdzG17CgnQP5jjPaAZ0D2UTLiibrJExCNGeuCn04AwpxQbMjg73AyAlgUPpGETUjpqZmCo8o9Wwfaykkt+ZqUjW9oyHBzq2ZyufLi0gH7RWB04rJweJsCWK1pLLh7HsQsFvBcywse8F1tN6gOWp5u8PqI1RpIMUS+yiwSGX45RGaP39XeHpcPhbowVYnZVSwCiZnRXbmCLSaXD4s2lHLlZrHpKx2uMJIOWYxXiiBQe5dFppYqy+2Dt2b7KUhmOnTGGE6rhlrTnp1r4G8hhrW17cLKYocGC6KjjMtfDADNTYZqcektMnIDA8wmqY8tLBtDCO2H9MrQrMaiZbCNroRfDj2t7umu81PfQiVt7fF1qAnKD8N+kTQMykCa/1aWkpHqO6ty+CWFP+0YW1pDgCZJxcrQ8Cv9Xr5WxswfB0jMJKHyex0UkaRExS24dP1oS8UlXrBH/BAW1YRjGtXXklp4WWV7AoR3LFb9HiUdSwU/G0Hgo1NS/tu5tuFrN6WzA4aI2CuEa607gYwDgbyifZCCaCjuERbo8reiiNGVbQ2grxGDT/Q0WI+GWs2lVcjKQXAkTLq5ltK+UCB6GO9r1YRm3dha239J1F4qVQ/aMgZQUTUzoJ2pRrag+yTfvHjnuwc0F57CLVuPlFwAgA5Gv1FnNBZn2G2uk/y880GXR8h2RKBYKwTTB1Ie6M/Eh2xi7nOwpZgymMc7S7Vj3bdO7QwiyA1U8y5lSmmeWh5C5gPGlGFDBI0S4jMFQzJNtKFqAKhMy+l9C+IpFYRuUVIl7yBoeatkKcwG/iVC0kT7H6FdudyFxDAcPuZ0/oBIwoVnQJGGXwixgOAtiNsdBEdyswrjjT4S4AM7u4KLK0/wg1e8lzDSZvcLBmVwbjSPmbFMOtQLtAPSKhOkIaV9qFT6zejzHncgwAQ1trNlcSGKg/ObSZ2FlHTaFtDmiTH02inEcI7okncA6qhcLDb1Ax2kaIN8KtvMChuAZaAEPRmUaYHUnWReTlpwl4aNWIUpQ/rZySUg+7jvpoeg2kp3sOPa1sUpxiqOqJkif0BZXlGKhvJvBao45O1g/WcI12X9IyddHt8TLNddVhQSXucWbrsviRNLVtw8mFuRLQs7zAQW52FBmekJe5v8rGD11AhJmu4wO5bNomfxs2lL8BkH+BbvUPHGad0INw/qpnOszfxL8KAYknStZA+SQdQ1ZKlBD9IopLYFTp/MWB7f0Pwh6xCn7I79JuG5zHoZNneaY9FN3vYGs1tfB7dminHuuZ4552kKuQUYWDR7z0SqPJMNh69yw338FBHlzMqGcCOgA6W+LQEnG/xsR6pg28D0ssVqtwFy4BSSc4LWA7n4XT8WlIcg5AMhkzDQrETXKNhkFgaAsgSioMDFVD+hq2lQDTy1pdTx4huXMunp4Pl8JJWLWlnXvEFvMbvJTv6AGcw93W4JjOobHopC3D6zI8i9EVygYXCFxj59Hec47OQ0f6aSK3sc9Z47CUABi/tSwRrf1i6vXhFaX/ZK5nLPkeftLnMflE3fVWf2ox0l/GdRiy0oqLjNQmT8dYA1EydsBQjYBTCxbhaK0lBk4CBZGA/wx9YO5emk723wLnYXiOpfBU7cHNBXgkyzt43mNTLBY/Fal+STOXmMt5R8wkJ+cAcjHAgC+MWNsJvKQZ8l9RZ/KJ8AvR5ICjY4PkAAxD5+kt6QepllSeqi2JsyXwElJuIWokcRZF6WShBWhdsMCCtco4Bukf0GvljIw+NBQgLjB62Rq9dYyBMWIXSN7WxsQ/pjLRfa979mjLrfHTcWbIcpzNYcDUPhpHHDHXLDeVY7KdSjzSuTj8JVpzUab1LJFzgyMztSPiGwG2Dp1IuodfwLABDA377Xdogh/Pm9N/p+V/1qheRaF0nCx1Hryt1j9mw/tsEUv3dtTvHWSppwGQmQQQNIw2U7mipI/FNNfAVVEdY7Ci+f6Aeb1xP6bRcnvLsvhc6Hhr4UhcAxdDv+ie8RzLzzE5d0dnRArWGyKMPLozClW+bc0Rj7iBRmCDgrlQAQOLeLQiivt5AYPy5lHMCgEMAtWk1r6tA3bgeLxMazNxIwBjIGP5jI1PjjECdbApmoBx0qWv1XReG14PE/vp0BNUUxXfHCFJgbewv8qiPS97SR5opLRt7dkHe25wYCcmZeBIMT//LqMUowYbFlbY4tklgRPNDbS6y+eoxbtRE44UgUC1cTkL1H+hf7MmtPOornodq8XWhC4DooTSeIr1SOnH273H7zg0NQc75zqvrfuTtFI/wMk+YIQ+HdYCZw/CG5f2MdTunhddnXIkGmQFB5ROTtZCEDUAke91Xdb4I2We5Z6NqagOC+s6sPq7UI4oBRheGXMyHIQvGOi0bH4/8v8zOMYCej6RgOG1Z+MS1+k5EQwvwezlPSzx60BI3lzVy2ekK80MMeyPomcNs7PbirJ39o0ZRE2u/QQy+4R6LxIAN1JhxdyDQWapShfLztYKzrdRzVagzRqX6LVmhNJPRGCodmPnPDkKr/sup7dM3qEF1BK/H+AQsHUAEfIQKieXQpodHJ7PhmbtD8tkAB5TVLHSwAHztx6ArpFkr2lbUn+iynlmefW7xC+a1SiO1xrfxI9jfYorVWCtpMRqZ02OVwbSTIXpjrZcbafE4TToASXqsyYa/QEkCjapMzbjlGVyqoqexREoOzg8+wYTMzCHIFiUjlrKA/ua0IkdSmTRPhdicD4GDyAKJH7U2ce6FZwVndqDjlt5Q/CfINqfcS46Uau0fiCCY+c/iF6f1FLYMcdY1JMSwyqYHRyZiADqPiXyi92LdKHw3O43/f1HAKGPv7mOTW5kqKKSYTp7AYZICqW1Sy3EAXFCN7S0rTjHxo0j9/Co4MDu5PqRk6qKFvqF9Ui0zpFvqoSZ2VChmXwc4wMRbwPwfgUCBzYTc/BxhCyrtKOCAz0Z8BEcglRGXYcRvhoKogAUyESJPGNXecRZsbyt2TYpDFnD6OBgAt3pW8DEFae7Wb5tBfStYuM9I5Ct1rdBCtGijvTWoHzkCHmAw8GxKzlyKOQR4E/KrdDEvpQsllF6C8ni4xuX7+9bP5AKgxkLztSiRT/MZ0em6qjggGa3rUT9eFfJpCSSdc6Rn6abkV1Pqr+yUCCWMXzBknB45sXspWkeSlGHEQXne+Cww14qds6ckWGXHRwRN4FgYlMGHKVVimpBmjIYGRhIM/1lVYVUkSHrV+b4hoXfj8+AA9xRcA6iqNn7LGtGQx5ACrjrNbIfQmUrPYkuKRQc1IcItiPftVWd1HFvdKv4gKV+ygsZR2RH7cHK1qG0kOKz/CinbHzfncZiUfYMOAGFcK4H6X+lDlI1U0E+myKsfpuiX5Ycc6FQgSOZSr+LH1txoibVSt0roUPobZkWufhhf606hZd15/TeKqGoiZ5UcuXfAZMEGO63HeXWUSLXcEmChTfVmW9EYWRz99GOfKpOVnB4lsYppzJ608Brykrqz8KP5rr1Od9OdQRmq53tnnPPRO9PH+vfFnUpjgNfrsKq7EycKUZcI2t/FVA0OAcGOoxqlKaoVVlVWMwd1WAX3RlwlMo5KFtiYjad+Ied7b9WN2jjMhyL6Hc1wCaVOeh24S3xJtDjNpzaQ1Tziz6cXiUEhrTOpXUsK8nzQiIy6lJLQKRQ+hM08taCz8VR6c7A7ylLpX/QWaEf6wCXwQwwIsuSB2JTy2NwBKNhToshftAek09Ns1P9/ThFbwOROsbWZF2ryQkOOh6aMjB14ynspO+DqCL0+sE9KFvy6bCMOrkIx0D+Qe2NuZCZ0a6IHsHHJ2JQOeM+0O57Wp4nFKijsW9JzMO6+nph1DbA0Zjed+YX13AENjehnGfX4pUcVC6cnbOCY6gj7h5EjEYzWwSb4x+iA9fwoDwVh9STVS1nuj0yyn5Dh/4BDiLPsPqNjclVU74RbI49ORhdRkUkFssJ4MG4vvyIMLZmiS855ZtJbAmzozhpFvEdbFPQhZG4Ghi5Bc49DFNX0jP8ojVVScJqjhHPlSN3zNVhigMH5UZe3nSBEnMfLuTS7ncAB5GWHqiZqbOetU890vjY/J2H/XrZ5J0rruXR7TF/lOA864zSWDTPuD5FQ3En3rzjIDh2noE3BVwC5fMg+G7QSxf8HIToQDrrU+jQXxK2zh+m2sdGoe2ocizjFyHlCha2ROA13ZD74aATQptvI9phAfgixu2XUp/i37M/I3pwSpGWMLeBOs+Dpb6MdyT2wBzimnqpVX4HOnNdbMcrPo/R6t+5Qnekrg7d9ruYwfy4g8mCFoSZcgZk9BzcPxw73gwbi05KjJDy6Y+OMVgkfmS2JcR/37m47tx8zksflWWpKS055TSzuNnBfsGCbDHrU6LFF3A4EsAQcfZSepbWvHM2VpekPUOkpamJvbSA1sI10TK0hWX5DTBKARe1FPZKBHFIqV9aVa7KYlhi4KG1ONIYlk9wC2+qSvpWOQLetoDXewjtp5R5w+zIqKWMCg5Vy4xiqgf0n1q95mXwXg5hOkSZj8p5VPosXx4wXkzNYi29s9m+QOIk5mgDdNgx3sllJ9V+jVEbkSX7Am4D57SfKJ1kVoKWG4gsFSiWaoim4psGWn59QWkKD5ZWE9ZxFFQn3rLwJCmiUTonbJSQV4V4FIopcY/PJz4wVwV+IurkNU6vcuYteuo5FBgLCBigEYCBTbEutVBvIppfWvooZKDVKLUiNUq8MjyuBAaxHVCScUOTN1EL8n1xcf6iIaJECU4CSS/DCcCbdbh4g6JZNd1cZBwERnoWi4wMjFzJy/SsEr1Upqrnyha+dzj2WnOsRPvqa+qfGG0L5NCs8gbHoO5xMuvF7yugexAzHJU1DS2Mfg8CA6IkAh1jvz05xvAk1f9FUgA8GLv1NbyLNp6EB/v3KJs5L+YvL/MGB2VMG5ehRAmcbfFrq48/gjM0SKxAWOcXPGBsBDBOAMcgYNTvLkryy6gaKy8KwDUCyxQwekn+3ZXXh95pvGCDQYtteSVGpILAMTRTXas5HxbObUq8YK1k6LORfg8FxucBjBkARl0VGCORypd74Bpp2EwMHJb/0Orrw3fTST7d9zblPZCpEgWDAyLFVU6b+7bgSIyzMzlQPlmF9lBgHA9g7J8BRgrXkqY7vpDxI5kJTFLBAMTJm5rR9zVqYfuctqz9k40CBYODMlLihQ6rbR3owlFMl8A/g1R9Yld7VGAoMI4DMA6oAiNbX/h136J9tTZOgdEc/cSVV06Pk8GLFSBOvIoUBQ5KzLFIRtPbQKv531YvX6pPVtNOEi+DANkFjNnsc1A+P1kFhkf3cl0tLgwdpndYTXjLqhtqX6PXiBX75siiwaFah+ktKajGwvT1AMgP6A1IuE8cBLNq1/L599RsduzOWewgyKMwHlVFSblwgT1K4BjSwUubBVu4+urQc+qNTZnTgooptSRw0PQWhUoZBUBa01cBIEvgowHDlSawVmIRMI4GMA6uAqOYvsk7DSmfWiAEjmH2M10c3XFtXYcfr/IqCRxUewUQeC8rDtKavsmMB87XsUb2Kj9c/8zOWeahAFAYGKpyjLz7Ou+IUOaJS5taMBTA+sybnNuNgxwDJwTlnVGWiCWDg/JVAAEIukgHaYn/cofNjrpsyyF/nVlfgzNtCRjqjK4sVajeLooCtOsYexrVam6y/2HdCH0aLx9+lXQMOjqqqDyHJfIFHJQnUCybYSTbcE+jMXUhe/7xRQ9+dlo89UPT0LiOkzYRhVYdR7WHUF7VkJMCFogN41bYgJEraaYSF3deV386vceFZiXeiYQ5c8jzoW/g8MprurAbr8GKqAW9tec8cCW8H4+2B6yntbChiwD5xGdA4uorXrLqNRcFXFrR4HJodVXTg/DBTbTrDj9s9bXhu113PymKnZVkK7p8Nigsc0ZiES3WHKNGscb7zjwPi4NXayHjcHJkwHI83Sb2RwClT/nqgsxzB/hz4FUkWrqR1b19DaIStgdn5LmTlu8pVUDZjvCiYhikg+rMWmxRWI3Nxjeuvib4BBVNJvFCLZ/5VrnsHdK2vE1rb2ung20VtZuWt50N3/iL8KdFr4OfJFw2HPjQ4qlCCypOdXI/9O2/R9QItBlDcBBdXBzim9Y91B/gQdPgYEzTUnIEon2Cf8TC+0+hV6ylBtDqKi2iFbJWMkLDc94qOzi80smj3OMidO/o5W2zbWm3YciehL+N4Cg4GB6UUi+gpyUjeBPhbT8KVC75FNXAdMCA1OzIl7orZVpqcK/cKbX0USz8zrWoDqSfxIImFygZnkd+BPSsysu7unmiDAo44V/TwRBwRWnkekHbB9D4ZxHhQfL5jF0depeSkAghf4xcB735UV3Kw5+GF1CbSBQgWRIBJ4kSy1Sh8XfnHAIday56ZC4odQSIeACQsC8qV4eDKDW4ChaxCuTlns8VYFBiZS6re+sGVANiZeQdgvlklj0OwZsojiv2vQJ/2HVAZyFISYfZbMKjN+Bd+gJOIXjGCYj1savqPvQyI2WTXPsqAQqvzIqDwysYQ0BEToiJWCQGx8YMY808JFH0OmN7CeHsLRxRi+NZgxanHitXoKy3YyPNUaxecY6CPBGKrJQO9weZghdOnwizrSsun7QdbENxRy9D4hIxDAt8nGLWRrx8ir2OHTiG1jgDFLoVWwOukmOjzdBkH7XfpEe4e1dj7k60MabD+ADHnr3s8pIbo7xt9sYK1pFOTstyetqedSz9Dk7UoYNT1PkYqpW7c47SC6jmUKVAlQJVClQpUKVAlQJVClQpUKXABKbA/wPVQAJHKOTqQAAAAABJRU5ErkJggg==;" parent="bJyrGBfYhx52CG3j51wn-10" vertex="1">
          <mxGeometry x="61.72500000000001" y="66.94214876033058" width="28.041322314049587" height="23.05785123966942" as="geometry" />
        </mxCell>
        <mxCell id="bJyrGBfYhx52CG3j51wn-11" value="LIS&lt;br&gt;&lt;br&gt;(TAP CONFIG)" style="shape=cylinder3;whiteSpace=wrap;html=1;boundedLbl=1;backgroundOutline=1;size=15;align=center;verticalAlign=top;labelBackgroundColor=#CCFFFF;" parent="1" vertex="1">
          <mxGeometry x="472.5" y="480" width="65" height="100" as="geometry" />
        </mxCell>
        <mxCell id="bJyrGBfYhx52CG3j51wn-12" value="MQE&lt;br&gt;(Metrics Query Engine)" style="shape=cylinder3;whiteSpace=wrap;html=1;boundedLbl=1;backgroundOutline=1;size=15;align=center;verticalAlign=top;labelBackgroundColor=#FFE6CC;" parent="1" vertex="1">
          <mxGeometry x="586" y="475" width="70" height="100" as="geometry" />
        </mxCell>
        <mxCell id="bJyrGBfYhx52CG3j51wn-13" value="Stackdriver&amp;nbsp;&lt;br&gt;&lt;br&gt;(GCP metrics)" style="shape=cylinder3;whiteSpace=wrap;html=1;boundedLbl=1;backgroundOutline=1;size=15;align=center;verticalAlign=top;fontColor=#CC99FF;" parent="1" vertex="1">
          <mxGeometry x="40" y="480" width="70" height="100" as="geometry" />
        </mxCell>
        <mxCell id="bJyrGBfYhx52CG3j51wn-15" value="kafka-producer-tap" style="rounded=1;whiteSpace=wrap;html=1;align=center;verticalAlign=top;" parent="1" vertex="1">
          <mxGeometry x="445" y="410" width="120" height="30" as="geometry" />
        </mxCell>
        <mxCell id="bJyrGBfYhx52CG3j51wn-17" value="" style="endArrow=none;html=1;rounded=0;entryX=0.406;entryY=1.016;entryDx=0;entryDy=0;entryPerimeter=0;" parent="1" source="bJyrGBfYhx52CG3j51wn-4" target="bJyrGBfYhx52CG3j51wn-2" edge="1">
          <mxGeometry width="50" height="50" relative="1" as="geometry">
            <mxPoint x="560" y="300" as="sourcePoint" />
            <mxPoint x="320" y="160" as="targetPoint" />
          </mxGeometry>
        </mxCell>
        <mxCell id="bJyrGBfYhx52CG3j51wn-18" value="" style="endArrow=none;html=1;rounded=0;entryX=0.675;entryY=1.016;entryDx=0;entryDy=0;entryPerimeter=0;exitX=-0.006;exitY=0.09;exitDx=0;exitDy=0;exitPerimeter=0;" parent="1" source="Rd7AuOM_yktvcL0HzgPw-39" target="bJyrGBfYhx52CG3j51wn-2" edge="1">
          <mxGeometry width="50" height="50" relative="1" as="geometry">
            <mxPoint x="285.68279261658995" y="207.5" as="sourcePoint" />
            <mxPoint x="305" y="170" as="targetPoint" />
          </mxGeometry>
        </mxCell>
        <mxCell id="Rd7AuOM_yktvcL0HzgPw-1" value="kafka-producer-gcp" style="rounded=1;whiteSpace=wrap;html=1;align=center;verticalAlign=top;" vertex="1" parent="1">
          <mxGeometry x="180" y="410" width="120" height="30" as="geometry" />
        </mxCell>
        <mxCell id="Rd7AuOM_yktvcL0HzgPw-2" value="GCP&lt;br&gt;API" style="shape=hexagon;perimeter=hexagonPerimeter2;whiteSpace=wrap;html=1;fixedSize=1;align=center;verticalAlign=middle;fontColor=#FF9999;" vertex="1" parent="1">
          <mxGeometry x="199.26" y="320" width="80" height="50" as="geometry" />
        </mxCell>
        <mxCell id="Rd7AuOM_yktvcL0HzgPw-3" value="TAP&lt;br&gt;API" style="shape=hexagon;perimeter=hexagonPerimeter2;whiteSpace=wrap;html=1;fixedSize=1;align=center;verticalAlign=middle;fontColor=#FF9999;" vertex="1" parent="1">
          <mxGeometry x="465" y="340" width="80" height="50" as="geometry" />
        </mxCell>
        <mxCell id="Rd7AuOM_yktvcL0HzgPw-6" value="" style="endArrow=classic;startArrow=classic;html=1;rounded=0;entryX=0.393;entryY=1.007;entryDx=0;entryDy=0;entryPerimeter=0;" edge="1" parent="1" target="Rd7AuOM_yktvcL0HzgPw-25">
          <mxGeometry width="50" height="50" relative="1" as="geometry">
            <mxPoint x="505" y="340" as="sourcePoint" />
            <mxPoint x="660" y="140" as="targetPoint" />
          </mxGeometry>
        </mxCell>
        <mxCell id="Rd7AuOM_yktvcL0HzgPw-7" value="" style="endArrow=classic;startArrow=classic;html=1;rounded=0;entryX=0.5;entryY=1;entryDx=0;entryDy=0;" edge="1" parent="1" target="Rd7AuOM_yktvcL0HzgPw-3">
          <mxGeometry width="50" height="50" relative="1" as="geometry">
            <mxPoint x="505" y="390" as="sourcePoint" />
            <mxPoint x="547" y="200" as="targetPoint" />
          </mxGeometry>
        </mxCell>
        <mxCell id="Rd7AuOM_yktvcL0HzgPw-8" value="" style="endArrow=classic;startArrow=classic;html=1;rounded=0;entryX=0.5;entryY=1;entryDx=0;entryDy=0;exitX=0.5;exitY=0;exitDx=0;exitDy=0;exitPerimeter=0;" edge="1" parent="1" source="bJyrGBfYhx52CG3j51wn-11" target="bJyrGBfYhx52CG3j51wn-15">
          <mxGeometry width="50" height="50" relative="1" as="geometry">
            <mxPoint x="541.5" y="166" as="sourcePoint" />
            <mxPoint x="505" y="440" as="targetPoint" />
            <Array as="points" />
          </mxGeometry>
        </mxCell>
        <mxCell id="Rd7AuOM_yktvcL0HzgPw-10" value="TAP Application Doc" style="text;html=1;align=center;verticalAlign=middle;resizable=0;points=[];autosize=1;strokeColor=none;fillColor=none;" vertex="1" parent="1">
          <mxGeometry x="441" y="590" width="120" height="20" as="geometry" />
        </mxCell>
        <mxCell id="Rd7AuOM_yktvcL0HzgPw-12" value="Metrics&amp;nbsp;&lt;br&gt;sidecar" style="shape=hexagon;perimeter=hexagonPerimeter2;whiteSpace=wrap;html=1;fixedSize=1;align=center;verticalAlign=middle;" vertex="1" parent="1">
          <mxGeometry x="353.75" y="340" width="80" height="50" as="geometry" />
        </mxCell>
        <mxCell id="Rd7AuOM_yktvcL0HzgPw-13" value="" style="endArrow=classic;startArrow=classic;html=1;rounded=0;exitX=0.5;exitY=0;exitDx=0;exitDy=0;entryX=0.5;entryY=1;entryDx=0;entryDy=0;" edge="1" parent="1" source="Rd7AuOM_yktvcL0HzgPw-47" target="Rd7AuOM_yktvcL0HzgPw-25">
          <mxGeometry width="50" height="50" relative="1" as="geometry">
            <mxPoint x="490" y="350" as="sourcePoint" />
            <mxPoint x="510" y="310" as="targetPoint" />
          </mxGeometry>
        </mxCell>
        <mxCell id="Rd7AuOM_yktvcL0HzgPw-15" value="Utilization data&lt;br&gt;(Platform Metrics Store)" style="text;html=1;align=center;verticalAlign=middle;resizable=0;points=[];autosize=1;strokeColor=none;fillColor=none;" vertex="1" parent="1">
          <mxGeometry x="565" y="580" width="140" height="30" as="geometry" />
        </mxCell>
        <mxCell id="Rd7AuOM_yktvcL0HzgPw-17" value="" style="endArrow=classic;startArrow=classic;html=1;rounded=0;entryX=0.5;entryY=1;entryDx=0;entryDy=0;" edge="1" parent="1" target="Rd7AuOM_yktvcL0HzgPw-2">
          <mxGeometry width="50" height="50" relative="1" as="geometry">
            <mxPoint x="239" y="410" as="sourcePoint" />
            <mxPoint x="290" y="390" as="targetPoint" />
          </mxGeometry>
        </mxCell>
        <mxCell id="Rd7AuOM_yktvcL0HzgPw-18" value="" style="endArrow=classic;startArrow=classic;html=1;rounded=0;exitX=0.5;exitY=1;exitDx=0;exitDy=0;entryX=0.5;entryY=0;entryDx=0;entryDy=0;entryPerimeter=0;" edge="1" parent="1" source="Rd7AuOM_yktvcL0HzgPw-1" target="Rd7AuOM_yktvcL0HzgPw-19">
          <mxGeometry width="50" height="50" relative="1" as="geometry">
            <mxPoint x="202.72000000000003" y="406.9100000000001" as="sourcePoint" />
            <mxPoint x="250" y="520" as="targetPoint" />
          </mxGeometry>
        </mxCell>
        <mxCell id="Rd7AuOM_yktvcL0HzgPw-19" value="LIS&lt;br&gt;&lt;br&gt;(CONFIG)" style="shape=cylinder3;whiteSpace=wrap;html=1;boundedLbl=1;backgroundOutline=1;size=15;align=center;verticalAlign=top;labelBackgroundColor=#CCFFFF;" vertex="1" parent="1">
          <mxGeometry x="202.5" y="475" width="65" height="100" as="geometry" />
        </mxCell>
        <mxCell id="Rd7AuOM_yktvcL0HzgPw-20" value="GCP Virtual Machine" style="text;html=1;align=center;verticalAlign=middle;resizable=0;points=[];autosize=1;strokeColor=none;fillColor=none;" vertex="1" parent="1">
          <mxGeometry x="170" y="585" width="130" height="20" as="geometry" />
        </mxCell>
        <mxCell id="Rd7AuOM_yktvcL0HzgPw-21" value="GCP&lt;br&gt;Monitoring" style="shape=hexagon;perimeter=hexagonPerimeter2;whiteSpace=wrap;html=1;fixedSize=1;align=center;verticalAlign=middle;" vertex="1" parent="1">
          <mxGeometry x="40" y="350" width="80" height="50" as="geometry" />
        </mxCell>
        <mxCell id="Rd7AuOM_yktvcL0HzgPw-22" value="" style="endArrow=classic;startArrow=classic;html=1;rounded=0;exitX=0.569;exitY=-0.048;exitDx=0;exitDy=0;exitPerimeter=0;entryX=0.564;entryY=1.004;entryDx=0;entryDy=0;entryPerimeter=0;" edge="1" parent="1" source="Rd7AuOM_yktvcL0HzgPw-21" target="bJyrGBfYhx52CG3j51wn-4">
          <mxGeometry width="50" height="50" relative="1" as="geometry">
            <mxPoint x="260.44000000000005" y="408.2600000000001" as="sourcePoint" />
            <mxPoint x="260" y="380" as="targetPoint" />
          </mxGeometry>
        </mxCell>
        <mxCell id="Rd7AuOM_yktvcL0HzgPw-23" value="" style="endArrow=classic;startArrow=classic;html=1;rounded=0;exitX=0.5;exitY=1;exitDx=0;exitDy=0;entryX=0.576;entryY=-0.01;entryDx=0;entryDy=0;entryPerimeter=0;" edge="1" parent="1" source="Rd7AuOM_yktvcL0HzgPw-21" target="bJyrGBfYhx52CG3j51wn-13">
          <mxGeometry width="50" height="50" relative="1" as="geometry">
            <mxPoint x="121.11000000000001" y="379.7" as="sourcePoint" />
            <mxPoint x="118.8850000000001" y="429.99999999999994" as="targetPoint" />
          </mxGeometry>
        </mxCell>
        <mxCell id="Rd7AuOM_yktvcL0HzgPw-24" value="" style="endArrow=classic;startArrow=classic;html=1;rounded=0;exitX=0.25;exitY=0.4;exitDx=0;exitDy=0;exitPerimeter=0;entryX=0.5;entryY=1;entryDx=0;entryDy=0;" edge="1" parent="1" source="Rd7AuOM_yktvcL0HzgPw-2" target="bJyrGBfYhx52CG3j51wn-4">
          <mxGeometry width="50" height="50" relative="1" as="geometry">
            <mxPoint x="95.51999999999998" y="357.6" as="sourcePoint" />
            <mxPoint x="170.3404958677686" y="309.61322314049585" as="targetPoint" />
          </mxGeometry>
        </mxCell>
        <mxCell id="Rd7AuOM_yktvcL0HzgPw-25" value="Target Application Platform &lt;br&gt;&lt;br&gt;TAP @ datacenter" style="whiteSpace=wrap;html=1;aspect=fixed;align=left;verticalAlign=top;" vertex="1" parent="1">
          <mxGeometry x="545" y="200" width="110" height="110" as="geometry" />
        </mxCell>
        <mxCell id="Rd7AuOM_yktvcL0HzgPw-34" value="" style="group" vertex="1" connectable="0" parent="1">
          <mxGeometry x="303.75" y="200" width="180" height="115.75" as="geometry" />
        </mxCell>
        <mxCell id="Rd7AuOM_yktvcL0HzgPw-28" value="" style="endArrow=none;html=1;rounded=0;" edge="1" parent="Rd7AuOM_yktvcL0HzgPw-34">
          <mxGeometry width="50" height="50" relative="1" as="geometry">
            <mxPoint y="107.25000000000001" as="sourcePoint" />
            <mxPoint as="targetPoint" />
          </mxGeometry>
        </mxCell>
        <mxCell id="Rd7AuOM_yktvcL0HzgPw-29" value="" style="endArrow=none;html=1;rounded=0;" edge="1" parent="Rd7AuOM_yktvcL0HzgPw-34">
          <mxGeometry width="50" height="50" relative="1" as="geometry">
            <mxPoint x="177.5" y="107.25000000000001" as="sourcePoint" />
            <mxPoint x="177.5" as="targetPoint" />
          </mxGeometry>
        </mxCell>
        <mxCell id="Rd7AuOM_yktvcL0HzgPw-31" value="" style="endArrow=none;dashed=1;html=1;dashPattern=1 3;strokeWidth=2;rounded=0;" edge="1" parent="Rd7AuOM_yktvcL0HzgPw-34">
          <mxGeometry width="50" height="50" relative="1" as="geometry">
            <mxPoint x="88.75" y="107.25000000000001" as="sourcePoint" />
            <mxPoint x="88.75" as="targetPoint" />
          </mxGeometry>
        </mxCell>
        <mxCell id="Rd7AuOM_yktvcL0HzgPw-32" value="" style="endArrow=none;html=1;rounded=0;" edge="1" parent="Rd7AuOM_yktvcL0HzgPw-34">
          <mxGeometry width="50" height="50" relative="1" as="geometry">
            <mxPoint as="sourcePoint" />
            <mxPoint x="177.5" as="targetPoint" />
          </mxGeometry>
        </mxCell>
        <mxCell id="Rd7AuOM_yktvcL0HzgPw-33" value="" style="endArrow=none;html=1;rounded=0;" edge="1" parent="Rd7AuOM_yktvcL0HzgPw-34">
          <mxGeometry width="50" height="50" relative="1" as="geometry">
            <mxPoint y="107.25000000000001" as="sourcePoint" />
            <mxPoint x="177.5" y="107.25000000000001" as="targetPoint" />
          </mxGeometry>
        </mxCell>
        <mxCell id="Rd7AuOM_yktvcL0HzgPw-39" value="Google Kubernetes Engine (GKE)&lt;br&gt;&lt;br&gt;" style="text;html=1;strokeColor=none;fillColor=none;align=left;verticalAlign=top;whiteSpace=wrap;rounded=0;" vertex="1" parent="Rd7AuOM_yktvcL0HzgPw-34">
          <mxGeometry width="90" height="100" as="geometry" />
        </mxCell>
        <mxCell id="Rd7AuOM_yktvcL0HzgPw-40" value="Target Application Platform&lt;br&gt;&lt;br&gt;" style="text;html=1;strokeColor=none;fillColor=none;align=left;verticalAlign=top;whiteSpace=wrap;rounded=0;" vertex="1" parent="Rd7AuOM_yktvcL0HzgPw-34">
          <mxGeometry x="96" width="74" height="100" as="geometry" />
        </mxCell>
        <mxCell id="Rd7AuOM_yktvcL0HzgPw-41" value="" style="shape=image;verticalLabelPosition=bottom;labelBackgroundColor=#ffffff;verticalAlign=top;aspect=fixed;imageAspect=0;image=data:image/png,iVBORw0KGgoAAAANSUhEUgAAAJYAAACWCAYAAAA8AXHiAAAD8GlDQ1BJQ0MgUHJvZmlsZQAAOI2NVd1v21QUP4lvXKQWP6Cxjg4Vi69VU1u5GxqtxgZJk6XpQhq5zdgqpMl1bhpT1za2021Vn/YCbwz4A4CyBx6QeEIaDMT2su0BtElTQRXVJKQ9dNpAaJP2gqpwrq9Tu13GuJGvfznndz7v0TVAx1ea45hJGWDe8l01n5GPn5iWO1YhCc9BJ/RAp6Z7TrpcLgIuxoVH1sNfIcHeNwfa6/9zdVappwMknkJsVz19HvFpgJSpO64PIN5G+fAp30Hc8TziHS4miFhheJbjLMMzHB8POFPqKGKWi6TXtSriJcT9MzH5bAzzHIK1I08t6hq6zHpRdu2aYdJYuk9Q/881bzZa8Xrx6fLmJo/iu4/VXnfH1BB/rmu5ScQvI77m+BkmfxXxvcZcJY14L0DymZp7pML5yTcW61PvIN6JuGr4halQvmjNlCa4bXJ5zj6qhpxrujeKPYMXEd+q00KR5yNAlWZzrF+Ie+uNsdC/MO4tTOZafhbroyXuR3Df08bLiHsQf+ja6gTPWVimZl7l/oUrjl8OcxDWLbNU5D6JRL2gxkDu16fGuC054OMhclsyXTOOFEL+kmMGs4i5kfNuQ62EnBuam8tzP+Q+tSqhz9SuqpZlvR1EfBiOJTSgYMMM7jpYsAEyqJCHDL4dcFFTAwNMlFDUUpQYiadhDmXteeWAw3HEmA2s15k1RmnP4RHuhBybdBOF7MfnICmSQ2SYjIBM3iRvkcMki9IRcnDTthyLz2Ld2fTzPjTQK+Mdg8y5nkZfFO+se9LQr3/09xZr+5GcaSufeAfAww60mAPx+q8u/bAr8rFCLrx7s+vqEkw8qb+p26n11Aruq6m1iJH6PbWGv1VIY25mkNE8PkaQhxfLIF7DZXx80HD/A3l2jLclYs061xNpWCfoB6WHJTjbH0mV35Q/lRXlC+W8cndbl9t2SfhU+Fb4UfhO+F74GWThknBZ+Em4InwjXIyd1ePnY/Psg3pb1TJNu15TMKWMtFt6ScpKL0ivSMXIn9QtDUlj0h7U7N48t3i8eC0GnMC91dX2sTivgloDTgUVeEGHLTizbf5Da9JLhkhh29QOs1luMcScmBXTIIt7xRFxSBxnuJWfuAd1I7jntkyd/pgKaIwVr3MgmDo2q8x6IdB5QH162mcX7ajtnHGN2bov71OU1+U0fqqoXLD0wX5ZM005UHmySz3qLtDqILDvIL+iH6jB9y2x83ok898GOPQX3lk3Itl0A+BrD6D7tUjWh3fis58BXDigN9yF8M5PJH4B8Gr79/F/XRm8m241mw/wvur4BGDj42bzn+Vmc+NL9L8GcMn8F1kAcXgSteGGAAAAomVYSWZNTQAqAAAACAAGARIAAwAAAAEAAQAAARoABQAAAAEAAABWARsABQAAAAEAAABeASgAAwAAAAEAAgAAATEAAgAAAB4AAABmh2kABAAAAAEAAACEAAAAAAAAAEgAAAABAAAASAAAAAFBZG9iZSBQaG90b3Nob3AgQ1MyIE1hY2ludG9zaAAAAqACAAQAAAABAAAAlqADAAQAAAABAAAAlgAAAAAxGVfDAAAACXBIWXMAAAsTAAALEwEAmpwYAAACuWlUWHRYTUw6Y29tLmFkb2JlLnhtcAAAAAAAPHg6eG1wbWV0YSB4bWxuczp4PSJhZG9iZTpuczptZXRhLyIgeDp4bXB0az0iWE1QIENvcmUgNi4wLjAiPgogICA8cmRmOlJERiB4bWxuczpyZGY9Imh0dHA6Ly93d3cudzMub3JnLzE5OTkvMDIvMjItcmRmLXN5bnRheC1ucyMiPgogICAgICA8cmRmOkRlc2NyaXB0aW9uIHJkZjphYm91dD0iIgogICAgICAgICAgICB4bWxuczp4bXA9Imh0dHA6Ly9ucy5hZG9iZS5jb20veGFwLzEuMC8iCiAgICAgICAgICAgIHhtbG5zOmV4aWY9Imh0dHA6Ly9ucy5hZG9iZS5jb20vZXhpZi8xLjAvIgogICAgICAgICAgICB4bWxuczp0aWZmPSJodHRwOi8vbnMuYWRvYmUuY29tL3RpZmYvMS4wLyI+CiAgICAgICAgIDx4bXA6Q3JlYXRvclRvb2w+QWRvYmUgUGhvdG9zaG9wIENTMiBNYWNpbnRvc2g8L3htcDpDcmVhdG9yVG9vbD4KICAgICAgICAgPGV4aWY6UGl4ZWxZRGltZW5zaW9uPjYwMDwvZXhpZjpQaXhlbFlEaW1lbnNpb24+CiAgICAgICAgIDxleGlmOlBpeGVsWERpbWVuc2lvbj42MDA8L2V4aWY6UGl4ZWxYRGltZW5zaW9uPgogICAgICAgICA8dGlmZjpPcmllbnRhdGlvbj4xPC90aWZmOk9yaWVudGF0aW9uPgogICAgICAgICA8dGlmZjpSZXNvbHV0aW9uVW5pdD4yPC90aWZmOlJlc29sdXRpb25Vbml0PgogICAgICA8L3JkZjpEZXNjcmlwdGlvbj4KICAgPC9yZGY6UkRGPgo8L3g6eG1wbWV0YT4KTO8D3gAAQABJREFUeAHtfQmcVcWVd93tbb1vNDQgbkQFVBQBQYRud03QzM/AlzFqdMZoxomZMfkySSaLz2S+LE7GbKMTTTJmNMsMJE4STYwLdiMibgSj4IJEZV96f91vvdv3/9d9t/sB3dDLfU1jLOj37ru37jmnTp06derUqSpFvMtTXAh1iWhUWcxG0eIoQjgDFfm+xusiJa27Y9GIXdq5Y9+kSMYuqdA1UWI5mqupmqK5imsrrmI7dk44TkZX3B5HZBUt2lZSP6F7a08i+1LdjN57199rDgTfBR0teTpWg474IHQM9O7ReA98ftclZYVYptaJVmUgQbqrcVnppK1bT6jNKqcIJ3OKaSgnh3utyWHLnWKbTpWmq4ZqOdGQLYQCadDwLQQuFI9VuJI/haaKHO7nFMdSDCXjWI6lhbTWtCr2KCXh7a7tvpnVI691xZTNmenH//nqR36W4Kt+IkQImtYq6txlYiUFXoL2nx/t3+8WweoTpibRYhVWygOnXDxpanfHWVo6c47iOPNCtnuKaouJJchlQLeQATbqNCvr1ZXqDCqNlTygZjug/iFuikp1qAKSJr95DYHEZ04XIhVSRFbXWm1NecMOKS9my6LPmGVVz79/w++3IltfahZCbxTLgPfdIWRHtWC5Io7upUUtFKYbb7zR+NCqN+fpPYmLI+nMeYbjzi4xlZJIzhUmZCWHqkTtuZAr6iT85y8oDAXJ9fQSJGpQvvAB3pCJ13jR5W/+4bfLPxuQpLbDXUW4GgRO0XBl4C8XVUWPoeZMTd2YLTFWWeVVj26cOeuZT638dloCxUezaISQNYKo+CDC7eccv9/kzVGXyPhW0eIul8IhxIoVK7TqL921ONSWWG7kzIujtjiuLOUKC7JDTZQXIln3qGiWWdpcXsE9FuQFo48X/M2E/N7FIJ/+U5+Rbl7E+Fs+wwWEjMJH6XU9xI4eBgk6/lKlmkgaYqcZjjyWrq5a+cb5H3jyk9//ZJbo8I60y9Bw2CH7qPho3CefH+OeUHBV2iSF2unhWe8/BQb3R0KW++GKrHlCrNcSKZTEhnHtCHR8eAcFVFm346WAlA4QIwUNV/jpKmFoNQpapswQiaixLReN/NKprr7/vA0P/8mn29NiLTbf9e+N5+9xw/DBmDSQQD154uLLjUTv34WTmUuqIUlZ10Y3J2xXqNAIjgqBkoohX4mDgT7i9z362F0Kx1JVR3dcxRCOFkWn2VGmiVRFuMUsL7/7/E2rfoUmIrvFe8Qc40ax3hrvAjauBYut1NdQ8Xg8dOEDzR8V3d3/UNlrzQxlTJGkmSR0E32MBktH9bshX2LGdeHyRHrqh6Z/nnoF6lbYtuY6ekQYiojqoqPC2OJWVn2vY/HiHy+9N06lLJobwZuW/QcqfrnHw/e45L0rlsHe9UZH8eZmfdG1/3xTLJn6zISMNc1MWSID+xhKid2J3lcheW56FeX9GJeFG6TWSStVEr89TSavZNcXEq4eCofF3prQLqey+s4ty6+66/r49RmCGq8CNq54H4e0LMFfk6C9LcSa45ZcE0p2xWt6rONz6RwMcdUE5zVIFO2md1XyhKm/SP5vfruq4oQdDDaFaxhRQ3RWRHbkKqu+eu7rT9zLN5rRwFZjBBkfR6PIcVM/L8J2OEusl17rVdMvWhztaPtWTTIz18xYtJ9MGE8ajCd0d+OG5H4pKOIVS8sOn8VGa4IB6dq6sA0tGhVtZaGXsxPqP3P+xkceY5ZCHvL3kUxHvJboi1op4gpdBw/NWVpbsWfvnRVdqWsiSVPAsWO5isI+L6+h2H7/cpJfWo5E/G4So132/w58b7YBH69bFhLdlWUrWo+ZdusVa/97F95B9jhyHVkf2BEVrBfnQEutz2upExZeV9rW8+2abquyR1gONBMcTipsLc+opXkLbkqpOqJEj7Fcs8QHl9e7w9lLCJgoA586qiPJVE3Vp5vebLmHJBbydoxJlugOpnkMqACz4JMSWhM00oMLr5kw8a3XflTTnVyaS2M8JBQTrRPDof3HeAMzeAyIHccoPJ6AU6owNccxYrC/9lbHHu885tjrl65bubNZThOJI+L78hzBY8g8TBBrkGaXQtV8QuMHJ2364+baPamlmbRrmVBKECcpVCSpUOoLr8eQ3HGLym9oCpuigy5R6G5P2jZrd/ZeWPv66288fdLi5eQx+OaS52NdkDGtLzr3bsob6Ksnzf9ufaL3kznYUraC0Z4Lr+ABWmqsmXE04qPNRe2u4s9RMMJxXbZPQy+FcV8R+sHinS/+Hcs11ob9mAmWX7AVcy+bOHXrnl/X7svM7xUW1LTKqbQx15xHoxANTDOrcH+zgV56OIydUqHq+yZG17eeMOXyK9b+dpdfBwPDCfbumAiWX6DV0xYvjHR3PlTRla2GTyoHJY6gEs8kHxNCguXduIbGrhIDnlxUOKGu6nCip3bCBy7YvGqNi9kM5YDQomIUpKj1icIRPl0Fdstxi64pbeu6P9Tjd32YFqOHypvWK0bZ3oMJDriqaobgmXDKDdFeV31905/X/AT1QpsLM2FQdUVKReuC4nmJkUI1+ax/nrit7X69JwdrUkGALwoKTfWeUBWpVvNgKTWI8TBgwdt2whITt7bft3ryvC+wTpglXsQKAI7gEwnGHyVHPHvsou/U7E38QzKdRvSBHBDCe+6pMnrRaXi+l4rPATiaYXc5blk0rLVOKPn+gq3PfpJY4wV1FSQVgQtWIaFPV8z60cSk8re9VhYedEYg0FBnek+YJBvG+gOtWHdtK6JHjR0l6o+buv90A0mIF0G4AhWsQgKfLj/1JxMT1kfhRTehmQwLllYIvTpN9UCRkjPjMBU2nfFSXtJExwTsH7MC8407ysM/WZx45XqyLx6wcAVWZhAtYeHDXVNx6o8ndVt/0yNcWudweHqJg2IWzv+dv130r8JKPhDZAfQwbhlOWpnyX4emFk0FGWSHjqbDgFXvNXbyTIVlPgCXfD6WHx5+Nm645FE3cEcYOyu0Hy3u3vgxPJME9xVglIR5pR8lELyOVTJC5UTyuuPO/f6EnV2fSOSy0FTqfkJFNEEhHA7JXlX7b3A1jUvrVQoRyMZsG6w/9BI6shiyRXtiwflJTzS8dz3avcbhlYRwJCyE9MhEVDYrDqImJzsxgQ63pQfH+/QyHslPjx+SGrNKDxm7p5R9d+E7z/wj7tMIlob9aOkj9FEn3zeyeurcLza0Zr+aymRMeD4NBgoXtthRIxomAF+g/EKiC5Cx8KBJQYtFCDAiBSBSGeiaXsTkQPe04ec7WIDR4RjatlA03Anpy9mujSB6B6XBP0gJIy4wAjFy6Wy15ohjIo5Sj4Wsx0BfVZWbWCQBnUdVnfY6fhlbhrcQ8cLXx0/KD56s0nBI31tZ+vlFe9d9w/c5jpZKn+cjhuMT0nL8ousxnP1PTFfB7wnnCVZTHUmbikLFwuEbsgEXB8QG2kiL4G4Wi03TitOdDYuXsrp4VrPVF7tC+mu7K/UdN721vnskzFgxc0G12imm1VqZWartzNNy9vyI6c4qtdwoFsBC0Lh2kXH5VGQu/Uij5v1I6PTf8fkD9kCpum5MC6u7j6m6puntNT/169TPO5LvURXOJ6DlfUvOrdjT/pQCXwm4hmEt7UOvE+kvwEjIG8o7nvj048mLk7SVFEcXjl4CvZSGvzkRct62dOMPihZ+ZHu0ZN1Vu1raDsQAOMpK9I91onFIvClchnYgrJ+e2DilLpU5pzSbfb+Wy15QmVEm6TAQUnJhmkKlBgFDT0nxR+ovg/xZ9A/i8zSoBmWdU82yqOiqnrDwgq2r1hXO646EkCExbyDAnDFfLlbaDy1YNnnCG2+8FunIlGEyGc5PtkYasx6zRoxgIKQH3CMGqnN2uF61YI0OtAKwuzHYpxoEqi1qdzu6/mAmFPvpDyZOe3rlppVcsyoT3lJb8vspNGI/BdxEu8gTns8z1C/AgkB6S/v5DuCBjn5Y/3rRNSWnbXzzvGgm+5FwJre0Ou3EctAVIAb+S3SToKWYvBqsHOQc6wuK1A6j7hKV0Y59J02bccVzv93r1/Fg7x7q/ojKQib6TFs38az1lXt6zswomul51CWZh8IZ8DPKA9cZ04RxHMyNYR2oLrpi6huZsHr31kjdzz66c1W7j7QZc2W8PrDi/edBfschLEuk4LaIJgiQD/vHZ1zYcOKOjmtC2dxNNUn7OBMdJOw6TkqgjRxBM0xRzBLYju31kecW7H3pbNJbWNc+/UP5HpFgNUMbkFEtk+ffM3ln940p4eYQvhHi6MpTrUNBHVQeLnF3LYbphlEnbVH1ld5o6OsXtf3xv9kMiYXCxM03oGGlVgoK83DgsIKgHaHN+4VsDrYD+MrDG66u6En906Re52TsAsAVSOgiXQq/rBtZAP/HcBAOMy/xcCyMsUkuJtzQtonl3z9/z/OfbM7X9TDBecQP5yU/5LXl5Av/umHH7p8ne0141VVs6sMG6XVKI5LWIRNB6D67VSC1dYTmitYSfUdXLPSlS1v/+BMfFAVqLDSTj2+o33EwapKYo/mxaXzv8fq5HytJJeMTekRDL0b8aKgM0oOAsbPPz4/JqvfLzreCT56ACTtSqmn7JtVeueTNpx7063w42IalYLjwgTHqv2r8yJTIvt0/SvfmKOOQJioCD1SxhYpshqVJLWXSjrKjmthVE/36zxc3negLld/dcbEr6CluTQyH2/m8cchJXqgUn9YL977ww580njB9e134m1YE+3JBa4Gj9AUisJ26hCX3ilKsAvlwwTPFwnYFoX2d9/1u7jIYO+tBR3xYsjIsOQBiGpjO2snznqjd2XN+SoHadl30QmOTWHBY1zbicNUSOPR3lTvPdlZW3XD5trWbSMFoRzJjU4oBsSigXfc12K+PX3BqbVvih5MSYn43FyrBfkTrxVZd9F167tYBoYzypi9YeRWBhqsY+yaVPrJo9wuXwQGOwdrQnadDFizftfDk+5bcPHVH612pFLYpA+KxVQiKSVvKigjRWRb+UlPrn/6FvCRtc46C/QwOV++oWGU9BKxvfWXdGV+s6kl/FbsLwu+mmnA4o/jFDYykcHlCQXvLMaMxw9g1pfbGxs2rf+jLwOHKwedDUm+yC0Ss+u/RBUbbu76VxjJ3Cw7msRMqWVTMbSlGolTf+05dzWIKFSuCQ2JWBHL4DW4o5R6XeVgGloVlYtnOb93wL3uqKxclSkK7y+WaADr0vekmv7D+d1AFIqcJk+4i2M5aOpUTkbbubz917tWTSNtQu8QhCVZLvn8t3frn79S2Z6NYkGzC8ZIPgQmqSIPCQTk5YaoZuyu1tS8dN+2UD25fu4ath0ygL23QN4/SBywTy8YyXrbr2bXbTp5xyr6K8Go2LNy2YG2BJ9QoxU3wyasu3Eg1HZkSdeuW7xCbLwuHw3xY2uSmE3QtnHrppdVtySsxYsEkq2dXsfDFTJQoWBR2CWfh6/T7F3dtXHTzK7/rpC2V7y7YuN6tSWovlnX5+pXd53S/3Liz2vjPGEbgKhb0apgdwrRZvtsKlgWs1766habkopfKzvTytbMuvagJskCZOBzGvvcHycjnsvLWTpy7sWZP10z09ZzQ51xXkRPn1GwnEgppeyrL7mjc9+xniXA03uAiE1w08IVlXlVz1r809GS+YOawn66iy+0t81UUOH6O9SliiPywYdZqiQmlr8zbt/60oSA6pMaCZEoBWjOz6ea67uTMDHd7GUuh0sPajrrSL1OoIN0Md0Zozruv6ztcRbHMLDtHZue3v/jFPdWxz+k63MGcP4ZUFartwuvDwT3ccwoHPZMwfbQ0zJGqnsyp62ac93G+dzitNajGAoFy2uahG++J1f323i0le3om2dhOB3EnRZ/TQvdnRUK6DqH60vk7n6WRTgFnRF2QfCN/jqrEOmkBL5rYHU2c89nJbZlvJC3LdhV6I1TZMdLoHrRSR1haMl1B3RuOrSYmlu965fKl02/CBnCkZ7A6GVRj3YthL+mIPfmzW+o6s5Ms7KkA42rQ/COkue81T2IkS0zESek7Kkv+7T2h6mOPvGAlNsGX1Mxplj3rv7mjKvL1EkXTdJdeejgHYNNLDu7/2qh/SZgIRzPRY9Ukcg0z1j51C4HSNTIY8AHp8CVxxc3x0mN+9estZXuT9YhhchS7eIKVJ1CO/nbUh37WtPelq0EHBXnEEQeDFfpov8/6QRmoLZxVNbPvm9JhXcetL6CtOGosWqLW0qG1ehrK927/4NITl98d7/Vl5UCkA2qgFjlZKsTU1U9/rKbHrM8JRC5AqKhmg079EBWrBMPp3VX6OgoV8dyOPzCvP0vQyI9SeOQJecN0fvtL17dVqGswcYwJCRnjVTSG0QzC9JJZ25GrnwjZIH5fVnhdmAYSLEVuKIu9P92O7lvMFHxy2GvCewlFCjxhBozTNJgbay3X2necPu1youBIKE4383tpQA6QN+QRH74zdeoVbaXa3hBD9vPTLsUJ46DTFI6tTE6oXZ2faIw3+5sPHyQYBwkWJkUlsc2f+OaHKrsyxzEQDescZb6D3mapRph8NQSr08X5R4oZQ1BeXeWyq1oeaqNj8C9x9DdcVpJH5NVH4NvrqCpdZkVkDcnd6liJPo+HC/dQ+WFrqwixtmB3H3/byq9/iHl970HhewcJFsJMpJYwEp03a+ksDEKkwjcCuvZhIuTUKsO6i+6Kkq9d8ee1zWRU3vkZEKZAwJBcn+RAAAYFhLwizz6w/fk1naXheDk2kkQsEaM6JMFBChdh6nBuOPDHK5jWCyW65BZJjS2ezBSWaT9m+Y64x8+68ozqNzf/UetO45QZOuGCI4+Q+pEqNkJftD1V2oYlnZvOzBPGx8EhLCzt4a/7DntCAyMNHDjs1x3jJuljXLzix8WPgxO85PQaCHNXV8x8rqHbmZdAg0W9yVEbCQ4i+XVHpgCh61SElN4Zx525ZN1vN/iy4+PZb7jIo9j4INS266MV3ZboQSABXg9wpOFFFMGkQu1wz1pHTaIL7Kmf8DHRuUlGevoHBvgEjsU3HY8UEuIeuAuO5zV73Pel5QW/ZT/yGFt1qMUV+2UO9oeLeHv0fivtzpryG2K57pdDaVvndC4MespbINgoHFK4JDjFquy2jeTu1mtxe4MvOz4iKUj8gbySgvh18cgljzy0uXxvz9SsgqlmTET6mYP6prcFImYi8tPYVV/yncV7X7z1SHSBFAR2/WCC1ErLZi4L3bD7zbOwbGuxZtvzDNOqx9FzmM1wuQSRfiILNZUOu0oWIY6pXFjZglU/W5PR0AvbQpOev2nXQ/LUCPBSxWhJHetG4vNwVc3Mrx/T7nwuLeRavAAVQ4EEYJMRw4XrYULpjtdv/uR0HmjgyxBz9QvWMuwNunKl/eTsi98/4a1dD5uJLKIGcK5oYaYCuCO59GDxU8eKB0vtLQ/ve+Gc06Z/EodEFhI1EtjDeafw5Au+1xKbPdewrWs0x1oadsWx5RbXSnMqw1vl7POA+ra/lXEOzUtpXPRqYifWJ/0WjfG+xtSmF/gE72Gr8WXYanxspqF8Ht65YEF0/is9b1bggE+eBoveAWSzFMElTznYdqgsou2a1vCBCzc++jtO8/jHsPTxqWXlSilkoX0dH4oleHYoZYqvB5c8WHL2yY5i7JIojd1OoWJLw7NgSz4A2WQ8tZSCiia+p2JY5aSfsroqnXu+PmvfUma6x2qW42AjEyuBc5OSmHzNIJoDQxgngz/sO+/0Yjjv/Tk283Tjz7JtuzznTq5LK39XlXaef85435MtsRmXAodDoSJO4h6ApEBvsUyMhvjUunXpVFT7cgjyhH/Qxp4HMkgGe0aN5oaxkV64o02ODkVLS195ZGFZaEnU0htjpz29bnNZZ24y1JWDv8DmBVkoL3JbOGHYVl3lxpvnXHzbKWLlcsZTkY4gy91XQP+i0LhcVTl3cUkm+U3sV3k253HRZWDpGFzAsLXwjTJ7FSGZ4wPAdyGB/jO/6eE3/IcoGCbtEDeFaQpV7A27TyUN/XOX9ryyjmCGG95bgHpEl0+XnPxKXdKdlYRfE/oX678DTlh+EIIS764O7XrsnAXT4w/d2zd/KHFxoSVRnvDO1oWllgKhwmYFdIsiFTKTv0eXCA2jAd0QyfKSOyhUbGG8OTq4h36bGkN2R/G4urr8tP+o70mtrsjYZyddy0qh/cDIZVlJhxQqQvMFh9d+4j3/r/8eRUuWi6tKqJnUbvAPR93ZkzLu4smp3DNPxU7/HvMzZpy0+O8W69vHkYzGvuHSq4XYLRaQtAfJaBchphjd2RWmaFj4520LWB5flqTw+Ba91tF1SaxHLj3qwz8QgwlgJAmwnAiY316ibX3o1PkPEAbP3hsJrKG+w26WRvT99QsnPHvH/6yfmjA/btk5m8epQEGhkhXusBJYyleghvkKDV2m5diKA+G65fnIyc//rGJRFWnJN6bAcB4ICDiofcXFn7j8F91RZXMURi16C2rUwBNW2bpRyEysp/sSAvdlSQoWRkaSkFAmfR52CaXzxveLBEIIpZSVh4LZBqJrszHjnu8/8v1ssW0rf5T0+4pZJ5zc1vlSTUrMhk2UsxDLDYnCf5rnfW1o1GUlJP75Rj2gQ4O5agILeqsyytwTe9s3/D562hSuxiFto0Y4OABpa4l43EmGwz8Io6hw8Ni0boNKhMQ6hbZWsoAucpkmwvZlSY0jnh0Z3F8tev/xhuWcSrMdv6XAMWNQCcKKQZNrtMWcdHvdBKmtHhbrpUAHhaMQDrUCvdKPlc+eXp3KvVBui0lJTKCidCHMppMVAbLZw0xGk+H8IwN9JuJ+iJvQVdjutNqc+cKqyjOmkTa/y0LWwJPfEyC05metETfBE8M4ICONQSbszoQpHhyNkcrN+tUZl00DfDeOoqtLcAo8EdXu7Tm7IufSqQaVJY35wPCzMAg0trEgApZ7+OErX35kRzM0RlwqMTwMOLHCqBV+VX3alPJU9plq063i0nUcOw4tIRuOxCjpChj3QBVHvYh2ZaD7NSHgE8sTPc88UTKrnt1isYSLFUzY1/75mX3ZkPEb8h4GPIz4YBLLmW9EuFSsClMJV7R3zSX0JfDh+Y1KGOn0Qh2HJGFuMBjMBVC8wjhKNqSJbEnJT71HjQU5gruMo7V4NtVFJQ291pNVllubxPG+pqIyrITaWDIkOIyHh9SPk8IFx7ATaoiZ5up4w5wYaSXNh4cy/ByN2K+Cb+VKwj/Pcl01anf4UA79BrtX8lXH2sewmZUGPN9Q/T7RzplzTag0YA4MeV6iyTU4RBWtM+zuXn/K8auI2MfL6yDTbXlgJ/Rs/58JOXd6Bptc4JahYW8Jz93hCVeQOIcCq4CpFK7chJx60nmJzIN8FzRLARgKnOHlkZugiKdPmtnSGRHbw0LjQCVQG57aGAnnRCFYy7Ln8Afq1pH21YPnX1sTMu33YSTDRNEOLJGhEFeMBjFDGA6v+sxjDySb5SgleGZS9ZNxT5We/vH6tPp+GOpYre3C1cKYajoFyIQi1eEQOebR4IR6MYhoSImLH6887R9Bs+y2hghiyNl8uPGWn2TskP5EWPIgOMEiR6mH8CnPVNZTuZNXNC4rZR1IIXJ2bz8xZDqVyIDpMGzKOmTSD58RSGQysQ1aTgs97P1q9L4C/IyjcF4XuHBCJGPdkZRbaXCA5tlUbKakxacnQNTDAuXjBz1GCi7osqT5lfvrT5tQzC6RBHIXQwsuUh//sIg+ROY8PISuwlPqiHp1y7bjmV0KVn06c1KUEX3UaEhBISccaCsXYf56KiQyu2pLpQd6dT7mi7iCSjQYCWtKMhGvttwyCBSMdYZTeymoMuXBjfoL9MDV75q1oPWYhCXXTN6WL8OogRcA8Hm9tSK2LhESmNaUoTQ+WwpyjvzS461ilUKGqu3cdELyNFYm+z6du35BpILE6EEU2GVPFRlN2Xjtpie24Z4Sp7wFmABPZYt/pPLsY8vSzg1pNBH4bdgtBtZIAiS3DxR4oacxpVSWdW78XcnMiUoRDHnwBtNVQrl6S8sOy1BeDaEu8DtQ/rNABIid94SSzpzC31KwLF1M9yoBKANPCpqIKuyQeJ6gW/Khz0Gi8bVVabbnphobp2DIRQXBdulB0lsAi6sfzCpHK620xQ28Xwyt5fM8GzFeZF2g+otR0YiwgqfMCB3PckjBCnVnGjyHYfDOBhqrJoYIjqrLUBIiDTKxNVJbfe/ES8ORnPjrlHR9yo3wx7W28nmAPgKrjB04RMT1cTn4aOEUl9e7+JkC+tZ040UO14Ltl3zisGwWl2rKOo531GWIw4rZSo3nagjeiQXFq2XglmwN668SIcN4+R1c8ibQT9+9a0nMcach/ohtRDaY4HAED4lM8HoJ6bm24ZU/fnF510XEhHixQOn3ed4ZDb+WRNgiBKvP9gyqZCiL9KwbrlsH1aWoVz3+ZpmZtSfSH8HWHxSiPBwXHFKyqtuTqa5+h/eWeRvM5h+P/qslH04dduzLIvLwkuKo+dFTuj8EMprClTd2sNLUho1i/RVz+WXidRDpVbFSNubUxKq3c6pIYWwo3UzyZhAIAIOyw91iRM5tuK+qqULtqYmFMEeJCVnfKx2cbAESGEZlr+y89qQKuSV2cNA9jviOVi1rnWt6ZQgaRUCsHxgMuyUQjPk2RUSy9kLmYtc+cO6R3b3Nk2HxhlHdgcCgVqzhJKdgEQWXyHTCw5BJD0/BMRdaIlWB5a2RfMsJDpOHCBPPirA0ZZ9A2DMD3fL4A8GDgsgAxd9g3g0ApxdrAj0QYgcAUtACuGQLwzf3uF9Uz5rKrPEAu3PgkRPD0lGKDXw8ZzH6QyIKKLEuKEMw4Eut1tY6NWRbdYjzxlG6WJbqVVRAqCQYEI+za4S7j7+W4V+QCUuwJG+qHPfEkFDKuKQI8AvqK0hsxYNFvqMbcWDrRiemrBOIaQZi5YPEeFueL72WnZQbiOQ7YeAOMtlR+HmiWadWRax2xMDcJGok8JAKUsw59UgstI3XLcKLq+d1EIlLtghHt60GnMAFKfMcvEHAHksYLAQqmHNPAgOQOuL2A+aCoqMlL1ixytJt7DawDDlQmfLK4K2UKEcojRqFBU8U7Os9TEHi8ywIx3LksighGoPi035wsoZ7Aia5Jf1BUr8fkqL/4AyFPJnsuGKiwqqVDtY2h4XeZFew2BDsL0ox06LqGo7uk+0+WASEBrDSQLSyOGquCKkxDxNrtUs8eyFQe7QIFA8OkrxiGVgW5mrkR6CpUUJDXWCOxWuErPagq55Gr4ZN81Q3ZMipj0DLUAiMmPKxFYW3g7huyQPhwSdMaITBO+I80EX/JO1Eolg0dYuXTJ5QA/DFRILNBRH9xbPXZJGKUxjZk8swr+DhN/og0dQ9qz1Yu8EHPxbfqAJZ11DtRawNaER5UqyHrBjCReKhRxQVoynZf3il8VRkUIwE4QCLWKh8oGpjUIAPgIMYPgbzMRW1UjwURfuUIw80DXk4Z0uR0ChGBM3QX9FNuzo4llFQCRGT0abKA49xXbRE0GpY40AEo8Jgkw9Pt7W3LVSLV7BgcYwVNFSIFKyQo20tDs48t8KK4Vd4cCLlUSxd7KiEbM4yVWx4lkOfmC9LkPLbzx7FwFHMMrX03wzgyp8DS0fVHTzzBPOSR6WNJRsftG0G6iobcqTPj7vWBMCig0BgdW6FB5hDheCSTyx21hbcmkDtzOawptJzC/jiFRQ6wqNqzKazUwiz0evaeRlI8ufAWg33rbSCbRbynn2/kIEgKSIQ0sk/8ImuBjWjOD1vacZbRAlXMs3GwFJjnve57uQ0XlJD8jN/OxA8KIdiQl57FcdSTcfI2ogpZWv3h6FBYCHJ4I3soODWn8hf8JQHmuJ55i/v3LQNe9y/DXuRrCqKozdQwguAeY0PeyDgHuZUt1zb+/I+lIGa12NhQd5RXkp4EUMp44VX29788Cjhytfz9KpZLLi21fI2NXzi5D3Y5ymHB3LGOwgk/TCwiRIqO2K7tbzHvQv6nwVz1YwYJkLKGtozXLCBFGhLJ8BiJVJLpygatJysz+r6s8TVEnAwZF5QnVsuvTRs5NwpXDTD3U+IK0jpZeeKcVoyXFHarnbZWqdruxkNRQwykWoWCBuhYiLMnvJfJ59fQ/i8x++gU9owHkFIiKwmwg6SYUHT6sMjjWwF7C2yoN1VjD/4z4L8vj3P88Z9TjV8fhNovAddDywL9Z9rK+Zbne1ZtV3TU6qmdbHlIAVWH3lA6F4lzMpoT0LO2vu7kQTFOD9sprOm5oluTbShgWC/BE6PBFiYoIg9AE6+8SF0W9F6DHvvlqmxZmbxy3RA9hH/9Ce0w13p4zA8j6H6YVd7FT5ioAe8iLLIVRpKSNt1a+eGbvVT61amsXRjOyeL+TCo6pBiCuSAapebmqhNZWaQlqAnV0kzu8Plbz3RbYa1X5VIf6+KXYMp2qTCp4TYx1fKU2jhiFyRM4xf/u0ba3tYFpYpSEp9npenkzNKsKGjxaOA8xiC4g7AIURKiIxit8NClA0bfiYDMTowgGRtBIXKq1J6l2C8Yxtn9awgmVUICy1c2lXtsdDd3dg0FBs86lZf6Jc39inMP36uGZHhGp3wLLWXlt5NuvyyBEtjiwSnWs5ZrIu8QAeLQvYSWJQc098mYMoT5qfc1xiQx34rKLHyiJeMw0oUR2Cz2PnEVQzGgWanGbJ7xb4/vpwJ6z8vxzgE5eHIt0hMZElGn0A3zw4S6Ujo/g/uee7VvLaSjWT00PshNOYHTW7WnIs1AXhQjIEzezzUt+luJmYpWKmw8VoOYyuqMgpEkAnwVOz0IiI5+7QVx87F2jnhxPN4g8SzOj8abC+v+nyH4WZ5igptrSBxBAGLBHl/ciGvsS/kZHeXVX6JsFcXYSFvHLwGz91fzFo8NWxaM4KOsvXLAxxKFp24FYrIRTNSsDrDzmu98oRlGCgBJnZCqFxOVVilpiitSSlyN5IlRVjxCwY63Mxs6a6ntyXDxqfLsPsjenbEPaDI4yaRFmpxuZeEVYaIJTOifX45aCbt8XzjCJJcn9fVHb0Ly3MqQtDRPwXEFOooD5TUVlpSd9x9qt6vsbaW1rxlqepuShWyBqKKiZLSnB9twlx0RDSXfT9uFS1xMzPgVJt6X7lrb0j/bQX2kYdwYYLaM+WLhnjIgDn5C+NZ0bHHvWvsjKlPLE5s+jZpJu1DBjOsjC0yN8KFL9UhUqxc1k0wqU+0sJsQrWlnx+snRd4mbHkc7Gdefixpa+qr+ShMykOACeCg9eWmEaZ58a0LlkW5CoV3A0TSB+r2/NWjNaG/7lDFFhxUTqc2pxKPaPKZipBwqwwOq3Zd3f1KTSV8xsVL5HETeosbly7FjLB5Ie0rNDHZSwWBlTxludBc5EGJuVjktXhLS4aLZlQ/btzWnOe4VMsz4YNASxiEBxWI8BzsU2WX5cSUS9/ehrIyBbso04MpRBzoaATHd61PdYUiFyRU0YXte2hv9WkEr535bxT7mxyg5pYVYEXgZ+vR7FxnWeyim7c93UlakSOQXkIi2u/D4/GHN+xurEqLBixq4Y5+gQkWUXljbm6jAAtdM17kPcpUH5J0LLQOZ3lAEILb84AdEP95SBQ3jKqNZHPXEHnQCysI00/UiLRZzs9swHEk+uKUqqQw3WOgG+oTLi+vxxb/vaC/fS1FuNAVZhg+xJQmrERJ6eKLO1/cSBqDXkNYWAafx0Yy+5GwjLLloRBBJk9xQLyUXJjTao6ckiIG1R+J9JaXrE9qKpYGyX0PAiaAusvVUnDNQbAu/8VJFzZAbRVti0QWjDYLK25J8pVXrFh4bq9utUUFNpiHzcU1SSygzxbmL1YCLvQ9bi6mKEZKF525stDc8xLrnyNtxbOrqEm8bnDFsY0T9YxzeS+madGMAt16nFggL9y0WOvR1PTu2vIN5CNlSo2zp4KAXfnamt1YWPoSJ3LxuxiqGWvnFLMi48QmdHVdSwImiTn0cBQt+cJ1du+GV7dUh2e1G8r6ciUUggZF+Rwb9BQNNwFj/Gdhuw9RqqqhTs15YVtlycxzul56qdhCRdz+YfHVvT0fqcuIUigs2Jme/4qNKohEONhGBttUKcIsCW+8+uWWHbgnt6mSvVRLfvhvxoxmTkajJRcloh9IeVSNKE1nblq2LB7izsagrai1S+GiHXPVvo17F5ibzmoNKd9hrD+Meh4Bwg4CERckYX8yyLTBbDHJUPkcH2yG+U8vPxsm2hCMdJzTrPOM9j2GcccC6415V7at301aiqmpJDFALnmLkzii2ezHbQ6MwXuvTAeWNP/GML8IixzDmZjeNlUxYzVBQJakspCC5UdimhXVj6W8hVTyoRxDHMBwvjzSBIHlXpVWVco+9vpnH7macMDoomot4qAdw5EKr8/OvnLr7lJlUZehvFiGkyli8j7OJwFdEBJoMnaQBwsa3/WZ6Yug902w8gqN0cFo13YIEx51HY7atZ0Rbd452Vfkjn2koZg2FWlk8nn6yN2/vaom6Z6YhuaEuMu69mn3co7804eDrl7JlMEzV1b6GKG1LvN2E5LPwTAZWHbLpbeEr3qmeXN5t3kM3APQLSq8tmTn6JNfKUDFjW7V9jLxxqLEq6dwwhLQSUcwiA5BKhAobFF+5a4umXmVYTqfKbfE7BKIBUJqqcIwclJwsixbIz/7BzgE7ROLB3iD+TjYduHT0FTuXMi9rhCp8Kyph+44N73xf713GuEibJEnjh2CvMAfPROb8UpVypmFXZqJO/AGjI4Vq7cdJVET27vjvHNOXL7y7l7yGLj6pFhGCPAYEjMSfox2Fhym4KrXdoOocSCTlQKVANeDsBp6xUlPNMz7GLkJmyNQj/9gNcQCe9prGbsFZUly088X5l47ozOqX7g3pD2Q0tQ9OqYZMdeoY5m4DmNfgwsG845SuuQ3nGJgnKLAbaChO9UrkS+kYNSjip27w9aPWiPG4rPNzQsoVMABPyHOgYTGJO7B6Aryvn9Oz2N1Z15Xk3VnYToNuEl6cIkF4R+6QTsKeU2XhB6nUDVzvW2+nKxvmXg4JM/x+8PM8y+Zsm3fI3ZPlt1DwKMI1AqwQWKdsKupiTJlz6NzZkyPt6zsk/Q8OWPyhS5DbyzQJHfVNZaelO6cqzrugpBlzolgIzeopWMwTo7AEoMw0qBQLNVyc4arbO8NO++4ivaC5oSffq428sKndqxLk3AwfT/NOCaFyeNlxcqeZ/WTm8tT5jE4CRZtGao0wCTrUOJz7XBpSOuYVnXJ4k1rHvVliKgKBMtTYb+/5Xvhiv/+yZuVrT1TTaGhO+xfwxMgbURtQjMY2yZGvtW054+fGYuR0mD0kyHc7MzvIgvz/bR6fnmsSotkOxPw1CBKrqIkl+2yMss713cX5uM1BZX2qjzC7sCHY/Db5+Gq6jO+Oq0j90Uc6MnBEVwswSVqqrxg4QgboXWUqH9ckHxtDhsThdrH1CdYvEHGkLktx55z57R3Om/tVCwTe4bAsRhc8gkDRHbRihnVxa5jak6/4o01LxceVhkcxqFDInMY4crAuEa5peVKGll9zDoQEh5AIBsVChN3KjxU3gPfDfq3z7sHJ519yjHtvZtCuRxGI579ul8ljwJxQd1RuNgNavti6t+em9r4n77s+OD3w7kC+5Eu57nQ85fNqXx984tady+sPs7jegNp/6Xgvr0heVu5/vw5iU3zWbF5ggatzOBwDw0SaWLO2/Pft+UFDTfHDY2kD8QwPMZZUzprTX2vtahX2laIr8QzWQBmCihh9GvHFF1Lu+rjZ4hNF3G0e+BCmf2UEYWKBJ733Mr1vZXhpyOwxUAURxQyBc1J2Cx6Gl3ixISYt6rujC8CjztWhvxQeUya+BdHpfHP/z3U98ciH7tA0OWsrjr1sw29DoTKhjNU0Uks/geaKAPc+ErFBSIafkzgnBs8EMl+gsWHLY2N8p5dWXaPW4LuGXv/EZj/ZlDC5cOEr0zvFpZb3Zv+6qMNCxbSeeiPbA4k9r3fB3OAXRB59tDEs+aVpexv9GCUAY8/Rtl0hhycf7R3ABuneyo6XDO9PUJ9nPA4ADoQ7kGC1djiZWr9wk0rOirDW0M8uEtT+va49gXsQEAj/Q21Cq2oOhEcaVfe1bPinjkXVNBrTJthpDD/Ut4jj2gTx2cuK61KJH8ZyfIMLnr9PT0QdF0RLOwiqwyDTCuk/MdCsakDskvPwUEifJBgMdM9c+YYy5cvz7nV1XdHohER4sYhSBy3BpVYaFLDwDf8aSlFMWtT5uSZb+z9NXFwZIXnwfOGwN8FibzxR58Xbd/0vxNT2lScdMr5wEAbZKHE4NpFXRk9COhLhyL/SjbePoBQ8f5BgsWbN673DgDPzTnn3t21kTZoFQM+eG8GkxkCTYhOxz/VVY1ehOJP7LUbmytP+2EeBbvy94TrYH6TJ7Lu1lSc/oP6hLigR5iInlUDdS0QrS8gFDAIFVxEOCU3pP58ce+G1k1iZig+iL7x3yOMvgSqaUQbTT+Jd4na6u+Fo5iwcDgP5tVxoRT3vTSCi36JIRmEytZgW5O7nRuaq8+M47ndAlWLB/1Z8eMvPCnNXvdjP1l9xpfrE9ZNCTlHGay/yucxeynWDCqAqjDUoTid2Uj4R3y+UmzCDNjAaUDBYtY5wtNaiUULvttVHWvFJA+0FnvDYOs4TzSIz/9ThJZyM3Z9InPb6to5n27C9A8ZiXzBIh6YH+P6LnlAXpAnT9Wefuvk7sztSZf7u3pxVugGA6efI0sKCWJerDCmTR3Nvv/sxEtvUvHEB9FWJGJQwQI890XYWpd9P57I1VR/zYhhzh4bifAlPAss+bD8b8/Rb6iWlXPqOrPfaqk969YmL7zlL7pbpFBhtx6VvGipPeNTVd3pO3EMMxq63C6xj32BVQwAUUzzTMeYAIGKrrM9Z6U/Txy+4uH1QGlQwWLms/K21qI//eF7HZXRN3BUhgEHBo3qoiRyh8Y8pBdeY03J2Tmnvit15xPVc27HMxkd8Jc4WmSZUX5MFQl7VfXs+KSu3L/BTOd0G2+TbUVLBI76sGtgtud0jgR3pPN+s0OKwSEFCzDd5kaEfCBKMDex/jNqOTbmw7kcHHRSC3oRmMGVi5QyaJihw0hwwyhKxrLtqZ2ZL7dUzL6XNzkS+kvyc7Gs/ujvKQxqjukwb0tZJjbmg5emyEKFKqCBa3Mxyl5hP7fh9JJvsQ7gNxvUtuJzpiFJBSqcLcZee9y5v5nw9t7LexGvh1rHypdDCq2HYRSfHnSXu5jYESWk7ysVzWtPq7jis2vX9rDV5AtYXCJGQf8oX1VQRun8/Cx8e0u37Pz1pG6lkYY6BKroAxoy1RMOxcamJVqXMBfOF1vWHTgnOFgZD6ex8u/FZeX1Tj/xE211Ma4iQpgSe9/iihYLhiE0u0U96VpmXY/ZdO6GjtcfbpgrPfQk6t3YNbJMLBs96izr0jd2vDYRQtUNPxU4zti1ISkE5BtRIu48ApMh3EmhPkChIl0DRYAMhGRIgqWIuFy+fvFj923P1FT/31K4HxwX7ge5jH0gsMHd42Yl7CAx4jFSmFesTLkNDe3JtatrZn8BT2SICrUXmFFUZgdXosEhsQwsC7s+lu2p6jO+1NCRXFvTq0yCU9LErcD9VIXUUKCYpH8dvQS23jSSwty3RXTfxPuv5s895PXh0rAqA4jlDPq6qXMfr9neewGiEzHWLV5h+wtKzeVJDr5ttAYV+x4oO8rcZ1srS2740LYXNrGgtEfyCzQOV+7x9lwB7bpP+2+OO/e06vbuexsS1vxezKPCfYxRf7Ae9YEYQB7zT5XOAgch5EKFlrzobPHm40PtAn24Q9JYfmYh4vIyNeXY6zqqtF7u6ELDvv95sFeUel/y+Z0XLtp7ogtdY0PCPXvavuTGJ+pmfe3OBQuifsWQCQWv4nLcJvilJK0uab9n6Y2xJyac+c0puzv/VJ/Ize+GN526eqyEinzlKi10t7kK2Dq9qnsnhYpadKhdoM9pv97834f9pm8LbgjzqennXlm7q/uX2WQG7ofgQ5gHI4QOO99baimKpbsOVtroorVE3ZEqNeIX7N3wY/9darDdYr0dZ186jhLoUSdhTaXfEBBBojyK+P+KnnS8ttedhO6HnT9j1RFPxeY0dgkLaKxSGc4ktmwWp57MbhkUyCHocKgYtmAReDNCcZrgqFtdP+e7k/emP9krHJwoJY/b69MwwyFiOHnJZv6RcM/twT4C+4pjniwEX+HemPtqqjR2x8UfX/ozEY/LYTHpFaIR/8Z+pYxfNtAMkpepXPZO3sn78bj+2A9/d3VJd+ZzdSnnJBMDPqwA5I45XJQguwKvnD6UYL/JRybi8JLCLhdrxRgrpc+ZK17dUBjH7ucaync/zKHkzuchk/CipOuZCbPX1u1LL0zABYHlUkU1Lg8k0WOMZ2pimQNWYiH8hqMmnLCSiGlvJUvCP9hZVfPTa157dLf/bnNeyFZjGXi8yJoM8NUlcjFwC9Y25oUJhDxwysWTJra3Xl2SMT+OdX/H27bFU2gpbDRNhmme4I0RJ6/6bUTawPMNLala5TI+LnftmWLLA+wCOTIdCfgRCRYRcehJNfngvL+qmfLGm5tKu816tDZMVBcnHPbwhWNRKGo4DQFzT9yAAxGwYl9MJHMR46F0NPazdWee+mT8oXtTPizklqtp+Lsgbp0/CWg4ScbU+fHyfPFA7cjtm5a+/XaTnstdbaTdy+vSbomJLo9L4ZB9jAWqUOvzmstO3VyNq4S6hPj32eL1W1zYfgpivYbDhMK8IxYsAqHhSaPusckLZ9d2dvxRhT+AtUp1WohkrK59afCQMzhRsXUMMLDiGWfUaKIz7O6yQ6EnFCP8u3dKI89cvaVlx0C0MYab51dz5U4jMrTkM/GaqSX/2Yg64WkbB8Z7y8f4+MVJ5zRUdPcsLM0pl+k5+6KqrDPZQEfHRa3gE0bUXO9XrFVQPhWDf5Nf3FtIc3XsheoibMl9FEJ1Cd9go4Nw+CwdHMggT0YlWITpq8snp86/YsKuxK8tG3M+IAh/cE34WmQQ7EW8TY5AwPFJU9/BFIiDxYEaTovCBhY4pjFhiHTOQNyHoT2PY+9eaA/rr/ZUh9659qTJ7QKx/8MiDcb3z09qqolm0tOqkpkZ2L1wLrYDmRe2nFNLTSVmoN3nMAGGQDzA1dhna3K+Ckg8OoeFbcSZC3FRS3H8RwEvwcZWaWH9qVM0nEVFgXzSrTRiRHhx1IJF5L5wramYfeOEXuuetJ1BRcoomz4DdDREDvddMtBnYqFoQ9Cx/lRqVOgwVw+BtdxsjidW9YTQJyluDxY178xqyl7sMbE3Go1sd61cysyYDmd84azFPCk0TAT7iehKJJcxp8AzOynsKHXY2XMq2nh5OewBbnnNHQy5kSwkCTvOSCHnVEWfJvfpCqQChsUgjzMULOA2MV0DoXL2ZIUya754vd3vhYYFcoDMgZXLJ+jp+jmfm9Bufj1lYSW1gipD4wwMyQAFGMUtalXUuRcZC4HhoYrYbpa1z9bMCVhP5/mH1WkUK/zjRDkTy8VrubO8dw/OTAWNiklGHVCQxl3583Rjd0FFx/bSaewvfeZZuc2v+wpCkj/Kj0DrHOyWk9VPxWb8v8kp+5+xigOtlUFoksmjJLW4r3vtmIRieCl7cmmPQ8A8TxKfe62cn0xeR4+ZB+4awlsK5mHkDGqgTJW4gvnwmwNMdSuMlTyYOclawjl7nngz8D27AuUBCJcMxofzVHTmNyennX/yZuPlphSoKb9SgmFU0FA8xnuF8D89mvvZxDzeL0/g+p8ETc3o4fXT6pkGVJ+4hy0rhYE9YbNlIrxguvjThiA1lU91X5/v3xjNN5jMskjDfXF602d3x9yvlasanX3sHfIdyWgwFPddCokvKBQbT3SIUxZLfnudYf+Twqe8Hn/J06w8GBjN2sRWS0ZaEXC5OPMpVCuwIGKkvqpDldXn46HyDPsZqkHWET6cZ+rnfr62PfW1pIXTgUQIQsfhNSvqvTQWHGCYBNwJ6NLtHCaVQ9hkdjc282qcncUeCqNwgB6O9qIIFpHmhYvDVvvpitNvqu4xf2Ah8sNWNAs6jTbye2kMOMBoXOzAlKvEfvcJYb/cJdzzm8TmtmIKFYsVaFdYyCcIFC12DO8b9UXdf7pnT0PVlamSkAhj0hjjJEwTeDJN3eX/Fb7/3vXwOTAAH2GC6Fa1UEKI53q4S0yaQ6FinRSj+yuk2KvdwjtFuPZbx5PHLJoTS3Q/WtVl1cB3ksMMPrxHZIeXxoQYH9m78NsXLMYtw+1h4RuRH6pAkMBXzhSv38Yij3RSebjsGrO69IVrxRnL6o7Z+eZDE/al59MdQZsLxaXzUIrYmBE0XE6N8/zkn2emS396rgT2VC/G4Y5q3zDX3vJjPCdr6VPz3GxFLs+Y1qPvRGWZnmyYf9fERPJmqxcnvCAyAlZ93+KMMSWqyAweC/CeUMmGCVvdFRWYukoI93Vb6P9njtj4Mvl+4KR4sekqmo01EOGch/IXP5y367m/b22o/XCqKpqKyl0DsVIO+y5RqMioMWlWAxF5lNwjj7y/vDtB+qcUjStq2lT3rl+LD8+kULGnIN/BV2Yfs3RElANKiHAVoTVhHq258SNTQm9t+a+6tt7z0inMrikaZ0g43QbdPaa8GDOmjwQROUEtQL4wipa2AysPU0/YhNgVlVJL2TsRe3r9XIQT41Ff9AmvxzodEcHyC+mHOfP36vc1/n24rftfazrS0aSwoNI1GKAq7E9Gfb+XfA5QsChg4AnDgpwSzPfR9ZkT6k9bReYTF4q3uqmluAQeeY5YyzzidcauERvDStcEtZex9e3vVLYlr9R7MgiCc01XhXDxnKP3kpQSChQ6PxtT+0YJuNap2C/mNPszC6wtLWSRC3tKQdd3pNl1xAXLZ4A/auTv5tMuuyS6Z88d1T3ZU810DtEDqunw/HCeeJtvhCTcnxT2YbxbvqlmCivGKyd7QdfBWj/dwNgu6bpbMOaDG2HzAyw3DfTVYxBuPVQeF9I/1HeKls8VcSw2iKtNXriuWHNy0416V9eXarqtKbl0BjG8cKwqmmbjiBHEU4EO+pXH98T2UJnlC5P/zfe8awZNYPcgRHjyFAjsH7YLLoQfnuls+QrvIw++lmGGY5jBiUMlbIT5QNT4S9yIpKnFU+fx6+6LNL5w/82x9q5PV3dZDblMjgF0lo3zNjCGRCTmuCzCaJkK74uCZVeuwlEevMgC7oN2RLd97S1H+/flYhPCCSl446PbG6iw47pWCgVsxa13Ric88vANRnfnLTVd5nQ1bWGKnmHQKvfJpwI7Ku0wX0PxG0naT1gvY0RkOLwGr7m1HqPjuxURffAM8RLWOnjd3lj7pYh3OGlcCxYLQlXPQx0LFneqLTMvulLr7ro52pNurEo4WJxgwQ7DqV0Is0Ml4DAuCpnn38nDkDw5Eu4Lr6Mu7K7Jci/sJs9834OgIQZBieIptyfHOsmHDaHfPVNs+oMkXr7ViMn7I7c20qdjKN/jXrD8QlDAWgqOhOP9x+ZeNju0r+PaSCr3ofKMOTXcw+VUMlQYYdHsJOVW99Ll40WCskL7Bc6HXaxvTwv1OTClOIHhEBr6nuRiBg2RnAqWqkH72iKnKG/Bg/BLzdF+jNUym0kXyy3kmY5Hh0D5vDxqBMsnGN/c70BDV0A/IVu7uO+6eGTa+rXnae0dy0OZ3IXlpmiI9ThYFWNB0JhFQYi07ClZXo4sZbnlBwEUNUnxgpFNbSo3MpMrhThRnARtiCHaDAp/ilVEDyXF5I30kpMcvIUsy/DG+DLKh8qqseHtUKkZZj76wHigkl8ZfD2OjTUWvbN1Yaij+1KRSTVFTGdWRQ5LhrBhJ5dB0OpFzUXmhAUAAAHGSURBVKG3lAdeyllZGsn4j5GVFIK8lpCqYlCKvJzeYzDR/0m4+M94edn9wTGg4MxDrFmCiNDVmxH2XqzkexkC9T9YiPb8w+Kt1+L5UTChodFwXq+v0XgYjr7Po1qwfHazJsUy7IuwsmBfhPzDFfMuOq6+NTlXZDLnqFnrrLBln6TZoqYEu01w8SjdFZ7nWmo2XMtEAYGWwecBiXeoefoZJ9fwYNcIb2UPIxi5uof/snBV9sodTNx3MLq4XcmIt7vLnE1NPZvbCsG6EKaVooV7jBL9wUgLMx8l1/38OUoIPhyZqJWCo+EOtkv+t/G6SrF96wlVZnaGamdOdnR1hpG0GnTTPRa7BmFNqxpWTDscwYSIxlEAqrqPSbzIVzvXInKjLuxGIrBPdc6x3Yyq6omsZr/jxkLblay9KR3SX+0Qoddfr5765/imldJFQPoBQoO9iOPo3l3CVFg3fTwrvPluuo7DploiN+aACXyILuY35/xNmW12hhQ1Xda9dWdNSdotw/G9aswyIS84i17j3JIQYaxqTWPpYFJ37ST6VCsUyYWnTt7TpSc7M3YsfdP6h/r2hijkYzOC7hrFMsjUkT3XsJCmYl7/f5LHwhHAhLD4AAAAAElFTkSuQmCC;" vertex="1" parent="Rd7AuOM_yktvcL0HzgPw-34">
          <mxGeometry x="154.5" y="84.5" width="22.5" height="22.5" as="geometry" />
        </mxCell>
        <mxCell id="Rd7AuOM_yktvcL0HzgPw-43" value="TAP @ GCP" style="text;html=1;strokeColor=none;fillColor=none;align=center;verticalAlign=middle;whiteSpace=wrap;rounded=0;" vertex="1" parent="Rd7AuOM_yktvcL0HzgPw-34">
          <mxGeometry x="46.25" y="46.5" width="87.5" height="30" as="geometry" />
        </mxCell>
        <mxCell id="Rd7AuOM_yktvcL0HzgPw-56" value="US-Central1 &lt;br style=&quot;font-size: 10px;&quot;&gt;US-East1" style="text;html=1;strokeColor=none;fillColor=none;align=left;verticalAlign=top;whiteSpace=wrap;rounded=0;labelBackgroundColor=none;fontColor=none;fontSize=10;" vertex="1" parent="Rd7AuOM_yktvcL0HzgPw-34">
          <mxGeometry x="55" y="75.75" width="70" height="40" as="geometry" />
        </mxCell>
        <mxCell id="Rd7AuOM_yktvcL0HzgPw-42" value="" style="endArrow=none;dashed=1;html=1;dashPattern=1 3;strokeWidth=2;rounded=0;exitX=1.048;exitY=0.557;exitDx=0;exitDy=0;exitPerimeter=0;entryX=0;entryY=0.5;entryDx=0;entryDy=0;" edge="1" parent="1" source="Rd7AuOM_yktvcL0HzgPw-40" target="Rd7AuOM_yktvcL0HzgPw-25">
          <mxGeometry width="50" height="50" relative="1" as="geometry">
            <mxPoint x="680" y="160" as="sourcePoint" />
            <mxPoint x="730" y="110" as="targetPoint" />
          </mxGeometry>
        </mxCell>
        <mxCell id="Rd7AuOM_yktvcL0HzgPw-44" value="MQE&lt;br&gt;(Metrics Query Engine)" style="shape=cylinder3;whiteSpace=wrap;html=1;boundedLbl=1;backgroundOutline=1;size=15;align=center;verticalAlign=top;labelBackgroundColor=#FFE6CC;" vertex="1" parent="1">
          <mxGeometry x="353.75" y="475" width="70" height="100" as="geometry" />
        </mxCell>
        <mxCell id="Rd7AuOM_yktvcL0HzgPw-45" value="Utilization data&lt;br&gt;(GCP Influx)" style="text;html=1;align=center;verticalAlign=middle;resizable=0;points=[];autosize=1;strokeColor=none;fillColor=none;" vertex="1" parent="1">
          <mxGeometry x="343.75" y="580" width="90" height="30" as="geometry" />
        </mxCell>
        <mxCell id="Rd7AuOM_yktvcL0HzgPw-46" value="" style="endArrow=classic;startArrow=classic;html=1;rounded=0;entryX=0.5;entryY=1;entryDx=0;entryDy=0;exitX=0.5;exitY=0;exitDx=0;exitDy=0;exitPerimeter=0;" edge="1" parent="1" source="Rd7AuOM_yktvcL0HzgPw-44" target="Rd7AuOM_yktvcL0HzgPw-12">
          <mxGeometry width="50" height="50" relative="1" as="geometry">
            <mxPoint x="407" y="470" as="sourcePoint" />
            <mxPoint x="499" y="400.0000000000001" as="targetPoint" />
          </mxGeometry>
        </mxCell>
        <mxCell id="Rd7AuOM_yktvcL0HzgPw-47" value="Metrics&amp;nbsp;&lt;br&gt;sidecar" style="shape=hexagon;perimeter=hexagonPerimeter2;whiteSpace=wrap;html=1;fixedSize=1;align=center;verticalAlign=middle;" vertex="1" parent="1">
          <mxGeometry x="586" y="350" width="80" height="50" as="geometry" />
        </mxCell>
        <mxCell id="Rd7AuOM_yktvcL0HzgPw-48" value="" style="endArrow=classic;startArrow=classic;html=1;rounded=0;exitX=0.578;exitY=0.1;exitDx=0;exitDy=0;exitPerimeter=0;" edge="1" parent="1" source="Rd7AuOM_yktvcL0HzgPw-12">
          <mxGeometry width="50" height="50" relative="1" as="geometry">
            <mxPoint x="500" y="345.0000000000001" as="sourcePoint" />
            <mxPoint x="410" y="310" as="targetPoint" />
          </mxGeometry>
        </mxCell>
        <mxCell id="Rd7AuOM_yktvcL0HzgPw-49" value="" style="endArrow=classic;startArrow=classic;html=1;rounded=0;entryX=0.5;entryY=1;entryDx=0;entryDy=0;" edge="1" parent="1" source="bJyrGBfYhx52CG3j51wn-12" target="Rd7AuOM_yktvcL0HzgPw-47">
          <mxGeometry width="50" height="50" relative="1" as="geometry">
            <mxPoint x="526" y="465" as="sourcePoint" />
            <mxPoint x="524.75" y="395.0000000000001" as="targetPoint" />
          </mxGeometry>
        </mxCell>
        <mxCell id="Rd7AuOM_yktvcL0HzgPw-50" value="" style="endArrow=none;html=1;rounded=0;entryX=0.25;entryY=1;entryDx=0;entryDy=0;exitX=0.587;exitY=-0.018;exitDx=0;exitDy=0;exitPerimeter=0;" edge="1" parent="1" source="Rd7AuOM_yktvcL0HzgPw-40" target="bJyrGBfYhx52CG3j51wn-3">
          <mxGeometry width="50" height="50" relative="1" as="geometry">
            <mxPoint x="194.67180264752528" y="220" as="sourcePoint" />
            <mxPoint x="224.96000000000004" y="175.00871999999993" as="targetPoint" />
          </mxGeometry>
        </mxCell>
        <mxCell id="Rd7AuOM_yktvcL0HzgPw-51" value="" style="endArrow=none;html=1;rounded=0;entryX=0.64;entryY=1.029;entryDx=0;entryDy=0;exitX=0.135;exitY=0.014;exitDx=0;exitDy=0;exitPerimeter=0;entryPerimeter=0;" edge="1" parent="1" source="Rd7AuOM_yktvcL0HzgPw-25" target="bJyrGBfYhx52CG3j51wn-3">
          <mxGeometry width="50" height="50" relative="1" as="geometry">
            <mxPoint x="453.1880000000001" y="208.20000000000005" as="sourcePoint" />
            <mxPoint x="497.5" y="173.66999999999996" as="targetPoint" />
          </mxGeometry>
        </mxCell>
        <mxCell id="Rd7AuOM_yktvcL0HzgPw-52" value="" style="endArrow=classic;startArrow=classic;html=1;rounded=0;exitX=0.521;exitY=-0.006;exitDx=0;exitDy=0;entryX=0.75;entryY=1;entryDx=0;entryDy=0;exitPerimeter=0;" edge="1" parent="1" source="Rd7AuOM_yktvcL0HzgPw-3" target="Rd7AuOM_yktvcL0HzgPw-41">
          <mxGeometry width="50" height="50" relative="1" as="geometry">
            <mxPoint x="515" y="350.0000000000001" as="sourcePoint" />
            <mxPoint x="664.0099999999998" y="284.80000000000007" as="targetPoint" />
          </mxGeometry>
        </mxCell>
        <mxCell id="Rd7AuOM_yktvcL0HzgPw-53" value="" style="endArrow=classic;startArrow=classic;html=1;rounded=0;exitX=0.5;exitY=0.275;exitDx=0;exitDy=0;exitPerimeter=0;entryX=0.5;entryY=1;entryDx=0;entryDy=0;" edge="1" parent="1" source="bJyrGBfYhx52CG3j51wn-15" target="Rd7AuOM_yktvcL0HzgPw-3">
          <mxGeometry width="50" height="50" relative="1" as="geometry">
            <mxPoint x="260.44000000000005" y="418.2600000000002" as="sourcePoint" />
            <mxPoint x="260" y="380.0000000000001" as="targetPoint" />
          </mxGeometry>
        </mxCell>
        <mxCell id="Rd7AuOM_yktvcL0HzgPw-54" value="&lt;meta charset=&quot;utf-8&quot;&gt;&lt;span style=&quot;color: rgb(23, 43, 77); font-size: 14px; font-style: normal; font-weight: 400; letter-spacing: normal; text-align: left; text-indent: 0px; text-transform: none; word-spacing: 0px; background-color: rgb(235, 242, 249); display: inline; float: none;&quot;&gt;&quot;TAP Application, TAP Cluster, TAP Instance, TAP ServerGroup&lt;/span&gt;" style="text;whiteSpace=wrap;html=1;fontColor=#FF9999;" vertex="1" parent="1">
          <mxGeometry x="340" y="680" width="420" height="30" as="geometry" />
        </mxCell>
        <mxCell id="Rd7AuOM_yktvcL0HzgPw-57" value="TTC&lt;br&gt;TTE" style="text;html=1;strokeColor=none;fillColor=none;align=left;verticalAlign=top;whiteSpace=wrap;rounded=0;labelBackgroundColor=none;fontColor=none;fontSize=10;" vertex="1" parent="1">
          <mxGeometry x="580" y="275.75" width="70" height="40" as="geometry" />
        </mxCell>
      </root>
    </mxGraphModel>
  </diagram>
</mxfile>
